<svg xmlns="http://www.w3.org/2000/svg" width="100" height="40" viewBox="0 0 100 40"><path d="M84.2 22.5c0 3.7 2.2 5.9 5.7 5.9 1.7 0 3.3-.6 4.1-1.4.4-.5.7-1 .7-1.4 0-.4-.3-.8-.7-.8-.3 0-.5.1-1.1.7-.6.7-1.5 1.3-3 1.3-2.4 0-3.9-1.6-3.9-4.2v-.8h8c.8 0 1-.3 1-1.6 0-3.4-2.2-5.7-5.3-5.7-3.2 0-5.5 2.3-5.5 5.9v2.1zm1.8-2.2c0-2.6 1.5-4.2 3.7-4.2 2.1 0 3.5 1.6 3.5 4.2H86zm-14.2 2.1v-1.9c0-2.8 1.5-4.4 3.7-4.4s3.8 1.7 3.8 4v2.5c0 2.4-1.4 4.2-3.8 4.2-2.2 0-3.7-1.6-3.7-4.4zm7.5 3.5h.1v1.4c0 .6.3.9.9.9.5 0 .8-.3.8-.9V10.6c0-.6-.3-.97-.9-.97-.5 0-.9.37-.9.97v6.2c-.5-1.3-2-2.3-4.1-2.3-3 0-5.2 2.1-5.2 5.5v2.8c0 3.4 2.1 5.6 5.2 5.6 2.2 0 3.8-1.3 4.1-2.5zM61.9 14.5c-3.2 0-5.6 2.1-5.6 5.9v2.1c0 3.7 2.4 5.9 5.6 5.9 3.2 0 5.7-2.2 5.7-5.9v-2.1c0-3.8-2.5-5.9-5.7-5.9zm0 1.6c2.4 0 3.9 1.7 3.9 4.5v1.7c0 2.8-1.5 4.5-3.9 4.5-2.3 0-3.8-1.7-3.8-4.5v-1.7c0-2.8 1.5-4.5 3.8-4.5zM42 27.3V13.7h.1l8.6 13.6c.5.7.8.9 1.4.9.6 0 1-.4 1-1.2V11.5c0-.6-.4-1-.9-1-.6 0-.9.4-.9 1v13.6h-.1l-8.6-13.5c-.4-.7-.7-1.1-1.3-1.1-.7 0-1.1.5-1.1 1.2v15.6c0 .6.4 1 .9 1 .6 0 .9-.4.9-1zM31.1 14.1c-4 0-6.6 2.5-6.6 6.5v1.3c0 4.2 2.6 6.6 6.6 6.6 4 0 6.6-2.4 6.6-6.6v-1.3c0-4-2.6-6.5-6.6-6.5zm0 3.1c1.5 0 2.3 1.2 2.3 3.4V22c0 2.1-.8 3.4-2.3 3.4-1.5 0-2.3-1.3-2.3-3.4v-1.4c0-2.2.8-3.4 2.3-3.4zm-12.8-6.3c0 1.2.9 2 2.2 2 1.3 0 2.2-.8 2.2-2 0-1.14-.9-1.98-2.2-1.98-1.3 0-2.2.84-2.2 1.98zM22.6 26v-9.4c0-1.5-.8-2.3-2.1-2.3s-2.1.8-2.1 2.3V26c0 1.5.8 2.3 2.1 2.3s2.1-.8 2.1-2.3zm-19.97-.3c0 1.6.86 2.4 2.46 2.4h5.41c3.7 0 6.1-2 6.1-4.9 0-2.4-1.6-4.1-4-4.3v-.2c2-.3 3.2-1.8 3.2-3.8 0-2.6-2.1-4.3-5.4-4.3H5.09c-1.6 0-2.46.9-2.46 2.4v12.7zm4.19-8v-4.1h2.49c1.49 0 2.29.8 2.29 2 0 1.3-.8 2.1-2.74 2.1H6.82zm0 7.4v-4.6h2.7c1.88 0 2.78.9 2.78 2.3s-.9 2.3-3.21 2.3H6.82zM52 36.5c.3 0 .5-.2.5-.7V32c0-.6-.2-.9-.7-.9-.4 0-.6.2-.9.7l-1 2.4h-.1l-1-2.4c-.3-.5-.5-.7-.9-.7-.5 0-.8.4-.8.9v3.8c0 .5.2.7.6.7.4 0 .6-.2.6-.7v-2.6h.1l.9 2c.1.4.3.5.5.5.3 0 .5-.1.6-.5l.9-2h.1v2.6c0 .5.2.7.6.7zm-8.7-2.8v-1.5h.8c.5 0 .8.3.8.7 0 .5-.3.8-.8.8h-.8zm0 2.1v-1.2h.8l.7 1.4c.2.4.3.5.7.5.3 0 .6-.2.6-.6 0-.1 0-.3-.1-.4l-.7-1.2c.6-.3.9-.8.9-1.5 0-1-.7-1.6-1.9-1.6h-1.4c-.6 0-.9.3-.9.9v3.7c0 .5.2.7.7.7.4 0 .6-.2.6-.7zm-6.2.7c.4 0 .6-.2.7-.6l.2-.6h1.8l.2.6c.1.4.3.6.6.6.4 0 .6-.2.6-.5 0-.2 0-.3-.1-.5L40 32c-.2-.6-.5-.9-1.1-.9-.6 0-.9.3-1.1.9l-1.1 3.5c-.1.2-.2.4-.2.5 0 .3.3.5.6.5zm1.2-2.2l.6-2 .6 2h-1.2zm-3.2 2.2c.4 0 .7-.2.7-.7v-4c0-.4-.3-.7-.7-.7-.4 0-.6.3-.6.7v1.5h-2v-1.5c0-.4-.2-.7-.6-.7-.4 0-.6.3-.6.7v4c0 .5.2.7.6.7.4 0 .6-.2.6-.7v-1.5h2v1.5c0 .5.2.7.6.7zm-8.1 0c.4 0 .7-.2.7-.7v-1h.8c1.2 0 2-.7 2-1.8s-.7-1.8-1.9-1.8h-1.4c-.6 0-.8.2-.8.9v3.7c0 .5.2.7.6.7zm.7-2.7v-1.6h.7c.5 0 .8.3.8.8 0 .6-.3.8-.9.8h-.6zm-6.7.4c0 1.5.8 2.4 2.3 2.4 1.3 0 2.2-.8 2.2-2v-.3c0-.5-.2-.7-.7-.7h-1c-.3 0-.5.2-.5.4 0 .3.2.5.5.5h.5v.2c0 .5-.4.8-.9.8-.8 0-1.1-.4-1.1-1.3v-.7c0-.9.3-1.3 1.1-1.3.5 0 .8.3 1.1.6.1.1.2.1.4.1.3 0 .5-.2.5-.5s-.3-.6-.6-.9c-.4-.3-.9-.4-1.5-.4-1.5 0-2.3.9-2.3 2.4v.7zm-1.6 2.3c.4 0 .7-.2.7-.7v-4c0-.4-.3-.7-.7-.7-.4 0-.6.3-.6.7v4c0 .5.2.7.6.7zm-5.7-.8c0 .5.3.8.8.8h1.6c1.1 0 1.8-.6 1.8-1.5 0-.7-.5-1.3-1.2-1.3v-.1c.6-.1 1-.5 1-1.1 0-.8-.6-1.3-1.6-1.3h-1.6c-.5 0-.8.2-.8.7v3.8zm1.3-2.4v-1.2h.7c.5 0 .7.2.7.6 0 .4-.2.6-.8.6H15zm0 2.3v-1.4h.8c.6 0 .8.2.8.7 0 .4-.2.7-.9.7H15zm-5.7.9c.21 0 .34-.1.34-.4v-1.9l1.46-2.4c.1-.2.1-.3.1-.4 0-.2-.1-.3-.3-.3-.1 0-.2.1-.4.3l-1.19 2.1-1.22-2.1c-.16-.2-.25-.3-.4-.3-.19 0-.31.1-.31.3 0 .1 0 .2.13.4l1.45 2.4v1.9c0 .3.13.4.34.4zm-6.31-.6c0 .4.17.6.62.6h1.28c1.15 0 1.85-.6 1.85-1.5 0-.7-.43-1.2-1.14-1.3.54-.2.84-.6.84-1.2 0-.8-.56-1.3-1.47-1.3H3.61c-.45 0-.62.1-.62.6v4.1zm.67-2.4v-1.7h1.2c.57 0 .9.3.9.8 0 .6-.4.9-1.29.9h-.81zm0 2.4V34h1.28c.7 0 1.11.4 1.11 1s-.42.9-1.47.9h-.92zM92.1 7.53c.2 0 .3-.13.3-.34V5.66h1.1c.9 0 1.5-.59 1.5-1.5 0-.9-.6-1.5-1.5-1.5h-1.1c-.5 0-.7.15-.7.54v3.99c0 .21.2.34.4.34zm.3-2.4V3.21h1.1c.5 0 .9.35.9.95 0 .71-.4.97-1.3.97h-.7zm-2.3 2.4c.2 0 .4-.13.4-.34V2.97c0-.21-.2-.34-.4-.34s-.2.13-.2.34v4.22c0 .21 0 .34.2.34zm-1.4-1.71V2.97c0-.21-.1-.34-.3-.34-.2 0-.4.13-.4.34v2.84c0 .75-.5 1.23-1.2 1.23s-1.2-.47-1.2-1.23V2.97c0-.21-.1-.34-.3-.34-.2 0-.3.13-.3.34v2.84c0 1.07.7 1.79 1.8 1.79s1.9-.71 1.9-1.78zm-5.1 2.21c.1 0 .1-.13.1-.26v-.29l-.3-.36c.3-.36.6-.9.6-1.66v-.71c0-1.35-.8-2.19-1.9-2.19-1.2 0-2 .84-2 2.19v.71c0 1.33.8 2.14 2 2.14.3 0 .5-.1.8-.17l.3.37c.1.17.2.23.4.23zm-2.9-2.56v-.72c0-1.01.5-1.63 1.4-1.63.7 0 1.3.62 1.3 1.63v.72c0 .56-.2.9-.4 1.16l-.2-.32c-.2-.15-.3-.2-.4-.2 0 0-.2.11-.2.27 0 .1.1.19.2.3l.1.28c-.1.1-.2.1-.4.1-.9 0-1.4-.59-1.4-1.58zm-3.7 0c0 .16.1.28.4.28h1.8c.2 0 .3-.12.3-.28 0-.16-.1-.26-.3-.26h-1.8c-.3 0-.4.1-.4.26zm-3.5 1.46c0 .38.1.53.5.53h2.1c.1 0 .2-.1.2-.27 0-.18-.1-.29-.2-.29H74V5.26h2c.1 0 .2-.1.2-.26 0-.17-.1-.27-.2-.27h-2V3.18h2.1c.1 0 .2-.11.2-.28 0-.16-.1-.27-.2-.27H74c-.4 0-.5.14-.5.52v3.78zm-3.4-1.42c0 .15.1.27.3.27h1.9c.2 0 .3-.12.3-.27 0-.16-.1-.26-.3-.26h-1.9c-.2 0-.3.1-.3.26zm-4.2 1.46c0 .38.2.53.5.53h1c1.4 0 2.2-.83 2.2-2.42 0-1.59-.8-2.42-2.2-2.42h-1c-.3 0-.5.15-.5.53v3.78zm.6 0V3.25h.9c1.1 0 1.5.61 1.5 1.86s-.4 1.86-1.5 1.86h-.9zm-4.6 0c0 .38.2.53.5.53h2.1c.3 0 .4-.11.4-.27 0-.18-.1-.29-.4-.29h-2V5.3h1.9c.2 0 .3-.1.3-.27 0-.16-.1-.27-.3-.27h-1.9V3.22h2c.3 0 .4-.11.4-.28 0-.17-.1-.28-.4-.28h-2.1c-.3 0-.5.15-.5.53v3.78zm-1.6.56c.2 0 .3-.11.3-.34V3.01c0-.25-.1-.39-.3-.39-.2 0-.3.1-.4.39l-1.4 3.42h-.1L57 3.01c-.2-.31-.3-.39-.5-.39s-.3.14-.3.39v4.18c0 .23.1.34.3.34.2 0 .3-.11.3-.34V3.95L58 6.72c.1.29.3.39.5.39.1 0 .2-.1.3-.39L60 3.95v3.24c0 .23.1.34.3.34zm-8.1-.26V5.83h1.4s.1-.11.1-.25-.1-.26-.1-.26h-1.4V3.97c0-.15-.1-.26-.2-.26-.2 0-.3.11-.3.26v1.35h-1.3c-.2 0-.3.12-.3.26s.1.25.3.25h1.3v1.44c0 .14.1.25.3.25.1 0 .2-.11.2-.25z"/></svg>