<?xml version="1.0" encoding="UTF-8" standalone="no"?>
<!-- Created with Inkscape (http://www.inkscape.org/) -->

<svg
   xmlns:dc="http://purl.org/dc/elements/1.1/"
   xmlns:cc="http://creativecommons.org/ns#"
   xmlns:rdf="http://www.w3.org/1999/02/22-rdf-syntax-ns#"
   xmlns:svg="http://www.w3.org/2000/svg"
   xmlns="http://www.w3.org/2000/svg"
   xmlns:sodipodi="http://sodipodi.sourceforge.net/DTD/sodipodi-0.dtd"
   xmlns:inkscape="http://www.inkscape.org/namespaces/inkscape"
   width="100"
   height="30"
   viewBox="0 0 100 30"
   id="svg2"
   version="1.1"
   inkscape:version="0.91+devel+osxmenu r12922"
   sodipodi:docname="bnlogo2.svg"
   inkscape:export-filename="/Users/afitzsim/Build/demo/assets/bionode-logo.png"
   inkscape:export-xdpi="576"
   inkscape:export-ydpi="576">
  <metadata
     id="metadata1">
    <rdf:RDF>
      <cc:Work
         rdf:about="">
        <dc:format>image/svg+xml</dc:format>
        <dc:type
           rdf:resource="http://purl.org/dc/dcmitype/StillImage" />
        <dc:title></dc:title>
        <dc:creator>
          <cc:Agent>
            <dc:title>Andy Fitzsimon</dc:title>
          </cc:Agent>
        </dc:creator>
        <dc:source>ndftz.com</dc:source>
      </cc:Work>
    </rdf:RDF>
  </metadata>
  <defs
     id="defs1" />
  <sodipodi:namedview
     id="base"
     pagecolor="#f5f6f7"
     bordercolor="#808b97"
     borderopacity="0.6706"
     inkscape:pageopacity="0"
     inkscape:pageshadow="2"
     inkscape:zoom="6.93"
     inkscape:cx="49.9"
     inkscape:cy="-0.459"
     inkscape:document-units="px"
     inkscape:current-layer="svg2"
     showgrid="false"
     units="px"
     inkscape:showpageshadow="false"
     inkscape:window-width="1588"
     inkscape:window-height="696"
     inkscape:window-x="77"
     inkscape:window-y="162"
     inkscape:window-maximized="0"
     inkscape:snap-global="false"
     showborder="true">
    <inkscape:grid
       type="xygrid"
       id="grid"
       spacingx="4"
       spacingy="4"
       empspacing="0"
       color="#7f889a"
       opacity="0.12549"
       empcolor="#6f7d82"
       empopacity="0.2902"
       dotted="false" />
  </sodipodi:namedview>
  <path
     id="path9381"
     d="m 24.5,6.15 c -4.6,0 -7.5,3.36 -7.5,8.65 0,5.3 2.9,8.7 7.5,8.7 4.6,0 7.6,-3.4 7.6,-8.7 0,-5.29 -3,-8.65 -7.6,-8.65 z m 0,0.98 c 4,0 6.5,2.97 6.5,7.67 0,4.7 -2.5,7.7 -6.5,7.7 -3.9,0 -6.4,-3 -6.4,-7.7 0,-4.7 2.5,-7.67 6.4,-7.67 z m -9.2,16.07 0,-16.81 -1,0 0,16.81 1,0 z m -8.25,0 c 3.55,0 5.65,-1.7 5.65,-4.5 0,-2.4 -1.8,-4 -4.12,-4.2 l 0,-0.1 C 10.5,14.1 11.8,12.5 11.8,10.5 11.8,8.05 9.86,6.39 6.94,6.39 l -5.7,0 0,16.81 5.81,0 z M 2.3,7.35 l 4.47,0 c 2.45,0 4.03,1.26 4.03,3.25 0,2.2 -1.69,3.5 -4.31,3.5 l -4.19,0 0,-6.75 z m 0,14.95 0,-7.3 4.4,0 c 3.14,0 5,1.4 5,3.7 0,2.2 -1.79,3.6 -4.77,3.6 l -4.63,0 z"
     inkscape:connector-curvature="0"
     style="fill:#a4b0bf" />
  <path
     id="path9389"
     style="font-style:italic;font-variant:normal;font-weight:800;font-stretch:normal;font-size:medium;line-height:80%;font-family:'System Font';-inkscape-font-specification:'System Font Ultra-Bold Italic';letter-spacing:-0.493px;word-spacing:0px;fill:#ff2273;fill-opacity:1;stroke:none;stroke-width:1.006px;stroke-linecap:butt;stroke-linejoin:miter;stroke-opacity:1"
     d="m 96,19.8 -7.2,0 0.7,-3.5 6.8,0 0.7,-3.1 -6.8,0 0.7,-3.36 7.2,0 0.8,-3.45 -11.6,0 -3.5,16.81 11.5,0 0.7,-3.4 z M 70.7,6.39 67.1,23.2 l 7.9,0 c 5.4,0 9,-4.3 9,-10.3 0,-4.09 -2.8,-6.51 -6.8,-6.51 l -6.5,0 z m 3.6,3.43 1.9,0 c 2.2,0 3.4,1.38 3.4,3.68 0,3.8 -2.2,6.3 -5.1,6.3 l -2.4,0 2.2,-9.98 z M 59.6,9.58 c 2,0 3.3,1.52 3.3,4.02 0,3.5 -2.1,6.4 -4.8,6.4 -2,0 -3.3,-1.5 -3.3,-3.9 0,-3.6 2.1,-6.52 4.8,-6.52 z M 58,23.5 c 5.1,0 9.2,-4.2 9.2,-10.2 0,-4.14 -2.8,-7.2 -7.5,-7.2 -5.2,0 -9.2,4.2 -9.2,10.2 0,4.2 2.8,7.2 7.5,7.2 z m -21.6,-0.3 2.2,-10.3 0.1,0 5,10.3 3.3,0 3.6,-16.81 -4.1,0 -2.2,10.31 -0.1,0 -4.9,-10.31 -3.4,0 -3.6,16.81 4.1,0 z"
     inkscape:connector-curvature="0" />
</svg>
