<svg xmlns="http://www.w3.org/2000/svg"  viewBox="0 0 100 20">
<path d="M 24.6,1.37 C 19.9,1.37 17,4.73 17,10 c 0,5.3 2.9,8.7 7.5,8.7 4.7,0 7.6,-3.4 7.6,-8.7 0,-5.27 -2.9,-8.63 -7.6,-8.63 z m 0,0.98 c 3.9,0 6.4,2.98 6.4,7.65 0,4.7 -2.5,7.7 -6.4,7.7 -4,0 -6.5,-3 -6.5,-7.7 0,-4.67 2.5,-7.65 6.5,-7.65 z m -9.3,16.05 0,-16.79 -1.1,0 0,16.79 1.1,0 z m -8.37,0 c 3.57,0 5.67,-1.7 5.67,-4.5 0,-2.4 -1.7,-3.94 -4.13,-4.21 l 0,-0.1 C 10.5,9.26 11.8,7.69 11.8,5.72 11.8,3.27 9.77,1.61 6.83,1.61 l -5.75,0 0,16.79 5.85,0 z M 2.15,2.57 l 4.5,0 c 2.47,0 4.05,1.26 4.05,3.24 0,2.17 -1.69,3.5 -4.33,3.5 l -4.22,0 0,-6.74 z m 0,14.93 0,-7.2 4.43,0 c 3.16,0 5.02,1.3 5.02,3.6 0,2.2 -1.79,3.6 -4.78,3.6 l -4.67,0 z"/>

<path d="m 96.5,15 -7.3,0 0.8,-3.4 6.8,0 0.7,-3.19 -6.8,0 0.7,-3.36 7.3,0 0.7,-3.44 -11.6,0 -3.6,16.79 11.6,0 0.7,-3.4 z M 71,1.61 67.4,18.4 l 8,0 c 5.4,0 9,-4.2 9,-10.26 0,-4.11 -2.8,-6.53 -6.9,-6.53 l -6.5,0 z m 3.6,3.43 2,0 C 78.7,5.04 80,6.43 80,8.68 80,12.6 77.8,15 74.8,15 l -2.3,0 2.1,-9.96 z M 59.8,4.8 c 2,0 3.3,1.54 3.3,3.97 0,3.63 -2.1,6.53 -4.7,6.53 -2.1,0 -3.4,-1.6 -3.4,-4 0,-3.6 2.2,-6.5 4.8,-6.5 z m -1.6,13.9 c 5.2,0 9.3,-4.1 9.3,-10.17 0,-4.15 -2.8,-7.21 -7.6,-7.21 -5.2,0 -9.2,4.19 -9.2,10.18 0,4.2 2.8,7.2 7.5,7.2 z m -21.7,-0.3 2.2,-10.24 0.1,0 5,10.24 3.4,0 3.6,-16.79 -4.1,0 -2.2,10.29 -0.1,0 -5,-10.29 -3.4,0 -3.6,16.79 4.1,0 z"/>
</svg>