<?xml version="1.0" encoding="UTF-8" standalone="no"?>
 
<svg  xmlns="http://www.w3.org/2000/svg"  viewBox="0 0 100 40"  >
   
  <path
     id="logotext"
     d="m 84.2,22.5 c 0,3.7 2.2,5.9 5.7,5.9 1.7,0 3.3,-0.6 4.1,-1.4 0.4,-0.5 0.7,-1 0.7,-1.4 0,-0.4 -0.3,-0.8 -0.7,-0.8 -0.3,0 -0.5,0.1 -1.1,0.7 -0.6,0.7 -1.5,1.3 -3,1.3 -2.4,0 -3.9,-1.6 -3.9,-4.2 l 0,-0.8 8,0 c 0.8,0 1,-0.3 1,-1.6 0,-3.4 -2.2,-5.7 -5.3,-5.7 -3.2,0 -5.5,2.3 -5.5,5.9 l 0,2.1 z m 1.8,-2.2 0,0 c 0,-2.6 1.5,-4.2 3.7,-4.2 2.1,0 3.5,1.6 3.5,4.2 l 0,0 -7.2,0 z m -14.2,2.1 0,-1.9 c 0,-2.8 1.5,-4.4 3.7,-4.4 2.2,0 3.8,1.7 3.8,4 l 0,2.5 c 0,2.4 -1.4,4.2 -3.8,4.2 -2.2,0 -3.7,-1.6 -3.7,-4.4 z m 7.5,3.5 0.1,0 0,1.4 c 0,0.6 0.3,0.9 0.9,0.9 0.5,0 0.8,-0.3 0.8,-0.9 l 0,-16.7 c 0,-0.6 -0.3,-0.97 -0.9,-0.97 -0.5,0 -0.9,0.37 -0.9,0.97 l 0,6.2 0,0 c -0.5,-1.3 -2,-2.3 -4.1,-2.3 -3,0 -5.2,2.1 -5.2,5.5 l 0,2.8 c 0,3.4 2.1,5.6 5.2,5.6 2.2,0 3.8,-1.3 4.1,-2.5 z M 61.9,14.5 c -3.2,0 -5.6,2.1 -5.6,5.9 l 0,2.1 c 0,3.7 2.4,5.9 5.6,5.9 3.2,0 5.7,-2.2 5.7,-5.9 l 0,-2.1 c 0,-3.8 -2.5,-5.9 -5.7,-5.9 z m 0,1.6 c 2.4,0 3.9,1.7 3.9,4.5 l 0,1.7 c 0,2.8 -1.5,4.5 -3.9,4.5 -2.3,0 -3.8,-1.7 -3.8,-4.5 l 0,-1.7 c 0,-2.8 1.5,-4.5 3.8,-4.5 z M 42,27.3 l 0,-13.6 0.1,0 8.6,13.6 c 0.5,0.7 0.8,0.9 1.4,0.9 0.6,0 1,-0.4 1,-1.2 l 0,-15.5 c 0,-0.6 -0.4,-1 -0.9,-1 -0.6,0 -0.9,0.4 -0.9,1 l 0,13.6 -0.1,0 -8.6,-13.5 c -0.4,-0.7 -0.7,-1.1 -1.3,-1.1 -0.7,0 -1.1,0.5 -1.1,1.2 l 0,15.6 c 0,0.6 0.4,1 0.9,1 0.6,0 0.9,-0.4 0.9,-1 z M 31.1,14.1 c -4,0 -6.6,2.5 -6.6,6.5 l 0,1.3 c 0,4.2 2.6,6.6 6.6,6.6 4,0 6.6,-2.4 6.6,-6.6 l 0,-1.3 c 0,-4 -2.6,-6.5 -6.6,-6.5 z m 0,3.1 c 1.5,0 2.3,1.2 2.3,3.4 l 0,1.4 c 0,2.1 -0.8,3.4 -2.3,3.4 -1.5,0 -2.3,-1.3 -2.3,-3.4 l 0,-1.4 c 0,-2.2 0.8,-3.4 2.3,-3.4 z M 18.3,10.9 c 0,1.2 0.9,2 2.2,2 1.3,0 2.2,-0.8 2.2,-2 0,-1.14 -0.9,-1.98 -2.2,-1.98 -1.3,0 -2.2,0.84 -2.2,1.98 z m 4.3,15.1 0,-9.4 c 0,-1.5 -0.8,-2.3 -2.1,-2.3 -1.3,0 -2.1,0.8 -2.1,2.3 l 0,9.4 c 0,1.5 0.8,2.3 2.1,2.3 1.3,0 2.1,-0.8 2.1,-2.3 z M 2.63,25.7 c 0,1.6 0.86,2.4 2.46,2.4 l 5.41,0 c 3.7,0 6.1,-2 6.1,-4.9 0,-2.4 -1.6,-4.1 -4,-4.3 l 0,-0.2 c 2,-0.3 3.2,-1.8 3.2,-3.8 0,-2.6 -2.1,-4.3 -5.4,-4.3 l -5.31,0 c -1.6,0 -2.46,0.9 -2.46,2.4 l 0,12.7 z m 4.19,-8 0,-4.1 2.49,0 c 1.49,0 2.29,0.8 2.29,2 0,1.3 -0.8,2.1 -2.74,2.1 l -2.04,0 z m 0,7.4 0,-4.6 2.7,0 c 1.88,0 2.78,0.9 2.78,2.3 0,1.4 -0.9,2.3 -3.21,2.3 l -2.27,0 z"
      />
  <path
     id="bybigpharm"
     d="m 52,36.5 c 0.3,0 0.5,-0.2 0.5,-0.7 l 0,-3.8 c 0,-0.6 -0.2,-0.9 -0.7,-0.9 -0.4,0 -0.6,0.2 -0.9,0.7 l -1,2.4 -0.1,0 -1,-2.4 c -0.3,-0.5 -0.5,-0.7 -0.9,-0.7 -0.5,0 -0.8,0.4 -0.8,0.9 l 0,3.8 c 0,0.5 0.2,0.7 0.6,0.7 0.4,0 0.6,-0.2 0.6,-0.7 l 0,-2.6 0.1,0 0.9,2 c 0.1,0.4 0.3,0.5 0.5,0.5 0.3,0 0.5,-0.1 0.6,-0.5 l 0.9,-2 0.1,0 0,2.6 c 0,0.5 0.2,0.7 0.6,0.7 z m -8.7,-2.8 0,-1.5 0.8,0 c 0.5,0 0.8,0.3 0.8,0.7 0,0.5 -0.3,0.8 -0.8,0.8 l -0.8,0 z m 0,2.1 0,-1.2 0.8,0 0.7,1.4 c 0.2,0.4 0.3,0.5 0.7,0.5 0.3,0 0.6,-0.2 0.6,-0.6 0,-0.1 0,-0.3 -0.1,-0.4 l -0.7,-1.2 c 0.6,-0.3 0.9,-0.8 0.9,-1.5 0,-1 -0.7,-1.6 -1.9,-1.6 l -1.4,0 c -0.6,0 -0.9,0.3 -0.9,0.9 l 0,3.7 c 0,0.5 0.2,0.7 0.7,0.7 0.4,0 0.6,-0.2 0.6,-0.7 z m -6.2,0.7 c 0.4,0 0.6,-0.2 0.7,-0.6 l 0.2,-0.6 1.8,0 0.2,0.6 c 0.1,0.4 0.3,0.6 0.6,0.6 0.4,0 0.6,-0.2 0.6,-0.5 0,-0.2 0,-0.3 -0.1,-0.5 L 40,32 c -0.2,-0.6 -0.5,-0.9 -1.1,-0.9 -0.6,0 -0.9,0.3 -1.1,0.9 l -1.1,3.5 c -0.1,0.2 -0.2,0.4 -0.2,0.5 0,0.3 0.3,0.5 0.6,0.5 z m 1.2,-2.2 0.6,-2 0,0 0.6,2 -1.2,0 z m -3.2,2.2 c 0.4,0 0.7,-0.2 0.7,-0.7 l 0,-4 c 0,-0.4 -0.3,-0.7 -0.7,-0.7 -0.4,0 -0.6,0.3 -0.6,0.7 l 0,1.5 -2,0 0,-1.5 c 0,-0.4 -0.2,-0.7 -0.6,-0.7 -0.4,0 -0.6,0.3 -0.6,0.7 l 0,4 c 0,0.5 0.2,0.7 0.6,0.7 0.4,0 0.6,-0.2 0.6,-0.7 l 0,-1.5 2,0 0,1.5 c 0,0.5 0.2,0.7 0.6,0.7 z m -8.1,0 c 0.4,0 0.7,-0.2 0.7,-0.7 l 0,-1 0.8,0 c 1.2,0 2,-0.7 2,-1.8 0,-1.1 -0.7,-1.8 -1.9,-1.8 l -1.4,0 c -0.6,0 -0.8,0.2 -0.8,0.9 l 0,3.7 c 0,0.5 0.2,0.7 0.6,0.7 z m 0.7,-2.7 0,-1.6 0.7,0 c 0.5,0 0.8,0.3 0.8,0.8 0,0.6 -0.3,0.8 -0.9,0.8 l -0.6,0 z M 21,34.2 c 0,1.5 0.8,2.4 2.3,2.4 1.3,0 2.2,-0.8 2.2,-2 l 0,-0.3 c 0,-0.5 -0.2,-0.7 -0.7,-0.7 l -1,0 c -0.3,0 -0.5,0.2 -0.5,0.4 0,0.3 0.2,0.5 0.5,0.5 l 0.5,0 0,0.2 c 0,0.5 -0.4,0.8 -0.9,0.8 -0.8,0 -1.1,-0.4 -1.1,-1.3 l 0,-0.7 c 0,-0.9 0.3,-1.3 1.1,-1.3 0.5,0 0.8,0.3 1.1,0.6 0.1,0.1 0.2,0.1 0.4,0.1 0.3,0 0.5,-0.2 0.5,-0.5 0,-0.3 -0.3,-0.6 -0.6,-0.9 -0.4,-0.3 -0.9,-0.4 -1.5,-0.4 -1.5,0 -2.3,0.9 -2.3,2.4 l 0,0.7 z m -1.6,2.3 c 0.4,0 0.7,-0.2 0.7,-0.7 l 0,-4 c 0,-0.4 -0.3,-0.7 -0.7,-0.7 -0.4,0 -0.6,0.3 -0.6,0.7 l 0,4 c 0,0.5 0.2,0.7 0.6,0.7 z m -5.7,-0.8 c 0,0.5 0.3,0.8 0.8,0.8 l 1.6,0 c 1.1,0 1.8,-0.6 1.8,-1.5 0,-0.7 -0.5,-1.3 -1.2,-1.3 l 0,-0.1 c 0.6,-0.1 1,-0.5 1,-1.1 0,-0.8 -0.6,-1.3 -1.6,-1.3 l -1.6,0 c -0.5,0 -0.8,0.2 -0.8,0.7 l 0,3.8 z m 1.3,-2.4 0,-1.2 0.7,0 c 0.5,0 0.7,0.2 0.7,0.6 0,0.4 -0.2,0.6 -0.8,0.6 l -0.6,0 z m 0,2.3 0,-1.4 0.8,0 c 0.6,0 0.8,0.2 0.8,0.7 0,0.4 -0.2,0.7 -0.9,0.7 l -0.7,0 z m -5.7,0.9 c 0.21,0 0.34,-0.1 0.34,-0.4 l 0,-1.9 1.46,-2.4 c 0.1,-0.2 0.1,-0.3 0.1,-0.4 0,-0.2 -0.1,-0.3 -0.3,-0.3 -0.1,0 -0.2,0.1 -0.4,0.3 l -1.19,2.1 0,0 -1.22,-2.1 c -0.16,-0.2 -0.25,-0.3 -0.4,-0.3 -0.19,0 -0.31,0.1 -0.31,0.3 0,0.1 0,0.2 0.13,0.4 l 1.45,2.4 0,1.9 c 0,0.3 0.13,0.4 0.34,0.4 z M 2.99,35.9 c 0,0.4 0.17,0.6 0.62,0.6 l 1.28,0 c 1.15,0 1.85,-0.6 1.85,-1.5 0,-0.7 -0.43,-1.2 -1.14,-1.3 l 0,0 c 0.54,-0.2 0.84,-0.6 0.84,-1.2 0,-0.8 -0.56,-1.3 -1.47,-1.3 l -1.36,0 c -0.45,0 -0.62,0.1 -0.62,0.6 l 0,4.1 z m 0.67,-2.4 0,-1.7 1.2,0 c 0.57,0 0.9,0.3 0.9,0.8 0,0.6 -0.4,0.9 -1.29,0.9 l -0.81,0 z m 0,2.4 0,-1.9 1.28,0 c 0.7,0 1.11,0.4 1.11,1 0,0.6 -0.42,0.9 -1.47,0.9 l -0.92,0 z"
     />

   
</svg>
