<svg xmlns="http://www.w3.org/2000/svg" width="100" height="30" viewBox="0 0 100 30"><path d="M24.5 1.54c-4.6 0-7.5 3.36-7.5 8.66 0 5.3 2.9 8.7 7.5 8.7s7.6-3.4 7.6-8.7c0-5.3-3-8.66-7.6-8.66zm0 .98c4 0 6.5 2.99 6.5 7.68 0 4.7-2.5 7.7-6.5 7.7-3.9 0-6.4-3-6.4-7.7 0-4.69 2.5-7.68 6.4-7.68zM15.3 18.6V1.78h-1V18.6h1zm-8.25 0c3.55 0 5.65-1.7 5.65-4.5 0-2.4-1.8-4-4.12-4.23v-.1c1.92-.33 3.22-1.91 3.22-3.88 0-2.45-1.94-4.11-4.86-4.11h-5.7V18.6h5.81zM2.3 2.74h4.47c2.45 0 4.03 1.26 4.03 3.24 0 2.17-1.69 3.5-4.31 3.5H2.3V2.74zm0 14.96v-7.3h4.4c3.14 0 5 1.4 5 3.7 0 2.2-1.79 3.6-4.77 3.6H2.3z" fill="#4c575e"/><path style="line-height:80%;-inkscape-font-specification:'System Font Ultra-Bold Italic'" d="M96 15.2h-7.2l.7-3.5h6.8l.7-3.11h-6.8l.7-3.36h7.2l.8-3.45H87.3L83.8 18.6h11.5l.7-3.4zM70.7 1.78L67.1 18.6H75c5.4 0 9-4.3 9-10.28 0-4.12-2.8-6.54-6.8-6.54h-6.5zm3.6 3.43h1.9c2.2 0 3.4 1.39 3.4 3.64 0 3.85-2.2 6.35-5.1 6.35h-2.4l2.2-9.99zm-14.7-.24c2 0 3.3 1.54 3.3 3.98 0 3.55-2.1 6.45-4.8 6.45-2 0-3.3-1.5-3.3-3.9 0-3.63 2.1-6.53 4.8-6.53zM58 18.9c5.1 0 9.2-4.2 9.2-10.2 0-4.15-2.8-7.21-7.5-7.21-5.2 0-9.2 4.19-9.2 10.21 0 4.2 2.8 7.2 7.5 7.2zm-21.6-.3l2.2-10.27h.1l5 10.27H47l3.6-16.82h-4.1L44.3 12.1h-.1L39.3 1.78h-3.4L32.3 18.6h4.1z" font-style="italic" font-weight="800" font-family="System Font" letter-spacing="-.493" word-spacing="0" fill="#ff2273"/><path d="M93.3 28.1l.5-2.4 2.7-3.3h-.6l-2.3 2.7-1.1-2.7h-.6l1.3 3.2-.5 2.5h.6zm-7.4 0l1-4.9h.1l2.3 4.9h.5l1.2-5.7h-.5l-1.1 4.9-2.3-4.9h-.5l-1.2 5.7h.5zm-2.7-5l.4 2.8h-2l1.6-2.8zm.8 5h.5l-.9-5.7H83l-3.3 5.7h.6l1-1.8h2.4l.3 1.8zm-7.2-5.7l-1.2 5.7h.5l.5-2.2H78c1.4 0 2.3-.7 2.3-2 0-.9-.7-1.5-1.6-1.5h-1.9zm.5.5h1.2c.8 0 1.3.4 1.3 1.1 0 .9-.7 1.5-1.8 1.5h-1.3l.6-2.6zm-8 5.2l1-4.7 1 4.7h.4l3-4.7h.1l-1 4.7h.5l1.2-5.7h-.7l-3.2 5-1-5H70l-1.2 5.7h.5zm-3.4-5.3c1.1 0 1.8.8 1.8 2 0 1.6-1 2.9-2.4 2.9-1 0-1.8-.8-1.8-2 0-1.6 1-2.9 2.4-2.9zm-.6 5.4c1.7 0 3-1.5 3-3.4 0-1.5-1-2.5-2.4-2.5-1.7 0-2.9 1.5-2.9 3.4 0 1.5.9 2.5 2.3 2.5zm-3.5-4h.6c-.1-1.2-1-1.9-2.2-1.9-1.7 0-2.9 1.5-2.9 3.5 0 1.4.9 2.4 2.3 2.4 1.1 0 2-.7 2.4-1.7h-.6c-.3.7-1 1.2-1.8 1.2-1.1 0-1.8-.8-1.8-2 0-1.6 1-2.9 2.4-2.9.9 0 1.5.5 1.6 1.4zm-13.2 3.9l.7-3.6.5 3.6h1l2-3.6-.8 3.6h1.5l1.2-5.7h-2l-2 3.6-.5-3.6h-1.9l-1.2 5.7h1.5zm-5-3.1l.3-1.4h.7c.4 0 .7.2.7.6 0 .5-.4.8-.9.8h-.8zm-1.1-2.6l-1.2 5.7H43l.4-1.9h.6l.5 1.9h1.8l-.7-2.1c.9-.3 1.4-1.1 1.4-1.9 0-1-.7-1.7-1.9-1.7h-2.6zm-3.8 1.4l.1 2h-1.1l1-2zm.2 4.3h1.7l-.6-5.7h-2.1l-3.1 5.7h1.7l.6-1.1h1.7l.1 1.1zm-4.8 0l1.2-5.7h-1.7l-.5 2.2h-1.9l.4-2.2h-1.7l-1.2 5.7h1.7l.5-2.2h1.9l-.5 2.2h1.8zm-9.8-5.7l-1.2 5.7h1.7l.3-1.6h.8c1.7 0 2.7-.9 2.7-2.3 0-1.1-.8-1.8-2.1-1.8h-2.2zm1.4 1.3h.5c.4 0 .7.2.7.6 0 .6-.4 1-1 1h-.5l.3-1.6zM22.8 25h-2.5l-.2 1.1h.9c-.1.4-.5.8-1 .8-.7 0-1.1-.5-1.1-1.2 0-1.2.6-2.1 1.5-2.1.5 0 .9.3.9.7h1.6v-.1c0-1-1-1.9-2.5-1.9-1.9 0-3.2 1.4-3.2 3.4 0 1.5 1 2.5 2.6 2.5s2.6-.9 2.9-2.6l.1-.6zm-7.1 3.1l1.2-5.7h-1.7L14 28.1h1.7zm-4.3 0c1.2 0 2.1-.8 2.1-1.8 0-.6-.4-1-1-1.2.8-.2 1.3-.7 1.3-1.5 0-.7-.5-1.2-1.7-1.2H9.49l-1.21 5.7h3.12zm-.5-4.7h.7c.4 0 .6.2.6.5 0 .4-.3.7-.8.7h-.7l.2-1.2zm-.7 3.5l.2-1.3h.8c.4 0 .7.2.7.6 0 .4-.4.7-.9.7h-.8zm-5.83-3.8l.45 2.8H2.74l1.62-2.8zm.8 5h.51l-.91-5.7h-.55L.879 28.1h.601l1.01-1.8H4.9l.27 1.8z"/></svg>