<?xml version="1.0" encoding="UTF-8" standalone="no"?>
<svg
   xmlns:dc="http://purl.org/dc/elements/1.1/"
   xmlns:cc="http://creativecommons.org/ns#"
   xmlns:rdf="http://www.w3.org/1999/02/22-rdf-syntax-ns#"
   xmlns:svg="http://www.w3.org/2000/svg"
   xmlns="http://www.w3.org/2000/svg"
   version="1.1"
   id="svg2"
   viewBox="0 0 307 109"
   height="109"
   width="307">
  <metadata
     id="metadata1">
    <rdf:RDF>
      <cc:Work
         rdf:about="">
        <dc:format>image/svg+xml</dc:format>
        <dc:type
           rdf:resource="http://purl.org/dc/dcmitype/StillImage" />
        <dc:title></dc:title>
        <dc:creator>
          <cc:Agent>
            <dc:title>Andy Fitzsimon</dc:title>
          </cc:Agent>
        </dc:creator>
        <dc:source>ndftz.com</dc:source>
      </cc:Work>
    </rdf:RDF>
  </metadata>
  <defs
     id="defs1" />
  <path
     id="path8438"
     style="color:#000000;font-style:normal;font-variant:normal;font-weight:normal;font-stretch:normal;font-size:medium;line-height:normal;font-family:sans-serif;font-variant-ligatures:none;font-variant-position:normal;font-variant-caps:normal;font-variant-numeric:normal;font-variant-alternates:normal;font-feature-settings:normal;text-indent:0;text-align:start;text-decoration:none;text-decoration-line:none;text-decoration-style:solid;text-decoration-color:#000000;letter-spacing:normal;word-spacing:normal;text-transform:none;direction:ltr;block-progression:tb;writing-mode:lr-tb;baseline-shift:baseline;text-anchor:start;white-space:normal;shape-padding:0;clip-rule:nonzero;display:inline;overflow:visible;visibility:visible;opacity:1;isolation:auto;mix-blend-mode:normal;color-interpolation:sRGB;color-interpolation-filters:linearRGB;solid-color:#000000;solid-opacity:1;fill:#4c575e;fill-opacity:1;fill-rule:evenodd;stroke:none;stroke-width:4;stroke-linecap:square;stroke-linejoin:miter;stroke-miterlimit:4;stroke-dasharray:none;stroke-dashoffset:0;stroke-opacity:1;color-rendering:auto;image-rendering:auto;shape-rendering:auto;text-rendering:auto;enable-background:accumulate"
     d="m 211,20 0,4 2,0 87,0 2,0 0,-4 -2,0 -87,0 z m -205,0 0,4 98,0 0,-4 z m 296,84 -27,0 0,-2 5,-1 c 2.6,-0.3 3,-1.25 3,-4 l 0,-36 -19,43 -22,-44 0,37 c 0,2.67 1,4 3,4 l 7,1 0,2 -22,0 0,-2 5,-1 c 3.2,-0.7 4,-1 4,-4 l 0,-42 -7,-1 0,-2 16,0 19,38 17,-38 18,0 0,2 c -3.8,0.57 -9,1.67 -9,6 l 0,36 c 0.2,2.65 1,4 2.7,5 l 6.3,1 z m -129,-2 c 4.6,0.3 8,-0.6 8,-5 l 0,-37 c -0.1,-4.42 -3.4,-6 -7,-6 l 0,-2 6,0 c 4.3,-0.31 8.6,-1 13,-1 12.2,0 21.9,1.04 22,13 0.4,7.54 -5,9.99 -10,13 0,0 11.3,18.67 12,20 2.4,4.3 6.7,3.3 10,5 l 0,2 -17,0 -13,-23 c -0.7,-2 -2,-3 -4,-3 l -3,0 0,19 c 0.3,4.2 4.4,4.3 8,5 l 0,2 -25,0 z m 17,-26 c 7.6,0 15.9,-3.28 16,-11 -0.1,-8.07 -7,-12.2 -13,-11 l -3,1 z m -56,5 -6,18 c -0.5,1.3 0.7,1.7 2,2 l 6,1 0,2 -20,0 0,-2 5,-1 c 1.9,-0.4 3.3,-1 4,-3 l 19,-49 3,0 18,49 c 1.7,3.1 4.2,3.2 8,4 l 0,2 -25,0 0,-2 c 0,0 7,-0.4 7,-4 l -6,-17 z m 14,-3 -6,-17 -6,17 z M 97,57 c 0,-1.8 -1.33,-3 -2,-3 l -4,0 0,-2 22,0 0,2 -5.1,0 c -0.9,0.2 -1.9,1.46 -1.9,3 l 0,41 c -0.3,1.95 0.5,2.6 2,3 l 6,1 0,2 -24,0 0,-2 5,-1 c 1.98,-0.4 2,-1.12 2,-3 l 0,-19 -27,0 0,19 c -0.1,1.68 0.66,3 2.13,3.4 l 3.87,0.6 0,2 -24,0 0,-2 6.16,-1 c 1.75,-0.3 2.81,-1.34 2.84,-3 l 0,-41 c -0.32,-1.42 -1.05,-2.51 -2,-3 l -4,0 0,-2 22,0 0,2 -5.2,0 C 70.6,54 70,55.61 70,57 l 0,19 27,0 z m -92,-5 7,0 c 6.36,0.17 12.65,-1 19,-1 10.16,0.28 17.87,5.33 18,15 0.29,9.27 -7.51,14.95 -16,15 l -5,0 -3,-3 5,0 c 7.02,0.13 9.95,-5.47 10,-11 0,-7.45 -7.34,-15.92 -18,-12 l 0,43 c 0.4,1.79 1.47,3 3,3 l 5,1 0,2 -23,0 0,-2 5,-1 c 1.29,-0.6 1.99,-1.82 2,-3 L 14,60 C 14,58 13.33,56.67 12,56 10.67,55.33 8.333,54.67 5,54 Z M 130,28 c 0,4.81 -7.9,5.51 -8,3 l 0,-8 1,0 0,0 0.9,0 c 4.2,0 6,1.56 6.1,5 z m -2,-14 c -0.2,2.98 -1.5,4 -4,4 l -2,0 0,-7 c 3.3,-2.834 6,0.58 6,3 z m -5.1,-8 -12.9,0 0,5 1,0 3,0 0,0 0,21 0,1 0,0 0,0 -4,1 0,4 15,0 c 13.2,0 17.5,-12.61 9,-19 2,0.1 3,-3.89 3,-5 -0.2,-7.53 -5.4,-8 -14.1,-8 z m 22.1,0 0,4 5,1 0,22 0,0 -5,0 0,5 18,0 0,-5 -5,0 0,-22 0,0 0,0 5,-1 0,-4 z m 43,-1 c -10.2,0 -19,5.75 -19,16.59 0,7.78 5.8,16.41 18,16.41 8.2,0 14,-1.39 14,-7 l 0,-5 4,0 0,-5 -18,0 0,5 6,0 0,5 c -0.5,2.17 -3.2,2.97 -5,3 -6.4,0 -10,-6.89 -10,-12 -0.1,-6.44 4.2,-11.89 10,-12 6.5,0 9,3.33 9,8 l 3,0 0,-10 C 196.1,7.197 193.4,5.196 188,5 Z" />
</svg>
