<?xml version="1.0" encoding="UTF-8" standalone="no"?>
<!-- Created with Inkscape (http://www.inkscape.org/) -->

<svg
   xmlns:dc="http://purl.org/dc/elements/1.1/"
   xmlns:cc="http://creativecommons.org/ns#"
   xmlns:rdf="http://www.w3.org/1999/02/22-rdf-syntax-ns#"
   xmlns:svg="http://www.w3.org/2000/svg"
   xmlns="http://www.w3.org/2000/svg"
   xmlns:sodipodi="http://sodipodi.sourceforge.net/DTD/sodipodi-0.dtd"
   xmlns:inkscape="http://www.inkscape.org/namespaces/inkscape"
   width="704"
   height="789"
   viewBox="0 0 704 789"
   id="svg2"
   version="1.1"
   inkscape:version="0.91+devel+osxmenu r12922"
   sodipodi:docname="logos.svg">
  <metadata
     id="metadata1">
    <rdf:RDF>
      <cc:Work
         rdf:about="">
        <dc:format>image/svg+xml</dc:format>
        <dc:type
           rdf:resource="http://purl.org/dc/dcmitype/StillImage" />
        <dc:title />
        <dc:creator>
          <cc:Agent>
            <dc:title>Andy Fitzsimon</dc:title>
          </cc:Agent>
        </dc:creator>
        <dc:source>ndftz.com</dc:source>
      </cc:Work>
    </rdf:RDF>
  </metadata>
  <defs
     id="defs1" />
  <sodipodi:namedview
     id="base"
     pagecolor="#f5f6f7"
     bordercolor="#808b97"
     borderopacity="0.6706"
     inkscape:pageopacity="0"
     inkscape:pageshadow="2"
     inkscape:zoom="0.459"
     inkscape:cx="487"
     inkscape:cy="96.6"
     inkscape:document-units="px"
     inkscape:current-layer="svg2"
     showgrid="false"
     units="px"
     inkscape:showpageshadow="false"
     inkscape:window-width="1280"
     inkscape:window-height="752"
     inkscape:window-x="561"
     inkscape:window-y="319"
     inkscape:window-maximized="0"
     inkscape:snap-global="false"
     showborder="false"
     fit-margin-top="0"
     fit-margin-left="0"
     fit-margin-right="0"
     fit-margin-bottom="0">
    <inkscape:grid
       type="xygrid"
       id="grid"
       spacingx="4"
       spacingy="4"
       empspacing="0"
       color="#7f889a"
       opacity="0.12549"
       empcolor="#6f7d82"
       empopacity="0.2902"
       dotted="false"
       originx="417"
       originy="199" />
  </sodipodi:namedview>
  <rect
     style="opacity:1;fill:#004153;fill-opacity:1;fill-rule:evenodd"
     id="rect8274"
     width="326"
     height="143"
     x="0"
     y="216" />
  <g
     style="font-style:normal;font-variant:normal;font-weight:bold;font-stretch:normal;font-size:71.461px;line-height:80%;font-family:'Songti TC';-inkscape-font-specification:'Songti TC, Bold';font-variant-ligatures:none;font-variant-caps:normal;font-variant-numeric:normal;text-align:start;letter-spacing:-1.474px;word-spacing:0px;writing-mode:lr-tb;text-anchor:start;fill:#000000;fill-opacity:1;stroke:none;stroke-width:1.005px;stroke-linecap:butt;stroke-linejoin:miter;stroke-opacity:1"
     aria-label="PHARM"
     id="text8143"
     transform="translate(417,490)" />
  <path
     id="path8500"
     style="color:#000000;font-style:normal;font-variant:normal;font-weight:normal;font-stretch:normal;font-size:medium;line-height:normal;font-family:sans-serif;font-variant-ligatures:none;font-variant-position:normal;font-variant-caps:normal;font-variant-numeric:normal;font-variant-alternates:normal;font-feature-settings:normal;text-indent:0;text-align:start;text-decoration:none;text-decoration-line:none;text-decoration-style:solid;text-decoration-color:#000000;letter-spacing:normal;word-spacing:normal;text-transform:none;direction:ltr;block-progression:tb;writing-mode:lr-tb;baseline-shift:baseline;text-anchor:start;white-space:normal;shape-padding:0;clip-rule:nonzero;display:inline;overflow:visible;visibility:visible;opacity:1;isolation:auto;mix-blend-mode:normal;color-interpolation:sRGB;color-interpolation-filters:linearRGB;solid-color:#000000;solid-opacity:1;fill:#ffffff;fill-opacity:1;fill-rule:evenodd;stroke:none;stroke-width:4;stroke-linecap:square;stroke-linejoin:miter;stroke-miterlimit:4;stroke-dasharray:none;stroke-dashoffset:0;stroke-opacity:1;color-rendering:auto;image-rendering:auto;shape-rendering:auto;text-rendering:auto;enable-background:accumulate"
     d="m 33,285 6,0 4,0 10,0 2,0 1,0 c 4.7,0 8.3,1 11,3 2.7,3 4,6 4,10 0,2 -0.3,4 -1,5 -0.7,2 -1.7,3 -3,4 -1.3,1 -3,2 -5,3 -1.3,1 -3,1 -5,1 -1.3,0 -2.7,0 -4,-1 -0.7,-1 -1.7,-1 -3,-2 l 1,0 2,0 2,0 c 2,0 4,-1 6,-2 2,-2 3,-5 3,-8 0,-3 -1,-5 -3,-7 -1.3,-2 -3.7,-3 -7,-4 l -4,0 c -0.7,0 -1.3,0 -2,1 l 0,37 0,2 c 0.7,0 1.3,0 2,1 l 5,1 0,1 -5,0 -5,0 -4,0 -6,0 0,-1 4,-1 c 0.7,0 1,0 1,-1 0.7,0 1,-1 1,-2 l 0,-33 c 0,-1 -0.7,-2 -2,-3 -1.3,-1 -3.3,-1 -6,-2 z m 80,5 c 0,-1 0,-2 -1,-2 0,-1 0,-1 -1,-1 l -4,0 0,-2 4,0 6,0 6,0 4,0 0,2 -5,0 -1,1 c -1,1 -1,1 -1,2 l 0,35 c 0,1 0,1 1,2 l 1,1 5,1 0,1 -4,0 -6,0 -5,0 -5,0 0,-1 4,-1 c 1,0 1,0 1,-1 1,-1 1,-1 1,-2 l 0,-16 -24,0 0,16 0,2 c 0.7,1 1.3,1 2,1 l 4,1 0,1 -5,0 -6,0 -5,0 -5,0 0,-1 5,-1 c 1.3,0 2,0 2,-1 l 0,-2 0,-35 0,-2 c 0,-1 -0.3,-1 -1,-1 l -4,0 0,-2 4,0 6,0 6,0 4,0 0,2 -5,0 c -0.7,1 -1.3,1 -2,1 l 0,2 0,16 24,0 z m 44,18 -5,-15 -6,15 z m -12,3 -5,15 -1,1 c 1,1 2,1 3,1 l 4,0 0,2 -3,0 -5,0 -6,0 -3,0 0,-2 4,0 c 2,0 3,-1 4,-3 l 16,-42 3,0 16,42 c 0,1 0,1 1,2 l 1,0 4,2 0,1 -4,0 -5,0 -5,0 -8,0 0,-1 5,-1 2,0 0,-1 c 1,0 1,0 0,-1 l 0,-1 -5,-14 z m 48,-5 c 5,0 8,-1 10,-2 3,-2 4,-4 4,-7 0,-7 -6,-10 -11,-10 l -1,0 c -1,0 -1,0 -2,1 z m -14,23 3,-1 c 1,0 2,0 3,-1 l 0,-3 0,-32 0,-2 0,-1 c -1,-1 -1,-1 -2,-1 l -2,-1 -2,0 0,-1 0,-1 c 9,1 18,-2 26,0 6,2 10,5 10,11 0,3 -1,5 -2,6 -1,2 -4,4 -7,5 l 8,13 c 1,2 2,3 3,4 1,1 1,2 2,3 1,1 2,1 3,1 l 3,0 0,2 -3,0 -4,0 -2,0 -3,0 -2,0 -1,0 -10,-20 c -1,-1 -3,-2 -4,-2 l -3,0 0,16 c 0,1 0,2 1,2 0,1 1,1 2,2 l 4,0 0,2 -6,0 -5,0 -5,0 -5,0 0,-2 z m 111,1 -6,0 -5,0 -2,0 -5,0 -5,0 0,-1 4,-1 2,-1 c 1,-1 1,-2 1,-3 l 0,-31 -17,38 -19,-39 0,32 c 0,3 1,4 2,4 l 7,1 0,1 -9,0 -10,0 0,-1 4,-1 c 1,0 1,0 2,-1 l 1,0 1,-1 0,-2 0,-36 -7,-1 0,-2 7,0 5,0 3,0 16,33 14,-33 4,0 4,0 5,0 3,0 0,2 -4,1 c -1,0 -2,0 -3,1 -1,1 -1,2 -1,3 l 0,31 0,3 c 1,1 1,1 2,1 l 6,2 z"
     inkscape:connector-curvature="0"
     sodipodi:nodetypes="cccccscscccsccccscsccscccccccccccccsssccscsccccccccssssccccccccccscccccccccccccsccssccccccccccccscccccccscccccccsccccccccccccccccccccccccsccccccccccccccccccccsscccccccccscscccccccccccccccccccscccscccccccccccccccccccccccccssccccc" />
  <path
     id="path8153"
     style="color:#000000;font-style:normal;font-variant:normal;font-weight:normal;font-stretch:normal;font-size:medium;line-height:normal;font-family:sans-serif;font-variant-ligatures:none;font-variant-position:normal;font-variant-caps:normal;font-variant-numeric:normal;font-variant-alternates:normal;font-feature-settings:normal;text-indent:0;text-align:start;text-decoration:none;text-decoration-line:none;text-decoration-style:solid;text-decoration-color:#000000;letter-spacing:normal;word-spacing:normal;text-transform:none;direction:ltr;block-progression:tb;writing-mode:lr-tb;baseline-shift:baseline;text-anchor:start;white-space:normal;shape-padding:0;clip-rule:nonzero;display:inline;overflow:visible;visibility:visible;opacity:1;isolation:auto;mix-blend-mode:normal;color-interpolation:sRGB;color-interpolation-filters:linearRGB;solid-color:#000000;solid-opacity:1;fill:#a3dbe8;fill-opacity:1;fill-rule:evenodd;stroke:none;stroke-width:4;stroke-linecap:square;stroke-linejoin:miter;stroke-miterlimit:4;stroke-dasharray:none;stroke-dashoffset:0;stroke-opacity:1;color-rendering:auto;image-rendering:auto;shape-rendering:auto;text-rendering:auto;enable-background:accumulate"
     d="m 192,245 c -3,0 -5,0 -7,1 -2,1 -4,1 -5,3 0,0 0,0 0,0 -2,1 -3,3 -4,4 -1,2 -1,4 -1,7 0,2 0,4 1,6 1,1 2,3 3,4 l 0,0 0,0 c 2,1 4,2 6,3 l 0,0 0,0 c 1,0 3,1 6,1 0,0 1,0 2,0 l 0,0 0,0 c 1,-1 2,-1 2,-1 1,0 2,0 2,0 l 0,0 c 1,0 2,-1 2,-1 0,0 0,0 0,0 1,0 1,0 2,0 0,-1 1,-1 1,-1 l 0,0 0,0 c 0,-1 1,-2 1,-2 0,-1 0,-1 0,-2 l 0,-4 3,0 0,-4 -2,0 c -2,0 -4,0 -6,0 -2,0 -3,0 -6,0 l -1,0 0,4 4,0 0,4 c 0,1 0,1 0,2 -1,0 -2,0 -3,0 -2,0 -3,0 -4,0 -1,-1 -2,-2 -3,-2 -1,-1 -1,-2 -2,-4 0,-1 0,-2 0,-4 0,-1 0,-3 0,-4 1,-1 1,-2 2,-3 1,-1 2,-2 3,-2 1,0 2,-1 4,-1 1,0 1,0 2,1 1,0 1,0 2,1 l 0,0 c 0,0 1,1 1,2 1,0 1,1 1,2 l 1,1 3,0 0,-9 -1,0 c -3,-1 -6,-2 -9,-2 l 0,0 z m -37,0 0,2 0,2 3,0 0,20 c 0,0 0,0 0,0 l -3,0 0,4 1,0 c 1,0 1,0 2,0 1,0 3,0 4,0 2,0 3,0 4,0 l 0,0 c 1,0 1,0 2,0 l 2,0 0,-4 -4,0 0,-20 c 0,0 0,0 0,0 l 0,0 4,0 0,-4 -2,0 c -1,0 -2,0 -4,0 -5,0 -7,0 -8,0 l -1,0 z m -19,0 0,0 0,0 c 0,0 -1,0 -3,0 -1,0 -3,0 -6,0 l -3,1 0,3 1,0 2,1 c 0,0 0,0 0,0 l 0,18 c 0,1 0,1 0,1 1,-1 0,0 0,0 0,0 0,0 0,0 l -3,0 0,4 4,0 c 2,0 3,0 5,0 l 0,0 4,0 c 1,0 3,0 4,0 l 0,0 c 2,-1 3,-1 4,-2 l 0,0 0,0 c 2,-1 2,-2 3,-3 l 0,0 c 1,-1 1,-3 1,-4 0,-1 0,-2 0,-3 -1,-1 -1,-2 -2,-3 l 0,0 c -1,0 -2,-1 -2,-1 0,0 0,0 0,-1 2,-1 2,-2 2,-4 0,-1 0,-2 -1,-3 l 0,0 c 0,-1 -1,-2 -2,-3 -1,0 -3,0 -4,-1 -1,0 -2,0 -4,0 l 0,0 c 0,0 0,0 0,0 l 0,0 z m 0,4 c 1,0 2,1 3,1 l 0,0 0,0 c 1,1 1,1 1,2 0,2 -1,2 -1,3 -1,1 -1,1 -3,1 l -1,0 0,-7 c 0,0 1,0 1,0 z m 0,11 0,0 c 2,0 4,1 4,1 1,1 2,2 2,4 0,0 -1,1 -1,1 l 0,0 0,0 c 0,1 0,1 -1,2 0,0 0,0 -1,0 l 0,0 0,0 c 0,1 -1,1 -2,1 -1,0 -2,-1 -2,-1 l 0,0 0,0 c 0,0 0,0 0,-1 l 0,-7 c 0,0 0,0 0,0 l 0,0 0,0 c 0,0 1,0 1,0 z m -102,-3 0,4 2,0 81,0 2,0 0,-4 -2,0 -81,0 -2,0 z m 177,0 0,4 2,0 75,0 2,0 0,-4 -2,0 -75,0 -2,0 z"
     inkscape:connector-curvature="0" />
  <text
     xml:space="preserve"
     style="font-style:normal;font-weight:normal;font-size:68.611px;line-height:80%;font-family:sans-serif;letter-spacing:-1.415px;word-spacing:0px;fill:#ff2273;fill-opacity:1;stroke:none;stroke-width:1px;stroke-linecap:butt;stroke-linejoin:miter;stroke-opacity:1"
     x="419.76434"
     y="314.48145"
     id="text8276"
     sodipodi:linespacing="80%"><tspan
       sodipodi:role="line"
       id="tspan8278"
       x="419.76434"
       y="314.48145"
       style="font-style:normal;font-variant:normal;font-weight:bold;font-stretch:normal;font-family:'System Font';-inkscape-font-specification:'System Font Bold';fill:#ff2273;fill-opacity:1;stroke-width:1px"><tspan
         style="fill:#000000"
         id="tspan8362">BIO</tspan><tspan
         style="font-style:italic;font-variant:normal;font-weight:800;font-stretch:normal;font-family:'System Font';-inkscape-font-specification:'System Font Ultra-Bold Italic';fill:#ff2273;fill-opacity:1"
         id="tspan8282">NODE</tspan></tspan></text>
  <rect
     style="opacity:1;fill:#004153;fill-opacity:1;fill-rule:evenodd;stroke:none;stroke-width:4;stroke-linecap:square;stroke-linejoin:miter;stroke-miterlimit:4;stroke-dasharray:none;stroke-dashoffset:0;stroke-opacity:1"
     id="rect8327"
     width="113"
     height="113"
     x="106"
     y="2.02" />
  <path
     inkscape:connector-curvature="0"
     d="m 139,58 0,0 c 2,0 3,0 3,1 1,1 2,1 2,3 0,1 -1,1 -1,1 l 0,0 0,0 c 0,1 0,1 0,2 -1,0 -1,0 -2,0 l 0,0 0,0 c 0,0 -1,1 -1,1 -1,0 -2,-1 -2,-1 l 0,0 0,0 c -1,0 -1,0 -1,-1 l 0,-6 1,0 0,0 0,0 1,0 z m 0,-10 c 1,0 2,0 2,1 l 0,0 0,0 c 1,0 1,1 1,2 0,1 0,2 -1,2 0,1 -1,1 -2,1 l -2,0 0,-6 c 1,0 1,0 2,0 z m 0,-4 0,0 0,0 c -1,0 -1,0 -3,0 -1,0 -3,0 -5,1 l -4,0 0,3 2,0 1,0 c 1,0 1,1 1,1 l 0,16 c 0,0 0,1 0,0 0,0 0,0 0,1 l 0,0 -3,0 0,4 4,0 4,0 0,0 3,0 c 2,0 3,-1 5,-1 l 0,0 c 1,0 2,-1 3,-1 l 0,0 0,0 c 1,-1 2,-2 3,-3 l 0,0 c 0,-1 1,-2 1,-4 0,-1 -1,-2 -1,-2 0,-1 -1,-2 -2,-3 l 0,0 c 0,0 -1,-1 -2,-1 1,0 1,0 1,0 1,-1 2,-3 2,-4 0,-1 -1,-2 -1,-3 l 0,0 c -1,-1 -2,-2 -3,-2 0,-1 -1,-1 -3,-1 -1,-1 -2,-1 -3,-1 l 0,0 0,0 0,0 z m 15,0 0,2 0,2 3,0 0,18 0,0 -3,0 0,4 1,0 c 0,0 1,0 2,0 l 3,0 4,0 0,0 c 1,0 1,0 2,0 l 1,0 0,-4 -3,0 0,-18 0,0 0,0 3,0 0,-4 -1,0 c -1,1 -2,1 -4,1 -4,0 -7,-1 -7,-1 l -1,0 z m 30,0 c -2,0 -4,0 -6,1 -2,1 -3,1 -5,3 l 0,0 c -1,1 -2,2 -3,4 -1,1 -1,3 -1,6 0,1 0,3 1,5 0,1 1,3 3,4 l 0,0 0,0 c 1,1 3,2 4,2 l 0,0 0,0 c 2,1 4,1 6,1 1,0 1,0 2,0 l 0,0 0,0 c 1,0 1,0 2,0 1,0 1,-1 2,-1 l 0,0 c 1,0 1,0 2,0 l 0,0 c 0,0 1,-1 1,-1 0,0 1,0 1,-1 l 0,0 0,0 c 0,0 1,-1 1,-1 l 0,-2 0,-4 3,0 0,-3 -2,0 c -2,0 -3,0 -5,0 -2,0 -4,0 -6,0 l -1,0 0,3 4,0 0,4 c 0,1 0,1 -1,2 0,0 -1,0 -2,0 -2,0 -3,0 -4,0 -1,-1 -2,-2 -2,-2 -1,-1 -1,-2 -2,-3 0,-1 0,-3 0,-4 0,-1 0,-3 0,-4 0,-1 1,-2 2,-3 0,0 1,-1 2,-1 1,-1 2,-1 4,-1 1,0 1,0 2,0 0,1 1,1 1,1 l 0,0 c 1,1 1,1 2,2 0,1 0,1 1,2 l 0,1 3,0 0,-8 -1,0 c -2,-1 -5,-2 -8,-2 l 0,0 z"
     style="color:#000000;font-style:normal;font-variant:normal;font-weight:normal;font-stretch:normal;font-size:medium;line-height:normal;font-family:sans-serif;font-variant-ligatures:none;font-variant-position:normal;font-variant-caps:normal;font-variant-numeric:normal;font-variant-alternates:normal;font-feature-settings:normal;text-indent:0;text-align:start;text-decoration:none;text-decoration-line:none;text-decoration-style:solid;text-decoration-color:#000000;letter-spacing:normal;word-spacing:normal;text-transform:none;direction:ltr;block-progression:tb;writing-mode:lr-tb;baseline-shift:baseline;text-anchor:start;white-space:normal;shape-padding:0;clip-rule:nonzero;display:inline;overflow:visible;visibility:visible;opacity:1;isolation:auto;mix-blend-mode:normal;color-interpolation:sRGB;color-interpolation-filters:linearRGB;solid-color:#000000;solid-opacity:1;fill:#a3dbe8;fill-opacity:1;fill-rule:evenodd;stroke:none;stroke-width:4;stroke-linecap:square;stroke-linejoin:miter;stroke-miterlimit:4;stroke-dasharray:none;stroke-dashoffset:0;stroke-opacity:1;color-rendering:auto;image-rendering:auto;shape-rendering:auto;text-rendering:auto;enable-background:accumulate"
     id="path8378"
     sodipodi:nodetypes="cccscccccccscccsccccccccccscsccccccccccccccsccccccccscccccccscccccsccccccccccccccccccccccccccccccccsccccccccscccccccsccccccccccccccccccsccccscscccscccscccccccccccc" />
  <g
     id="g8405"
     transform="translate(263,491)" />
  <path
     inkscape:connector-curvature="0"
     d="m 219,473 0,4 2,0 87,0 2,0 0,-4 -2,0 -87,0 -2,0 z m -205,0 0,4 2,0 94,0 2,0 0,-4 -2,0 -94,0 -2,0 z m 296,84 q -3,0 -7,0 -3,0 -6,0 l -2,0 q -3,0 -5,0 -3,0 -7,0 l 0,-2 5,-1 q 2,0 3,-1 0,-1 0,-3 l 0,-36 -19,43 -22,-44 0,37 q 0,4 3,4 l 7,1 0,2 q -5,0 -10,0 -5,0 -12,0 l 0,-2 5,-1 q 1,0 2,0 1,-1 2,-1 0,-1 0,-1 0,-1 0,-2 l 0,-42 -7,-1 0,-2 q 1,0 7,0 3,0 6,0 2,0 3,0 l 19,38 17,-38 q 2,0 4,0 3,0 5,0 3,0 5,0 2,0 4,0 l 0,2 -5,1 q -2,1 -3,2 -1,1 -1,3 l 0,36 q 0,3 0,3 1,1 2,2 l 7,1 0,2 z m -129,-2 4,0 q 2,-1 3,-1 1,-1 1,-4 l 0,-37 q 0,-1 0,-2 0,-1 -1,-2 0,-1 -1,-1 -1,0 -3,-1 l -2,0 q 0,0 0,-1 0,0 0,-1 1,0 2,0 1,0 1,0 1,0 1,0 1,0 2,0 l 11,-1 q 1,0 2,0 1,0 2,0 5,0 8,1 4,0 7,2 3,1 4,4 1,2 1,6 0,5 -2,8 -3,2 -8,5 l 9,15 q 2,3 3,5 2,2 3,3 2,1 3,1 2,0 4,1 l 0,2 q -2,0 -4,0 -2,0 -4,0 -1,0 -3,0 -1,0 -3,0 -1,0 -2,0 -1,0 -1,0 l -13,-23 q -1,-3 -4,-3 l -3,0 0,19 q 0,2 1,3 1,0 2,1 l 5,1 0,2 q -3,0 -7,0 -3,0 -6,0 -3,0 -6,0 -3,0 -6,0 l 0,-2 z m 17,-26 q 8,0 12,-3 4,-3 4,-8 0,-5 -3,-8 -3,-3 -10,-3 0,0 -1,1 -1,0 -2,0 l 0,21 z m -56,5 -6,18 q 0,1 0,2 0,0 2,0 l 6,1 0,2 q -1,0 -3,0 -3,0 -7,0 -5,0 -7,0 -3,0 -3,0 l 0,-2 5,-1 q 3,0 4,-3 l 19,-49 3,0 18,49 q 1,1 1,2 1,0 2,1 l 5,1 0,2 q -2,0 -5,0 -2,0 -5,0 l -6,0 q -6,0 -9,0 l 0,-2 5,-1 q 1,0 2,0 0,0 1,-1 0,0 0,-1 0,0 -1,-1 l -6,-17 -15,0 z m 14,-3 -6,-17 -6,17 12,0 z m -51,-21 q 0,-1 -1,-2 0,-1 -1,-1 l -4,0 0,-2 q 1,0 4,0 3,0 7,0 4,0 7,0 3,0 4,0 l 0,2 -6,0 q -1,1 -1,1 0,1 0,2 l 0,41 q 0,1 0,2 1,1 2,1 l 6,1 0,2 q -2,0 -5,0 -3,0 -7,0 -3,0 -6,0 -4,0 -6,0 l 0,-2 5,-1 q 1,0 2,-1 0,0 0,-2 l 0,-19 -27,0 0,19 q 0,2 0,3 0,0 1,0 l 5,1 0,2 q -2,0 -5,0 -3,0 -7,0 -3,0 -6,0 -3,0 -6,0 l 0,-2 7,-1 q 1,0 1,-1 1,-1 1,-2 l 0,-41 q 0,-1 -1,-2 0,-1 -1,-1 l -4,0 0,-2 q 1,0 4,0 3,0 7,0 4,0 7,0 3,0 4,0 l 0,2 -6,0 q -1,1 -1,1 0,1 0,2 l 0,19 27,0 0,-19 z m -92,-5 q 5,0 7,0 3,0 4,0 l 12,-1 q 1,0 2,0 1,0 1,0 9,0 13,4 5,4 5,11 0,4 -1,7 -1,2 -4,4 -2,2 -5,3 -3,1 -6,1 -3,0 -5,0 -1,-1 -3,-3 l 0,0 q 1,0 3,0 1,0 2,0 4,0 7,-2 3,-3 3,-9 0,-5 -3,-9 -2,-3 -8,-4 -2,0 -4,0 -2,0 -3,1 l 0,43 q 0,1 1,2 0,1 2,1 l 5,1 0,2 q -3,0 -6,0 -3,0 -5,0 -2,0 -5,0 -3,0 -7,0 l 0,-2 5,-1 q 1,0 1,-1 1,0 1,-2 l 0,-38 q 0,-3 -2,-4 -2,-1 -7,-2 l 0,-2 z m 119,-29 0,0 c 3,0 4,0 5,1 1,1 1,2 1,4 0,1 0,1 0,2 l 0,0 0,0 c 0,1 -1,1 -1,1 0,1 -1,1 -1,1 l 0,0 0,0 c -1,1 -2,1 -2,1 -2,0 -3,0 -3,-1 l 0,0 0,0 c 0,0 -1,0 -1,-1 l 0,-8 c 0,0 1,0 1,0 l 0,0 0,0 c 0,0 1,0 1,0 z m 0,-13 c 2,0 3,1 3,1 l 0,0 0,0 c 1,1 1,1 1,3 0,1 0,2 -1,3 0,1 -1,1 -3,1 l -2,0 0,-7 c 1,-1 1,-1 2,-1 z m 0,-5 0,0 0,0 c 0,0 -1,0 -3,1 -2,0 -4,0 -7,0 l -4,0 0,5 1,0 3,0 c 0,0 0,0 0,0 l 0,21 c 0,1 0,1 0,1 0,0 0,0 0,0 0,0 0,0 0,0 l -4,1 0,4 5,0 c 2,0 3,0 5,0 l 0,0 5,0 c 2,0 4,0 5,-1 l 0,0 c 2,0 3,-1 5,-2 l 0,0 0,0 c 1,-1 2,-2 3,-3 l 0,0 c 1,-1 1,-3 1,-5 0,-1 0,-2 0,-3 -1,-1 -2,-2 -2,-3 l 0,0 c -1,-1 -2,-1 -3,-2 0,0 1,0 1,0 1,-2 2,-3 2,-5 0,-2 0,-3 -1,-4 l 0,0 c -1,-1 -2,-2 -3,-3 -1,0 -3,-1 -4,-1 -2,0 -3,-1 -5,-1 l 0,0 c 0,0 0,0 0,0 l 0,0 z m 21,1 0,1 0,3 5,1 0,22 c 0,0 0,0 0,0 l -5,0 0,5 2,0 c 1,0 2,0 3,0 1,0 2,0 4,0 2,0 3,0 4,0 l 0,0 c 1,0 2,0 3,0 l 2,0 0,-5 -5,0 0,-22 c 0,0 0,0 0,0 l 0,0 5,-1 0,-4 -2,0 c -1,0 -3,0 -4,0 -6,0 -9,0 -10,0 l -2,0 z m 43,-1 c -2,0 -5,1 -7,1 -2,1 -4,2 -6,4 0,0 0,0 0,0 -2,1 -4,3 -5,5 -1,2 -1,5 -1,7 0,3 0,5 1,7 1,2 3,4 4,5 l 0,0 0,0 c 2,2 4,3 6,3 l 0,0 0,0 c 2,1 5,1 7,1 1,0 2,0 3,0 l 0,0 0,0 c 1,0 2,0 2,0 1,0 2,0 3,0 l 0,0 c 1,-1 2,-1 2,-1 0,0 0,0 0,0 1,0 1,-1 2,-1 0,0 1,-1 1,-1 l 0,0 0,0 c 1,-1 1,-1 1,-2 0,-1 0,-1 0,-2 l 0,-5 4,0 0,-5 -2,0 c -2,0 -5,0 -7,0 -2,0 -4,0 -7,0 l -2,0 0,5 6,0 0,5 c 0,1 -1,1 -1,2 -1,0 -2,1 -4,1 -2,0 -3,-1 -4,-1 -1,-1 -2,-2 -3,-3 -1,-1 -2,-2 -2,-3 -1,-2 -1,-3 -1,-5 0,-2 0,-4 1,-5 0,-1 1,-3 1,-4 1,0 2,-1 4,-2 1,0 2,-1 4,-1 1,0 2,1 3,1 1,0 1,1 2,1 l 0,0 c 1,1 1,1 2,2 0,1 1,2 1,3 l 1,1 3,0 0,-10 -1,0 c -3,-2 -7,-3 -11,-3 l 0,0 z"
     style="color:#000000;font-style:normal;font-variant:normal;font-weight:normal;font-stretch:normal;font-size:medium;line-height:normal;font-family:sans-serif;font-variant-ligatures:none;font-variant-position:normal;font-variant-caps:normal;font-variant-numeric:normal;font-variant-alternates:normal;font-feature-settings:normal;text-indent:0;text-align:start;text-decoration:none;text-decoration-line:none;text-decoration-style:solid;text-decoration-color:#000000;letter-spacing:normal;word-spacing:normal;text-transform:none;direction:ltr;block-progression:tb;writing-mode:lr-tb;baseline-shift:baseline;text-anchor:start;white-space:normal;shape-padding:0;clip-rule:nonzero;display:inline;overflow:visible;visibility:visible;opacity:1;isolation:auto;mix-blend-mode:normal;color-interpolation:sRGB;color-interpolation-filters:linearRGB;solid-color:#000000;solid-opacity:1;fill:#4c575e;fill-opacity:1;fill-rule:evenodd;stroke:none;stroke-width:4;stroke-linecap:square;stroke-linejoin:miter;stroke-miterlimit:4;stroke-dasharray:none;stroke-dashoffset:0;stroke-opacity:1;color-rendering:auto;image-rendering:auto;shape-rendering:auto;text-rendering:auto;enable-background:accumulate"
     id="path8438" />
  <text
     sodipodi:linespacing="80%"
     id="text8440"
     y="534.51123"
     x="419.76434"
     style="font-style:normal;font-weight:normal;font-size:68.611px;line-height:80%;font-family:sans-serif;letter-spacing:-1.415px;word-spacing:0px;fill:#4c575e;fill-opacity:1;stroke:none;stroke-width:1px;stroke-linecap:butt;stroke-linejoin:miter;stroke-opacity:1"
     xml:space="preserve"><tspan
       style="font-style:normal;font-variant:normal;font-weight:bold;font-stretch:normal;font-family:'System Font';-inkscape-font-specification:'System Font Bold';fill:#4c575e;fill-opacity:1;stroke-width:1px"
       y="534.51123"
       x="419.76434"
       id="tspan8442"
       sodipodi:role="line"><tspan
         id="tspan8444"
         style="fill:#4c575e">BIO</tspan><tspan
         id="tspan8446"
         style="font-style:italic;font-variant:normal;font-weight:800;font-stretch:normal;font-family:'System Font';-inkscape-font-specification:'System Font Ultra-Bold Italic';fill:#4c575e;fill-opacity:1">NODE</tspan></tspan></text>
  <text
     xml:space="preserve"
     style="font-style:normal;font-weight:normal;font-size:16.476px;line-height:80%;font-family:sans-serif;letter-spacing:-0.339px;word-spacing:0px;fill:#5e6a71;fill-opacity:1;stroke:none;stroke-width:1.001px;stroke-linecap:butt;stroke-linejoin:miter;stroke-opacity:1"
     x="422.36057"
     y="335.23938"
     id="text8545"
     sodipodi:linespacing="80%"><tspan
       sodipodi:role="line"
       id="tspan8547"
       x="422.36057"
       y="335.23938"
       style="font-style:italic;font-variant:normal;font-weight:normal;font-stretch:normal;font-family:'System Font';-inkscape-font-specification:'System Font Italic';letter-spacing:0.478px;fill:#5e6a71;stroke-width:1.001px">WE LIVE ON THE EDGE SO YOU LIVE </tspan></text>
  <text
     xml:space="preserve"
     style="font-style:normal;font-weight:normal;font-size:5.333px;line-height:80%;font-family:sans-serif;letter-spacing:-0.11px;word-spacing:0px;fill:#000000;fill-opacity:1;stroke:none;stroke-width:1px;stroke-linecap:butt;stroke-linejoin:miter;stroke-opacity:1"
     x="348"
     y="134.02"
     id="text8549"
     sodipodi:linespacing="80%"><tspan
       sodipodi:role="line"
       id="tspan8551"
       x="348"
       y="134.02">2</tspan></text>
  <text
     sodipodi:linespacing="80%"
     id="text9301"
     y="761.48145"
     x="419.76434"
     style="font-style:normal;font-weight:normal;font-size:68.611px;line-height:80%;font-family:sans-serif;letter-spacing:-1.415px;word-spacing:0px;fill:#ff2273;fill-opacity:1;stroke:none;stroke-width:1px;stroke-linecap:butt;stroke-linejoin:miter;stroke-opacity:1"
     xml:space="preserve"><tspan
       style="font-style:normal;font-variant:normal;font-weight:bold;font-stretch:normal;font-family:'System Font';-inkscape-font-specification:'System Font Bold';fill:#ff2273;fill-opacity:1;stroke-width:1px"
       y="761.48145"
       x="419.76434"
       id="tspan9303"
       sodipodi:role="line"><tspan
         id="tspan9305"
         style="fill:#000000">BIO</tspan><tspan
         id="tspan9307"
         style="font-style:italic;font-variant:normal;font-weight:800;font-stretch:normal;font-family:'System Font';-inkscape-font-specification:'System Font Ultra-Bold Italic';fill:#ff2273;fill-opacity:1">NODE</tspan></tspan></text>
  <text
     sodipodi:linespacing="80%"
     id="text9309"
     y="788.80438"
     x="508.07196"
     style="font-style:normal;font-weight:normal;font-size:25.867px;line-height:80%;font-family:sans-serif;letter-spacing:-0.532px;word-spacing:0px;fill:#000000;fill-opacity:1;stroke:none;stroke-width:1px;stroke-linecap:butt;stroke-linejoin:miter;stroke-opacity:1"
     xml:space="preserve"><tspan
       style="font-style:italic;font-variant:normal;font-weight:normal;font-stretch:normal;font-family:'System Font';-inkscape-font-specification:'System Font Italic';letter-spacing:0.754px;fill:#000000;stroke-width:1px"
       y="788.80438"
       x="508.07196"
       id="tspan9311"
       sodipodi:role="line">BY <tspan
   style="font-style:italic;font-variant:normal;font-weight:800;font-stretch:normal;font-family:'System Font';-inkscape-font-specification:'System Font Ultra-Bold Italic';fill:#000000;stroke-width:1px"
   id="tspan9313">BIGPHARM</tspan></tspan></text>
  <g
     id="g11982">
    <path
       inkscape:connector-curvature="0"
       id="rect8346"
       d="m 502,0.02 116,0 0,115.98 -116,0 z"
       style="opacity:1;fill:#ff2273;fill-opacity:1;fill-rule:evenodd;stroke:none;stroke-width:4;stroke-linecap:square;stroke-linejoin:miter;stroke-miterlimit:4;stroke-dasharray:none;stroke-dashoffset:0;stroke-opacity:1" />
    <text
       xml:space="preserve"
       style="font-style:normal;font-weight:normal;font-size:68.611px;line-height:80%;font-family:sans-serif;letter-spacing:-1.415px;word-spacing:0px;fill:#ffffff;fill-opacity:1;stroke:none;stroke-width:1px;stroke-linecap:butt;stroke-linejoin:miter;stroke-opacity:1"
       x="542.76434"
       y="83.243874"
       id="text8288"
       sodipodi:linespacing="80%"><tspan
         sodipodi:role="line"
         id="tspan8290"
         x="542.76434"
         y="83.243874"
         style="font-style:normal;font-variant:normal;font-weight:bold;font-stretch:normal;font-family:'System Font';-inkscape-font-specification:'System Font Bold';fill:#ffffff;stroke-width:1px"><tspan
           style="font-style:italic;font-variant:normal;font-weight:800;font-stretch:normal;font-family:'System Font';-inkscape-font-specification:'System Font Ultra-Bold Italic';fill:#ffffff"
           id="tspan8292">N</tspan></tspan></text>
    <path
       sodipodi:nodetypes="cccc"
       inkscape:connector-curvature="0"
       style="opacity:1;fill:#000000;fill-opacity:1;fill-rule:evenodd;stroke:none;stroke-width:4;stroke-linecap:square;stroke-linejoin:miter;stroke-miterlimit:4;stroke-dasharray:none;stroke-dashoffset:0;stroke-opacity:1"
       d="m 502,0.02 29,0 L 502,112 Z"
       id="path8365" />
    <path
       id="path11980"
       d="m 618,116 -15,0 15,-58 z"
       style="opacity:1;fill:#b31851;fill-opacity:1;fill-rule:evenodd;stroke:none;stroke-width:4.002;stroke-linecap:square;stroke-linejoin:miter;stroke-miterlimit:4;stroke-dasharray:none;stroke-dashoffset:0;stroke-opacity:1"
       inkscape:connector-curvature="0"
       sodipodi:nodetypes="cccc" />
  </g>
  <text
     xml:space="preserve"
     style="font-style:normal;font-weight:normal;font-size:83.728px;line-height:80%;font-family:sans-serif;letter-spacing:-1.727px;word-spacing:0px;fill:#000000;fill-opacity:1;stroke:none;stroke-width:1.005px;stroke-linecap:butt;stroke-linejoin:miter;stroke-opacity:1"
     x="-42.200001"
     y="781.5"
     id="text11990"
     sodipodi:linespacing="80%"><tspan
       sodipodi:role="line"
       id="tspan11992"
       x="-42.200001"
       y="781.5"
       style="stroke-width:1.005px;-inkscape-font-specification:'Adobe Garamond Pro Bold';font-family:'Adobe Garamond Pro';font-weight:bold;font-style:normal;font-stretch:normal;font-variant:normal">BIG</tspan><tspan
       sodipodi:role="line"
       x="-42.200001"
       y="848.48248"
       id="tspan11994"
       style="stroke-width:1.005px;-inkscape-font-specification:'Adobe Garamond Pro';font-family:'Adobe Garamond Pro';font-weight:normal;font-style:normal;font-stretch:normal;font-variant:normal">PHARM</tspan></text>
</svg>
