<?xml version="1.0" encoding="UTF-8" standalone="no"?>
<svg
   xmlns:dc="http://purl.org/dc/elements/1.1/"
   xmlns:cc="http://creativecommons.org/ns#"
   xmlns:rdf="http://www.w3.org/1999/02/22-rdf-syntax-ns#"
   xmlns:svg="http://www.w3.org/2000/svg"
   xmlns="http://www.w3.org/2000/svg"
   version="1.1"
   id="svg2"
   viewBox="0 0 300.98785 137.20865"
   height="137.20865"
   width="300.98785">
  <metadata
     id="metadata1">
    <rdf:RDF>
      <cc:Work
         rdf:about="">
        <dc:format>image/svg+xml</dc:format>
        <dc:type
           rdf:resource="http://purl.org/dc/dcmitype/StillImage" />
        <dc:title></dc:title>
        <dc:creator>
          <cc:Agent>
            <dc:title>Andy Fitzsimon</dc:title>
          </cc:Agent>
        </dc:creator>
        <dc:source>ndftz.com</dc:source>
      </cc:Work>
    </rdf:RDF>
  </metadata>
  <defs
     id="defs1">
    <clipPath
       id="clipPath10017"
       clipPathUnits="userSpaceOnUse">
      <circle
         style="stroke-width:1"
         r="14.25721"
         cy="75.196266"
         cx="21.055841"
         id="circle10019" />
    </clipPath>
    <clipPath
       id="clipPath10031"
       clipPathUnits="userSpaceOnUse">
      <circle
         style="stroke-width:1"
         id="circle10033"
         cx="65.405724"
         cy="74.814377"
         r="14.25721" />
    </clipPath>
  </defs>
  <g
     clip-path="url(#clipPath10017)"
     style="stroke-width:0.83860153"
     transform="matrix(1.1924614,0,0,1.1924614,155.87992,-0.28430371)"
     id="g10009">
    <path
       id="path10011"
       d="m 4.9105877,59.442349 30.8423533,0 0,30.84236 -30.8423533,0 z"
       style="opacity:1;fill:#ff2273;fill-opacity:1;fill-rule:evenodd;stroke:none;stroke-width:3.35440612;stroke-linecap:square;stroke-linejoin:miter;stroke-miterlimit:4;stroke-dasharray:none;stroke-dashoffset:0;stroke-opacity:1" />
    <path
       d="m 18.896,81.563759 1.64847,-7.84352 0.07977,0 3.775529,7.84352 2.579059,0 2.738588,-12.84211 -3.164,0 -1.64847,7.87011 -0.05318,0 -3.802117,-7.87011 -2.552471,0 -2.738588,12.84211 3.137412,0 z"
       style="font-style:italic;font-variant:normal;font-weight:800;font-stretch:normal;font-family:'System Font';-inkscape-font-specification:'System Font Ultra-Bold Italic';fill:#ffffff;stroke-width:0.83860153"
       id="path10013" />
    <path
       style="opacity:1;fill:#000000;fill-opacity:1;fill-rule:evenodd;stroke:none;stroke-width:3.35440612;stroke-linecap:square;stroke-linejoin:miter;stroke-miterlimit:4;stroke-dasharray:none;stroke-dashoffset:0;stroke-opacity:1"
       d="m 6.9473319,59.442349 7.7105881,0 -7.7105881,29.77883 z"
       id="path10015" />
  </g>
  <text
     id="text8276"
     y="39.588081"
     x="156.41385"
     style="font-style:normal;font-weight:normal;font-size:24.77996254px;line-height:80.00000119%;font-family:sans-serif;letter-spacing:-0.51104999px;word-spacing:0px;fill:#ff2273;fill-opacity:1;stroke:none;stroke-width:0.99999994px;stroke-linecap:butt;stroke-linejoin:miter;stroke-opacity:1"
     xml:space="preserve"><tspan
       style="font-style:normal;font-variant:normal;font-weight:bold;font-stretch:normal;font-family:'System Font';-inkscape-font-specification:'System Font Bold';fill:#ff2273;fill-opacity:1;stroke-width:0.99999994px"
       y="39.588081"
       x="156.41385"
       id="tspan8278"><tspan
         id="tspan8362"
         style="fill:#000000;stroke-width:0.99999994px">BIO</tspan><tspan
         id="tspan8282"
         style="font-style:italic;font-variant:normal;font-weight:800;font-stretch:normal;font-family:'System Font';-inkscape-font-specification:'System Font Ultra-Bold Italic';fill:#ff2273;fill-opacity:1;stroke-width:0.99999994px">NODE</tspan></tspan></text>
  <text
     id="text8545"
     y="46.805435"
     x="157.48878"
     style="font-style:normal;font-weight:normal;font-size:5.09352493px;line-height:80.00000119%;font-family:sans-serif;letter-spacing:-0.10473815px;word-spacing:0px;fill:#5e6a71;fill-opacity:1;stroke:none;stroke-width:1.00199997px;stroke-linecap:butt;stroke-linejoin:miter;stroke-opacity:1"
     xml:space="preserve"><tspan
       style="font-style:italic;font-variant:normal;font-weight:normal;font-stretch:normal;font-family:'System Font';-inkscape-font-specification:'System Font Italic';letter-spacing:0.14771691px;fill:#5e6a71;stroke-width:1.00199997px"
       y="46.805435"
       x="157.48878"
       id="tspan8547">WE LIVE ON THE EDGE SO YOU CAN LIVE </tspan></text>
  <g
     id="g10058">
    <path
       id="path9332"
       style="color:#000000;font-style:normal;font-variant:normal;font-weight:normal;font-stretch:normal;font-size:medium;line-height:normal;font-family:sans-serif;font-variant-ligatures:none;font-variant-position:normal;font-variant-caps:normal;font-variant-numeric:normal;font-variant-alternates:normal;font-feature-settings:normal;text-indent:0;text-align:start;text-decoration:none;text-decoration-line:none;text-decoration-style:solid;text-decoration-color:#000000;letter-spacing:normal;word-spacing:normal;text-transform:none;direction:ltr;block-progression:tb;writing-mode:lr-tb;baseline-shift:baseline;text-anchor:start;white-space:normal;shape-padding:0;clip-rule:nonzero;display:inline;overflow:visible;visibility:visible;opacity:1;isolation:auto;mix-blend-mode:normal;color-interpolation:sRGB;color-interpolation-filters:linearRGB;solid-color:#000000;solid-opacity:1;fill:#004153;fill-opacity:1;fill-rule:evenodd;stroke:none;stroke-width:4;stroke-linecap:square;stroke-linejoin:miter;stroke-miterlimit:4;stroke-dasharray:none;stroke-dashoffset:0;stroke-opacity:1;color-rendering:auto;image-rendering:auto;shape-rendering:auto;text-rendering:auto;enable-background:accumulate"
       d="m 25.768586,28.100213 2.167676,0 c 1.96949,0.05264 3.917302,-0.309669 5.883695,-0.309669 3.146227,0.08671 5.533768,1.650532 5.574025,4.645022 0.0898,2.870623 -2.325607,4.629539 -4.954689,4.645022 l -1.548341,0 -0.929004,-0.929005 1.548341,0 c 2.173869,0.04026 3.081197,-1.693884 3.09668,-3.406349 0,-2.307027 -2.272964,-4.929917 -5.574025,-3.716017 l 0,13.315729 c 0.123866,0.554305 0.455211,0.929004 0.929004,0.929004 l 1.548341,0.309668 0,0.619337 -7.122367,0 0,-0.619337 1.54834,-0.309668 c 0.399472,-0.185801 0.61624,-0.563595 0.619337,-0.929004 l 0,-11.767389 c 0,-0.619336 -0.207478,-1.031194 -0.619337,-1.238672 -0.411858,-0.207478 -1.135553,-0.411859 -2.167676,-0.619336 z m 28.489466,1.54834 c 0,-0.557403 -0.411858,-0.929004 -0.619335,-0.929004 l -1.238673,0 0,-0.619336 6.812697,0 0,0.619336 -1.579307,0 c -0.2787,0.06194 -0.588368,0.452115 -0.588368,0.929004 l 0,12.696393 c -0.0929,0.603853 0.154833,0.805137 0.619336,0.929004 l 1.858008,0.309668 0,0.619337 -7.432035,0 0,-0.619337 1.548342,-0.309668 c 0.613143,-0.123867 0.619335,-0.346828 0.619335,-0.929004 l 0,-5.883694 -8.361039,0 0,5.883694 c -0.03096,0.520242 0.204382,0.929004 0.659593,1.052872 l 1.198416,0.1858 0,0.619337 -7.432035,0 0,-0.619337 1.907555,-0.309668 c 0.54192,-0.0929 0.870167,-0.414955 0.879458,-0.929004 l 0,-12.696393 c -0.0991,-0.439729 -0.325151,-0.777267 -0.619336,-0.929004 l -1.238673,0 0,-0.619336 6.812699,0 0,0.619336 -1.610274,0 c -0.371602,0 -0.557403,0.498565 -0.557403,0.929004 l 0,5.883695 8.361039,0 z m 15.793075,6.50303 -1.858009,-5.264358 -1.858008,5.264358 z m -4.335354,0.929005 -1.858009,5.574026 c -0.154833,0.402568 0.216767,0.526436 0.619336,0.619336 l 1.85801,0.309668 0,0.619337 -6.193364,0 0,-0.619337 1.548341,-0.309668 c 0.588369,-0.123867 1.021904,-0.309668 1.238672,-0.929004 l 5.883695,-15.173738 0.929005,0 5.574026,15.173738 c 0.526436,0.959971 1.300606,0.990938 2.477344,1.238672 l 0,0.619337 -7.741702,0 0,-0.619337 c 0,0 2.167676,-0.123867 2.167676,-1.238672 l -1.858009,-5.264358 z m 17.341414,-1.54834 c 2.353478,0 4.923723,-1.015712 4.954691,-3.40635 -0.03096,-2.499022 -2.167678,-3.777951 -4.025686,-3.406349 l -0.929005,0.309668 z m -5.264358,8.05137 c 1.424474,0.0929 2.477345,-0.1858 2.477345,-1.54834 l 0,-11.457721 c -0.03096,-1.368733 -1.052871,-1.858008 -2.167677,-1.858008 l 0,-0.619336 1.858009,0 c 6.083087,-0.668475 10.690684,-0.01563 10.838384,3.716017 0.123868,2.334897 -1.548341,3.093585 -3.09668,4.025685 0,0 3.499249,5.781504 3.716017,6.193363 0.743203,1.331573 2.074776,1.021904 3.096681,1.54834 l 0,0.619337 -5.264359,0 -4.025685,-7.122367 c -0.216768,-0.619336 -0.619337,-0.929005 -1.238672,-0.929005 l -0.929005,0 0,5.883695 c 0.0929,1.300606 1.36254,1.331573 2.477345,1.54834 l 0,0.619337 -7.741703,0 z m 39.947191,0.619337 -8.36104,0 0,-0.619337 1.54834,-0.309668 c 0.80514,-0.0929 0.929,-0.387085 0.929,-1.238672 l 0,-11.148053 -5.88369,13.31573 -6.812701,-13.625398 0,11.457721 c 0,0.826814 0.309669,1.238672 0.929001,1.238672 l 2.16768,0.309668 0,0.619337 -6.812697,0 0,-0.619337 1.54834,-0.309668 c 0.990938,-0.216768 1.238672,-0.309668 1.238672,-1.238672 l 0,-13.006061 -2.167676,-0.309668 0,-0.619336 4.954691,0 5.88369,11.767388 5.26436,-11.767388 5.57403,0 0,0.619336 c -1.17674,0.17651 -2.78702,0.517146 -2.78702,1.858008 l 0,11.148053 c 0.0619,0.82062 0.30967,1.238672 0.83611,1.54834 l 1.95091,0.309668 z" />
    <path
       id="path8438"
       style="color:#000000;font-style:normal;font-variant:normal;font-weight:normal;font-stretch:normal;font-size:medium;line-height:normal;font-family:sans-serif;font-variant-ligatures:none;font-variant-position:normal;font-variant-caps:normal;font-variant-numeric:normal;font-variant-alternates:normal;font-feature-settings:normal;text-indent:0;text-align:start;text-decoration:none;text-decoration-line:none;text-decoration-style:solid;text-decoration-color:#000000;letter-spacing:normal;word-spacing:normal;text-transform:none;direction:ltr;block-progression:tb;writing-mode:lr-tb;baseline-shift:baseline;text-anchor:start;white-space:normal;shape-padding:0;clip-rule:nonzero;display:inline;overflow:visible;visibility:visible;opacity:1;isolation:auto;mix-blend-mode:normal;color-interpolation:sRGB;color-interpolation-filters:linearRGB;solid-color:#000000;solid-opacity:1;fill:#007a87;fill-opacity:1;fill-rule:evenodd;stroke:none;stroke-width:4;stroke-linecap:square;stroke-linejoin:miter;stroke-miterlimit:4;stroke-dasharray:none;stroke-dashoffset:0;stroke-opacity:1;color-rendering:auto;image-rendering:auto;shape-rendering:auto;text-rendering:auto;enable-background:accumulate"
       d="m 80.161372,18.084363 c -2.47567,0 -4.611544,1.395598 -4.611544,4.026606 0,1.888306 1.407735,3.982918 4.368831,3.982918 3.04676,0 3.39798,-1.309279 3.39798,-2.912554 l 0.970852,0 0,-1.213565 -4.368832,0 0,1.213565 1.456278,0 0,1.213563 c -0.121358,0.526688 -0.776681,0.720858 -1.213565,0.728139 -1.553362,0 -2.427128,-1.672291 -2.427128,-2.912554 -0.02427,-1.563071 1.019394,-2.885855 2.427128,-2.912554 1.577634,0 2.184416,0.808234 2.184416,1.941702 l 0.728139,0 0,-2.427128 c -0.946581,-0.194898 -1.601905,-0.680567 -2.912555,-0.728138 z m -10.436653,0.242712 0,0.970852 1.213565,0.242713 0,5.339683 0,0 -1.213565,0 0,1.213564 4.368832,0 0,-1.213564 -1.213564,0 0,-5.339683 0,0 0,0 1.213564,-0.242713 0,-0.970852 z m -5.363954,0 -3.130995,0 0,1.213565 0.242712,0 0.728139,0 0,0 0,5.09697 0,0.242713 0,0 0,0 -0.970851,0.242712 0,0.970852 3.640692,0 c 3.20381,0 4.247475,-3.060609 2.184416,-4.611544 0.485427,0.02427 0.728139,-0.944154 0.728139,-1.213564 -0.04855,-1.827628 -1.310649,-1.941704 -3.422252,-1.941704 z m 1.237836,1.941704 c -0.04855,0.723284 -0.364069,0.97085 -0.970851,0.97085 l -0.485426,0 0,-1.698989 c 0.800952,-0.687849 1.456277,0.140773 1.456277,0.728139 z m 0.485425,3.39798 c 0,1.167447 -1.917431,1.337347 -1.941702,0.728137 l 0,-1.941702 0.242713,0 0,0 0.218441,0 c 1.019394,0 1.456278,0.378632 1.480548,1.213565 z m -40.591631,-1.941704 0,0.970852 34.281097,0 0,-0.970852 z m 60.251373,0 0,0.970852 0.485425,0 31.335067,0 0.48543,0 0,-0.970852 -0.48543,0 -31.335067,0 z" />
    <text
       id="text9352"
       y="50.937172"
       x="60.401657"
       style="font-style:normal;font-weight:normal;font-size:4.52320814px;line-height:80.00000119%;font-family:sans-serif;letter-spacing:-0.09301073px;word-spacing:0px;fill:#007a87;fill-opacity:1;stroke:none;stroke-width:1.00199997px;stroke-linecap:butt;stroke-linejoin:miter;stroke-opacity:1"
       xml:space="preserve"><tspan
         style="font-style:normal;font-variant:normal;font-weight:bold;font-stretch:normal;font-family:Baskerville;-inkscape-font-specification:'Baskerville Bold';letter-spacing:0.1311772px;fill:#007a87;stroke-width:1.00199997px"
         y="50.937172"
         x="60.401657"
         id="tspan9354">EST 1972</tspan></text>
  </g>
  <g
     transform="translate(21.343567,16.736242)"
     id="g9996">
    <path
       style="opacity:1;fill:#ff2273;fill-opacity:1;fill-rule:evenodd;stroke:none;stroke-width:4;stroke-linecap:square;stroke-linejoin:miter;stroke-miterlimit:4;stroke-dasharray:none;stroke-dashoffset:0;stroke-opacity:1"
       d="m 4.9105877,59.442349 30.8423533,0 0,30.84236 -30.8423533,0 z"
       id="rect8346" />
    <path
       id="path9833"
       style="font-style:italic;font-variant:normal;font-weight:800;font-stretch:normal;font-family:'System Font';-inkscape-font-specification:'System Font Ultra-Bold Italic';fill:#ffffff;stroke-width:1"
       d="m 18.896,81.563759 1.64847,-7.84352 0.07977,0 3.775529,7.84352 2.579059,0 2.738588,-12.84211 -3.164,0 -1.64847,7.87011 -0.05318,0 -3.802117,-7.87011 -2.552471,0 -2.738588,12.84211 3.137412,0 z" />
    <path
       id="path8365"
       d="m 4.9105877,59.442349 7.7105883,0 -7.7105883,29.77883 z"
       style="opacity:1;fill:#000000;fill-opacity:1;fill-rule:evenodd;stroke:none;stroke-width:4;stroke-linecap:square;stroke-linejoin:miter;stroke-miterlimit:4;stroke-dasharray:none;stroke-dashoffset:0;stroke-opacity:1" />
  </g>
  <g
     transform="translate(21.343567,16.736242)"
     id="g10001">
    <path
       id="path9970"
       d="m 49.945882,59.442349 30.842353,0 0,30.84236 -30.842353,0 z"
       style="opacity:1;fill:#004153;fill-opacity:1;fill-rule:evenodd;stroke:none;stroke-width:4;stroke-linecap:square;stroke-linejoin:miter;stroke-miterlimit:4;stroke-dasharray:none;stroke-dashoffset:0;stroke-opacity:1" />
    <path
       id="path9332-2"
       style="color:#000000;font-style:normal;font-variant:normal;font-weight:normal;font-stretch:normal;font-size:medium;line-height:normal;font-family:sans-serif;font-variant-ligatures:none;font-variant-position:normal;font-variant-caps:normal;font-variant-numeric:normal;font-variant-alternates:normal;font-feature-settings:normal;text-indent:0;text-align:start;text-decoration:none;text-decoration-line:none;text-decoration-style:solid;text-decoration-color:#000000;letter-spacing:normal;word-spacing:normal;text-transform:none;direction:ltr;block-progression:tb;writing-mode:lr-tb;baseline-shift:baseline;text-anchor:start;white-space:normal;shape-padding:0;clip-rule:nonzero;display:inline;overflow:visible;visibility:visible;opacity:1;isolation:auto;mix-blend-mode:normal;color-interpolation:sRGB;color-interpolation-filters:linearRGB;solid-color:#000000;solid-opacity:1;fill:#ffffff;fill-opacity:1;fill-rule:evenodd;stroke:none;stroke-width:4;stroke-linecap:square;stroke-linejoin:miter;stroke-miterlimit:4;stroke-dasharray:none;stroke-dashoffset:0;stroke-opacity:1;color-rendering:auto;image-rendering:auto;shape-rendering:auto;text-rendering:auto;enable-background:accumulate"
       d="m 61.673277,65.089293 2.665265,0 c 2.421584,0.06471 4.816515,-0.380753 7.234293,-0.380753 3.868441,0.106603 6.804041,2.029411 6.853539,5.711284 0.110421,3.529572 -2.859449,5.692248 -6.092034,5.711285 l -1.903763,0 -1.142256,-1.142259 1.903761,0 c 2.67288,0.04949 3.788485,-2.082714 3.807522,-4.188273 0,-2.836605 -2.794721,-6.061577 -6.853539,-4.569028 l 0,16.372349 c 0.1523,0.681539 0.559704,1.142251 1.142256,1.142251 l 1.903761,0.380756 0,0.761509 -8.757301,0 0,-0.761509 1.903761,-0.380756 c 0.491171,-0.22845 0.757696,-0.692961 0.761505,-1.142251 l 0,-14.468588 c 0,-0.761505 -0.255104,-1.267904 -0.761505,-1.523008 -0.5064,-0.255105 -1.396217,-0.506402 -2.665265,-0.761505 z" />
    <path
       id="path8438-0"
       style="color:#000000;font-style:normal;font-variant:normal;font-weight:normal;font-stretch:normal;font-size:medium;line-height:normal;font-family:sans-serif;font-variant-ligatures:none;font-variant-position:normal;font-variant-caps:normal;font-variant-numeric:normal;font-variant-alternates:normal;font-feature-settings:normal;text-indent:0;text-align:start;text-decoration:none;text-decoration-line:none;text-decoration-style:solid;text-decoration-color:#000000;letter-spacing:normal;word-spacing:normal;text-transform:none;direction:ltr;block-progression:tb;writing-mode:lr-tb;baseline-shift:baseline;text-anchor:start;white-space:normal;shape-padding:0;clip-rule:nonzero;display:inline;overflow:visible;visibility:visible;opacity:1;isolation:auto;mix-blend-mode:normal;color-interpolation:sRGB;color-interpolation-filters:linearRGB;solid-color:#000000;solid-opacity:1;fill:#ffffff;fill-opacity:1;fill-rule:evenodd;stroke:none;stroke-width:4;stroke-linecap:square;stroke-linejoin:miter;stroke-miterlimit:4;stroke-dasharray:none;stroke-dashoffset:0;stroke-opacity:1;color-rendering:auto;image-rendering:auto;shape-rendering:auto;text-rendering:auto;enable-background:accumulate"
       d="m 58.141178,70.061968 -3.655393,0 0,1.41682 0.283363,0 0.850092,0 0,0 0,5.950641 0,0.283363 0,0 0,0 -1.133455,0.283364 0,1.133456 4.250457,0 c 3.740403,0 4.958868,-3.573219 2.550275,-5.383914 0.566729,0.02833 0.850092,-1.102286 0.850092,-1.416819 -0.05668,-2.13373 -1.530164,-2.266911 -3.995431,-2.266911 z m 0.311701,3.400366 -0.566728,0 0,-1.983546 c 2.214328,-0.239032 2.32179,1.849558 0.566728,1.983546 z m 1.700182,2.833639 c 0,1.362979 -2.238574,1.561335 -2.26691,0.850091 l 0,-2.26691 0.283364,0 0,0 0.255027,0 c 1.190128,0 1.700184,0.442047 1.728519,1.416819 z" />
    <path
       d="m 53.804943,80.897303 0,0.970852 0.135395,0 8.740073,0 0.135396,0 0,-0.970852 -0.135396,0 -8.740073,0 z"
       style="color:#000000;font-style:normal;font-variant:normal;font-weight:normal;font-stretch:normal;font-size:medium;line-height:normal;font-family:sans-serif;font-variant-ligatures:none;font-variant-position:normal;font-variant-caps:normal;font-variant-numeric:normal;font-variant-alternates:normal;font-feature-settings:normal;text-indent:0;text-align:start;text-decoration:none;text-decoration-line:none;text-decoration-style:solid;text-decoration-color:#000000;letter-spacing:normal;word-spacing:normal;text-transform:none;direction:ltr;block-progression:tb;writing-mode:lr-tb;baseline-shift:baseline;text-anchor:start;white-space:normal;shape-padding:0;clip-rule:nonzero;display:inline;overflow:visible;visibility:visible;opacity:1;isolation:auto;mix-blend-mode:normal;color-interpolation:sRGB;color-interpolation-filters:linearRGB;solid-color:#000000;solid-opacity:1;fill:#a3dbe8;fill-opacity:1;fill-rule:evenodd;stroke:none;stroke-width:4;stroke-linecap:square;stroke-linejoin:miter;stroke-miterlimit:4;stroke-dasharray:none;stroke-dashoffset:0;stroke-opacity:1;color-rendering:auto;image-rendering:auto;shape-rendering:auto;text-rendering:auto;enable-background:accumulate"
       id="path9972" />
  </g>
  <g
     clip-path="url(#clipPath10031)"
     style="stroke-width:0.83860165"
     transform="matrix(1.1924614,0,0,1.1924614,147.31888,0.17108629)"
     id="g10021">
    <path
       style="opacity:1;fill:#004153;fill-opacity:1;fill-rule:evenodd;stroke:none;stroke-width:3.3544066;stroke-linecap:square;stroke-linejoin:miter;stroke-miterlimit:4;stroke-dasharray:none;stroke-dashoffset:0;stroke-opacity:1"
       d="m 49.945882,59.442349 30.842353,0 0,30.84236 -30.842353,0 z"
       id="path10023" />
    <path
       d="m 61.542194,66.193514 2.362146,0 c 4.780106,-0.415515 12.261378,-0.433153 12.485629,4.724292 0.09786,3.128155 -2.534245,5.044871 -5.39919,5.061744 l -1.687249,0 -1.012347,-1.012351 1.687247,0 c 2.368895,0.04387 3.357622,-1.845848 3.374494,-3.711942 0,-2.514 -2.005552,-4.049395 -6.07409,-4.049395 l 0,14.510329 c 0.13498,0.604028 0.49605,1.012343 1.012349,1.012343 l 1.687247,0.337453 0,0.674903 -7.761338,0 0,-0.674903 1.687248,-0.337453 c 0.43531,-0.202468 0.671523,-0.61415 0.674899,-1.012343 l 0,-12.823082 c 0,-0.6749 -0.226091,-1.123706 -0.674899,-1.349797 -0.448808,-0.226092 -1.237426,-0.448809 -2.362146,-0.674899 z"
       style="color:#000000;font-style:normal;font-variant:normal;font-weight:normal;font-stretch:normal;font-size:medium;line-height:normal;font-family:sans-serif;font-variant-ligatures:none;font-variant-position:normal;font-variant-caps:normal;font-variant-numeric:normal;font-variant-alternates:normal;font-feature-settings:normal;text-indent:0;text-align:start;text-decoration:none;text-decoration-line:none;text-decoration-style:solid;text-decoration-color:#000000;letter-spacing:normal;word-spacing:normal;text-transform:none;direction:ltr;block-progression:tb;writing-mode:lr-tb;baseline-shift:baseline;text-anchor:start;white-space:normal;shape-padding:0;clip-rule:nonzero;display:inline;overflow:visible;visibility:visible;opacity:1;isolation:auto;mix-blend-mode:normal;color-interpolation:sRGB;color-interpolation-filters:linearRGB;solid-color:#000000;solid-opacity:1;fill:#ffffff;fill-opacity:1;fill-rule:evenodd;stroke:none;stroke-width:3.3544066;stroke-linecap:square;stroke-linejoin:miter;stroke-miterlimit:4;stroke-dasharray:none;stroke-dashoffset:0;stroke-opacity:1;color-rendering:auto;image-rendering:auto;shape-rendering:auto;text-rendering:auto;enable-background:accumulate"
       id="path10025" />
    <path
       d="m 58.411799,70.600649 -3.239667,0 0,1.255685 0.251136,0 0.753412,0 0,0 0,5.273877 0,0.251137 0,0 0,0 -1.004548,0.251137 0,1.004549 3.767054,0 c 3.31501,0 4.394899,-3.166838 2.260234,-4.771604 0.502275,0.02511 0.753412,-0.976924 0.753412,-1.255685 -0.05023,-1.891062 -1.35614,-2.009096 -3.541033,-2.009096 z m 0.276251,3.013643 -0.502274,0 0,-1.757958 c 1.962494,-0.211847 2.057734,1.639209 0.502274,1.757958 z m 1.506822,2.511371 c 0,1.207968 -1.983982,1.383766 -2.009096,0.753411 l 0,-2.009095 0.251138,0 0,0 0.226022,0 c 1.054775,0 1.506823,0.391773 1.531936,1.255684 z"
       style="color:#000000;font-style:normal;font-variant:normal;font-weight:normal;font-stretch:normal;font-size:medium;line-height:normal;font-family:sans-serif;font-variant-ligatures:none;font-variant-position:normal;font-variant-caps:normal;font-variant-numeric:normal;font-variant-alternates:normal;font-feature-settings:normal;text-indent:0;text-align:start;text-decoration:none;text-decoration-line:none;text-decoration-style:solid;text-decoration-color:#000000;letter-spacing:normal;word-spacing:normal;text-transform:none;direction:ltr;block-progression:tb;writing-mode:lr-tb;baseline-shift:baseline;text-anchor:start;white-space:normal;shape-padding:0;clip-rule:nonzero;display:inline;overflow:visible;visibility:visible;opacity:1;isolation:auto;mix-blend-mode:normal;color-interpolation:sRGB;color-interpolation-filters:linearRGB;solid-color:#000000;solid-opacity:1;fill:#ffffff;fill-opacity:1;fill-rule:evenodd;stroke:none;stroke-width:3.3544066;stroke-linecap:square;stroke-linejoin:miter;stroke-miterlimit:4;stroke-dasharray:none;stroke-dashoffset:0;stroke-opacity:1;color-rendering:auto;image-rendering:auto;shape-rendering:auto;text-rendering:auto;enable-background:accumulate"
       id="path10027" />
    <path
       id="path10029"
       style="color:#000000;font-style:normal;font-variant:normal;font-weight:normal;font-stretch:normal;font-size:medium;line-height:normal;font-family:sans-serif;font-variant-ligatures:none;font-variant-position:normal;font-variant-caps:normal;font-variant-numeric:normal;font-variant-alternates:normal;font-feature-settings:normal;text-indent:0;text-align:start;text-decoration:none;text-decoration-line:none;text-decoration-style:solid;text-decoration-color:#000000;letter-spacing:normal;word-spacing:normal;text-transform:none;direction:ltr;block-progression:tb;writing-mode:lr-tb;baseline-shift:baseline;text-anchor:start;white-space:normal;shape-padding:0;clip-rule:nonzero;display:inline;overflow:visible;visibility:visible;opacity:1;isolation:auto;mix-blend-mode:normal;color-interpolation:sRGB;color-interpolation-filters:linearRGB;solid-color:#000000;solid-opacity:1;fill:#a3dbe8;fill-opacity:1;fill-rule:evenodd;stroke:none;stroke-width:3.3544066;stroke-linecap:square;stroke-linejoin:miter;stroke-miterlimit:4;stroke-dasharray:none;stroke-dashoffset:0;stroke-opacity:1;color-rendering:auto;image-rendering:auto;shape-rendering:auto;text-rendering:auto;enable-background:accumulate"
       d="m 54.568722,80.203686 0,0.860438 0.119997,0 7.746068,0 0.119998,0 0,-0.860438 -0.119998,0 -7.746068,0 z" />
  </g>
  <rect
     style="opacity:0"
     y="0"
     x="0"
     height="137.20865"
     width="300.98785"
     id="rect10056" />
</svg>
