<?xml version="1.0" encoding="UTF-8" standalone="no"?>
<svg
   xmlns:dc="http://purl.org/dc/elements/1.1/"
   xmlns:cc="http://creativecommons.org/ns#"
   xmlns:rdf="http://www.w3.org/1999/02/22-rdf-syntax-ns#"
   xmlns:svg="http://www.w3.org/2000/svg"
   xmlns="http://www.w3.org/2000/svg"
   version="1.1"
   id="svg2"
   viewBox="0 0 100.5573 41.033916"
   height="41.033916"
   width="100.5573">
  <defs
     id="defs1" />
  <path
     style="fill:#ffffff"
     id="path10656"
     d="m 56.44,36.85 0,-0.21 q 1.19,-1.08 1.19,-1.99 0,-0.26 -0.11,-0.41 -0.11,-0.16 -0.29,-0.16 -0.15,0 -0.25,0.11 -0.11,0.1 -0.11,0.24 0,0.16 0.1,0.28 0,0 0,0 0,0 0,0 0,0 -0.18,0.1 -0.14,0.1 -0.17,0.1 0,0 -0.1,-0.12 0,-0.12 0,-0.27 0,-0.32 0.28,-0.52 0.28,-0.21 0.7,-0.21 0.4,0 0.68,0.22 0.28,0.23 0.28,0.58 0,0.22 -0.1,0.41 -0.1,0.2 -0.44,0.62 -0.36,0.41 -0.7,0.76 l 1.27,0 -0.12,0.63 -0.23,0 q 0,0 0,-0.1 0,-0.1 0,-0.1 0,0 -0.13,0 l -1.46,0 z m -0.86,-2.44 -1.03,0 q -0.15,0 -0.22,0 -0.1,0 -0.1,0.19 l -0.24,0 0.29,-0.91 0.25,0 q 0,0 0,0.1 0,0.1 0.13,0.1 l 1.39,0 -0.84,2.66 q -0.1,0.24 -0.16,0.33 -0.1,0.1 -0.22,0.1 -0.13,0 -0.22,-0.1 -0.1,-0.1 -0.1,-0.2 0,-0.1 0.16,-0.41 l 0.92,-1.83 z m -2.65,1.28 q -0.1,0.1 -0.18,0.1 -0.1,0 -0.21,0 -0.38,0 -0.65,-0.26 -0.26,-0.26 -0.26,-0.69 0,-0.51 0.31,-0.78 0.32,-0.26 0.71,-0.26 0.45,0 0.74,0.34 0.3,0.34 0.3,1 0,0.8 -0.39,1.28 -0.38,0.49 -1,0.49 -0.3,0 -0.45,-0.1 -0.16,-0.11 -0.16,-0.26 0,-0.1 0.1,-0.17 0.1,-0.1 0.18,-0.1 0.1,0 0.14,0 0.1,0 0.15,0.16 0.1,0.13 0.24,0.13 0.19,0 0.3,-0.21 0.11,-0.21 0.15,-0.75 z m -0.56,-0.85 q 0,0.38 0.1,0.54 0.1,0.16 0.23,0.16 0.16,0 0.23,-0.14 0.1,-0.14 0.1,-0.5 0,-0.49 -0.1,-0.67 -0.1,-0.17 -0.23,-0.17 -0.1,0 -0.16,0.1 -0.1,0.1 -0.11,0.2 0,0.13 0,0.52 z m -2.86,2.01 0,-0.24 0.11,0 q 0.13,0 0.2,0 0.1,-0.1 0.1,-0.22 l 0,-1.68 q 0,-0.24 -0.1,-0.29 -0.1,-0.1 -0.37,-0.1 l 0,-0.24 q 0.58,0 0.92,-0.27 l 0.23,0 0,2.53 q 0,0.15 0,0.21 0.1,0.1 0.21,0.1 l 0.11,0 0,0.24 -1.47,0 z m -3.85,-2.72 -0.25,0 q -0.22,0 -0.33,0 -0.1,0 -0.18,0.2 -0.1,0.14 -0.1,0.34 l -0.25,0 0,-0.85 2.99,0 0,0.85 -0.25,0 q -0.1,-0.34 -0.19,-0.46 -0.13,-0.12 -0.41,-0.12 l -0.26,0 0,2.11 q 0,0.21 0.1,0.29 0.1,0.1 0.29,0.1 l 0.1,0 0,0.24 -1.66,0 0,-0.24 0.1,0 q 0.23,0 0.3,-0.1 0.1,-0.1 0.1,-0.29 l 0,-2.11 z m -3.54,2.67 0,-1.02 0.26,0 q 0.11,0.46 0.33,0.65 0.22,0.2 0.48,0.2 0.19,0 0.3,-0.11 0.12,-0.12 0.12,-0.27 0,-0.11 -0.1,-0.21 -0.1,-0.11 -0.33,-0.25 -0.51,-0.25 -0.69,-0.37 -0.18,-0.12 -0.29,-0.3 -0.11,-0.19 -0.11,-0.43 0,-0.38 0.28,-0.63 0.28,-0.26 0.64,-0.26 0.39,0 0.65,0.26 0,-0.1 0.1,-0.2 l 0.25,0 0,0.88 -0.25,0 q -0.1,-0.29 -0.25,-0.48 -0.18,-0.19 -0.42,-0.19 -0.17,0 -0.28,0.1 -0.1,0.1 -0.1,0.25 0,0.11 0.1,0.21 0.1,0.1 0.18,0.16 0.11,0.1 0.48,0.23 0.32,0.15 0.48,0.27 0.16,0.13 0.25,0.31 0.1,0.19 0.1,0.4 0,0.4 -0.29,0.66 -0.3,0.26 -0.7,0.26 -0.24,0 -0.46,-0.1 -0.22,-0.1 -0.35,-0.26 -0.1,0.1 -0.1,0.24 l -0.26,0 z m -1.91,-1.38 0,0.74 q 0,0.21 0,0.28 0,0.1 0.13,0.11 0.11,0 0.32,0 0.3,0 0.44,-0.1 0.13,-0.1 0.24,-0.26 0.11,-0.18 0.16,-0.39 l 0.25,0 0,0.98 -2.74,0 0,-0.24 0.1,0 q 0.22,0 0.29,-0.1 0.1,-0.1 0.1,-0.29 l 0,-1.77 q 0,-0.21 -0.1,-0.29 -0.1,-0.1 -0.28,-0.1 l -0.1,0 0,-0.24 2.55,0 0,0.77 -0.25,0 q -0.1,-0.2 -0.15,-0.32 -0.1,-0.12 -0.17,-0.15 -0.1,0 -0.27,0 l -0.56,0 0,1.03 0.28,0 q 0.19,0 0.26,-0.1 0.1,-0.1 0.1,-0.3 l 0.25,0 0,1.02 -0.25,0 q 0,0 0,0 0,-0.13 -0.1,-0.23 -0.1,-0.11 -0.27,-0.11 l -0.29,0 z M 58.67,4 c -2.48,0 -4.61,1.396 -4.61,4.027 0,1.888 1.41,3.983 4.37,3.983 3.04,0 3.39,-1.31 3.39,-2.913 l 0.98,0 0,-1.214 -4.37,0 0,1.214 1.45,0 0,1.213 c -0.12,0.53 -0.77,0.72 -1.21,0.73 -1.55,0 -2.43,-1.674 -2.43,-2.914 0,-1.563 1.02,-2.886 2.43,-2.912 1.58,0 2.18,0.808 2.18,1.941 l 0.73,0 0,-2.427 C 60.63,4.533 59.98,4.048 58.67,4 Z m -10.44,0.243 0,0.971 1.22,0.242 0,5.344 0,0 -1.22,0 0,1.21 4.37,0 0,-1.21 -1.21,0 0,-5.344 0,0 0,0 1.21,-0.242 0,-0.971 z m -5.36,0 -3.13,0 0,1.213 0.24,0 0.73,0 0,0 0,5.094 0,0.25 0,0 0,0 -0.97,0.24 0,0.97 3.64,0 c 3.2,0 4.25,-3.061 2.18,-4.612 0.49,0.02 0.73,-0.944 0.73,-1.214 0,-1.827 -1.31,-1.941 -3.42,-1.941 z m 1.24,1.941 c 0,0.724 -0.37,0.971 -0.97,0.971 l -0.49,0 0,-1.699 c 0.8,-0.688 1.46,0.141 1.46,0.728 z m 0.48,3.398 c 0,1.168 -1.92,1.338 -1.94,0.728 l 0,-1.941 0.24,0 0,0 0.22,0 c 1.02,0 1.46,0.378 1.48,1.213 z M 4,7.641 l 0,0.971 34.28,0 0,-0.971 z m 60.25,0 0,0.971 0.49,0 31.33,0 0.49,0 0,-0.971 -0.49,0 -31.33,0 z m -59.974,6.379 2.168,0 c 1.969,0.1 3.916,-0.31 5.886,-0.31 3.14,0.1 5.53,1.65 5.57,4.64 0.1,2.87 -2.32,4.63 -4.95,4.65 l -1.55,0 -0.93,-0.93 1.55,0 c 2.17,0 3.08,-1.7 3.09,-3.41 0,-2.31 -2.27,-4.93 -5.569,-3.72 l 0,13.32 c 0.123,0.55 0.455,0.93 0.929,0.93 l 1.55,0.31 0,0.62 -7.124,0 0,-0.62 1.548,-0.31 C 6.843,29 7.06,28.63 7.063,28.26 l 0,-11.77 c 0,-0.62 -0.207,-1.03 -0.619,-1.24 -0.412,-0.2 -1.136,-0.41 -2.168,-0.61 z m 28.494,1.54 c 0,-0.55 -0.42,-0.92 -0.62,-0.92 l -1.24,0 0,-0.62 6.81,0 0,0.62 -1.58,0 c -0.28,0.1 -0.59,0.45 -0.59,0.92 l 0,12.7 c -0.1,0.6 0.16,0.81 0.62,0.93 l 1.86,0.31 0,0.62 -7.43,0 0,-0.62 1.55,-0.31 c 0.61,-0.12 0.62,-0.35 0.62,-0.93 l 0,-5.88 -8.37,0 0,5.88 c 0,0.52 0.21,0.93 0.66,1.05 l 1.2,0.19 0,0.62 -7.43,0 0,-0.62 1.91,-0.31 c 0.54,-0.1 0.87,-0.42 0.88,-0.93 l 0,-12.7 C 21.52,15.12 21.29,14.79 21,14.64 l -1.24,0 0,-0.62 6.81,0 0,0.62 -1.61,0 c -0.37,0 -0.56,0.49 -0.56,0.92 l 0,5.89 8.37,0 z M 48.56,22.07 46.7,16.8 44.84,22.07 Z M 44.22,23 42.37,28.57 c -0.16,0.4 0.21,0.53 0.61,0.62 l 1.86,0.31 0,0.62 -6.19,0 0,-0.62 1.55,-0.31 c 0.59,-0.12 1.02,-0.31 1.24,-0.93 l 5.88,-15.17 0.93,0 5.57,15.17 c 0.53,0.96 1.3,0.99 2.48,1.24 l 0,0.62 -7.74,0 0,-0.62 c 0,0 2.17,-0.12 2.17,-1.24 L 48.87,23 Z m 17.34,-1.55 c 2.36,0 4.93,-1.02 4.96,-3.41 0,-2.5 -2.17,-3.78 -4.03,-3.4 l -0.93,0.3 z M 56.3,29.5 c 1.42,0.1 2.48,-0.19 2.48,-1.55 l 0,-11.46 c 0,-1.37 -1.06,-1.85 -2.17,-1.85 l 0,-0.62 1.86,0 c 6.08,-0.67 10.69,0 10.84,3.71 0.12,2.34 -1.55,3.1 -3.1,4.03 0,0 3.5,5.78 3.72,6.19 0.74,1.33 2.07,1.02 3.09,1.55 l 0,0.62 -5.26,0 L 63.73,23 c -0.21,-0.62 -0.62,-0.93 -1.24,-0.93 l -0.93,0 0,5.88 c 0.1,1.3 1.37,1.33 2.48,1.55 l 0,0.62 -7.74,0 z m 39.95,0.62 -8.36,0 0,-0.62 1.54,-0.31 c 0.81,-0.1 0.93,-0.39 0.93,-1.24 l 0,-11.15 -5.88,13.32 -6.81,-13.63 0,11.46 c 0,0.83 0.31,1.24 0.93,1.24 l 2.16,0.31 0,0.62 -6.81,0 0,-0.62 1.55,-0.31 c 0.99,-0.22 1.24,-0.31 1.24,-1.24 l 0,-13.01 -2.17,-0.3 0,-0.62 4.96,0 5.88,11.76 5.26,-11.76 5.58,0 0,0.62 c -1.18,0.17 -2.79,0.51 -2.79,1.85 l 0,11.15 c 0.1,0.82 0.31,1.24 0.84,1.55 l 1.95,0.31 z" />
  <metadata
     id="metadata10660">
    <rdf:RDF>
      <cc:Work
         rdf:about="">
        <dc:title></dc:title>
      </cc:Work>
    </rdf:RDF>
  </metadata>
</svg>
