<svg xmlns="http://www.w3.org/2000/svg" width="100" height="20" viewBox="0 0 100 20">
<path fill="#fff" d="M24.6 1.37C19.9 1.37 17 4.73 17 10c0 5.3 2.9 8.7 7.5 8.7 4.7 0 7.6-3.4 7.6-8.7 0-5.27-2.9-8.63-7.6-8.63zm0 .98c3.9 0 6.4 2.98 6.4 7.65 0 4.7-2.5 7.7-6.4 7.7-4 0-6.5-3-6.5-7.7 0-4.67 2.5-7.65 6.5-7.65zM15.3 18.4V1.61h-1.1V18.4h1.1zm-8.37 0c3.57 0 5.67-1.7 5.67-4.5 0-2.4-1.7-3.94-4.13-4.21v-.1c2.03-.33 3.33-1.9 3.33-3.87 0-2.45-2.03-4.11-4.97-4.11H1.08V18.4h5.85zM2.15 2.57h4.5c2.47 0 4.05 1.26 4.05 3.24 0 2.17-1.69 3.5-4.33 3.5H2.15V2.57zm0 14.93v-7.2h4.43c3.16 0 5.02 1.3 5.02 3.6 0 2.2-1.79 3.6-4.78 3.6H2.15zM96.5 15h-7.3l.8-3.4h6.8l.7-3.19h-6.8l.7-3.36h7.3l.7-3.44H87.8L84.2 18.4h11.6l.7-3.4zM71 1.61L67.4 18.4h8c5.4 0 9-4.2 9-10.26 0-4.11-2.8-6.53-6.9-6.53H71zm3.6 3.43h2c2.1 0 3.4 1.39 3.4 3.64C80 12.6 77.8 15 74.8 15h-2.3l2.1-9.96zM59.8 4.8c2 0 3.3 1.54 3.3 3.97 0 3.63-2.1 6.53-4.7 6.53-2.1 0-3.4-1.6-3.4-4 0-3.6 2.2-6.5 4.8-6.5zm-1.6 13.9c5.2 0 9.3-4.1 9.3-10.17 0-4.15-2.8-7.21-7.6-7.21-5.2 0-9.2 4.19-9.2 10.18 0 4.2 2.8 7.2 7.5 7.2zm-21.7-.3l2.2-10.24h.1l5 10.24h3.4l3.6-16.79h-4.1L44.5 11.9h-.1l-5-10.29H36L32.4 18.4h4.1z"/></svg>