<svg xmlns="http://www.w3.org/2000/svg" height="55.311" width="124.71" data-name="Layer 1" id="Layer_1"><defs id="defs4"><style id="style2"></style></defs><path d="M69.45 50.92v-25.2h15.23v2.55H72.26v7.92h7.2v2.56h-7.2v9.61h13v2.56zm-6.39-3.86a6.14 6.14 0 0 1-1.64 2.24 8.06 8.06 0 0 1-2.63 1.47 10.68 10.68 0 0 1-3.53.54 11.41 11.41 0 0 1-4.77-1 12.43 12.43 0 0 1-3.69-2.5l1.88-2.09a12.68 12.68 0 0 0 3.09 2.2 8 8 0 0 0 3.6.83 6.24 6.24 0 0 0 4-1.16 3.8 3.8 0 0 0 1.46-3.16 4.29 4.29 0 0 0-.29-1.59 3.48 3.48 0 0 0-1-1.33 9.72 9.72 0 0 0-1.85-1.21 25.25 25.25 0 0 0-2.88-1.2 25 25 0 0 1-3.44-1.46 9.47 9.47 0 0 1-2.24-1.58 5.24 5.24 0 0 1-1.22-1.89 7.15 7.15 0 0 1-.38-2.42 6.08 6.08 0 0 1 .58-2.7 6 6 0 0 1 1.6-2 7.07 7.07 0 0 1 2.49-1.28 11.2 11.2 0 0 1 3.22-.43 11.48 11.48 0 0 1 4.3.72 13.6 13.6 0 0 1 3.37 2l-1.8 2.2a11.43 11.43 0 0 0-2.76-1.75 8.23 8.23 0 0 0-3.29-.59 7.29 7.29 0 0 0-2.23.3 4.6 4.6 0 0 0-1.53.81 3 3 0 0 0-.87 1.17 3.78 3.78 0 0 0-.27 1.42 4.25 4.25 0 0 0 .21 1.38 3 3 0 0 0 .86 1.22 7.54 7.54 0 0 0 1.82 1.17 29.31 29.31 0 0 0 3.08 1.26 26.83 26.83 0 0 1 3.49 1.51 8.94 8.94 0 0 1 2.25 1.66 5.41 5.41 0 0 1 1.21 2 8.15 8.15 0 0 1 .36 2.48 6.93 6.93 0 0 1-.56 2.76zm-23.6 1.53c-1.49 1.82-3.76 2.72-6.8 2.72s-5.3-.89-6.83-2.68c-1.53-1.79-2.28-4.43-2.28-7.94v-15h2.81v14.9q0 8.13 6.44 8.14 3.27 0 4.68-2c.94-1.32 1.4-3.35 1.4-6.09v-15h2.81v14.9q0 5.33-2.23 8.05zM6.81 28.27v8.35h6.91v2.56H6.81v11.74H4v-25.2h14.8v2.55zM120.52 7a2.09 2.09 0 0 1-.46.69 1.94 1.94 0 0 1-.69.46 2.36 2.36 0 0 1-1.71 0 1.94 1.94 0 0 1-.69-.46 2.09 2.09 0 0 1-.46-.69 2.18 2.18 0 0 1-.16-.85 2.2 2.2 0 0 1 .16-.86 2.09 2.09 0 0 1 .49-.67 2.06 2.06 0 0 1 .69-.45 2.24 2.24 0 0 1 1.71 0 2.06 2.06 0 0 1 .69.45 2.09 2.09 0 0 1 .46.69 2.2 2.2 0 0 1 .16.86 2.18 2.18 0 0 1-.19.83zm-.32-1.57a1.8 1.8 0 0 0-.39-.58 1.77 1.77 0 0 0-.58-.38 1.9 1.9 0 0 0-1.43 0 1.7 1.7 0 0 0-1 1 1.71 1.71 0 0 0-.14.72 1.71 1.71 0 0 0 .14.72 1.73 1.73 0 0 0 .38.57 1.8 1.8 0 0 0 .58.39 2 2 0 0 0 1.43 0 1.8 1.8 0 0 0 .58-.39 1.75 1.75 0 0 0 .39-.57 1.88 1.88 0 0 0 .13-.72 1.88 1.88 0 0 0-.09-.74zm-.84.66a.64.64 0 0 1-.36.24l.48 1H119l-.46-.92h-.45v.92h-.41V4.94h1A1.35 1.35 0 0 1 119 5a.84.84 0 0 1 .25.13.72.72 0 0 1 .17.22.84.84 0 0 1 .06.33.71.71 0 0 1-.12.43zm-.36-.67a.4.4 0 0 0-.27-.09h-.62V6h.62a.4.4 0 0 0 .27-.08.3.3 0 0 0 .11-.25.3.3 0 0 0-.11-.25zm-9.42 2.75v12.75h-4.66V8.17h-4.7v-4h14.06v4zM95 20.92l-.91-3h-5l-.91 3h-5l6.09-16.8H94l6.09 16.8zm-2.32-7.76c-.15-.54-.27-1-.38-1.41-.11-.41-.22-.75-.3-1.08-.08-.33-.16-.61-.22-.88s-.12-.54-.17-.83c0 .29-.11.57-.17.84-.06.27-.14.57-.23.89-.09.32-.18.68-.3 1.08l-.38 1.39-.31 1.11H93zM75.3 20.92v-6.63h-5.23v6.63h-4.75V4.12h4.75v6.12h5.23V4.12h4.76v16.8zm-22.72-4.5A6.05 6.05 0 0 1 50.85 19 6.86 6.86 0 0 1 48 20.47a15.26 15.26 0 0 1-3.92.45h-5.45V4.12h5.88a14.69 14.69 0 0 1 3.58.4 6.67 6.67 0 0 1 2.72 1.38 6.31 6.31 0 0 1 1.73 2.56 11.06 11.06 0 0 1 .61 4 12.18 12.18 0 0 1-.57 3.96zm-4.41-5.92a3.19 3.19 0 0 0-.66-1.37 2.67 2.67 0 0 0-1.2-.78 5.67 5.67 0 0 0-1.82-.25h-1.15v8.83h1a6.27 6.27 0 0 0 1.85-.23 2.84 2.84 0 0 0 1.26-.7 2.93 2.93 0 0 0 .71-1.37 8.9 8.9 0 0 0 .22-2.1 8.26 8.26 0 0 0-.21-2.03zM21.9 20.92V4.12h12.87V8h-8.26v2.28h5v3.84h-5V17h8.43v3.92zm-8.72 0l-2.74-5.67H8.56v5.67H4V4.12h7.51a11.16 11.16 0 0 1 2.68.3 5.63 5.63 0 0 1 2.07.94 4.34 4.34 0 0 1 1.34 1.7 6.18 6.18 0 0 1 .46 2.53 5.42 5.42 0 0 1-.81 3.09A5.26 5.26 0 0 1 15 14.51l3.37 6.41zM13 8.41a2.11 2.11 0 0 0-1.58-.5H8.56v3.67h2.75A2.28 2.28 0 0 0 13 11.1a1.88 1.88 0 0 0 .48-1.39 1.81 1.81 0 0 0-.48-1.3z" id="path28" fill="#fff"/></svg>