<svg xmlns="http://www.w3.org/2000/svg" height="57.33" width="227.12" id="logo"><style id="style2"></style><path d="M206.35 51.93v-25.2h15.23v2.56h-12.42v7.92h7.2v2.56h-7.2v9.61h12.96v2.56h-15.77zm-9.25 0l-10.99-17.24c-.14-.22-.3-.47-.47-.77-.17-.3-.33-.6-.5-.9-.17-.3-.33-.58-.49-.85a4.65 4.65 0 0 1-.34-.65v20.41h-2.74v-25.2h2.74l10.91 17.57c.14.22.3.47.47.77.17.3.34.6.5.9.17.3.33.58.49.85.16.26.27.48.34.65V26.73h2.74v25.2zm-25.13 0v-25.2h2.81v25.2zm-20.88 0v-25.2h2.81v22.64h12.46v2.56zm-9.25 0l-10.99-17.24c-.14-.22-.3-.47-.47-.77-.17-.3-.33-.6-.5-.9-.17-.3-.33-.58-.49-.85a4.65 4.65 0 0 1-.34-.65v20.41h-2.74v-25.2h2.74l10.91 17.57c.14.22.3.47.47.77.17.3.34.6.5.9.17.3.33.58.49.85.16.26.27.48.34.65V26.73h2.74v25.2zm-21.81-7.4c-.5 1.6-1.22 2.97-2.14 4.12a9.877 9.877 0 0 1-3.33 2.7c-1.3.65-2.72.97-4.28.97s-2.98-.32-4.27-.95a9.659 9.659 0 0 1-3.29-2.68c-.91-1.15-1.61-2.52-2.11-4.1-.49-1.58-.74-3.32-.74-5.22s.25-3.64.76-5.24 1.21-2.97 2.12-4.12a9.808 9.808 0 0 1 3.31-2.7c1.29-.65 2.72-.97 4.28-.97s2.98.32 4.27.95c1.28.64 2.38 1.53 3.29 2.68.91 1.15 1.62 2.52 2.12 4.1.5 1.58.76 3.32.76 5.22s-.25 3.65-.75 5.24zm-2.65-9.47c-.4-1.28-.94-2.39-1.64-3.31-.7-.92-1.51-1.63-2.45-2.12-.94-.49-1.96-.74-3.06-.74-1.08 0-2.08.25-3.01.74-.92.49-1.72 1.19-2.39 2.09-.67.9-1.2 1.99-1.58 3.28-.38 1.28-.58 2.72-.58 4.3 0 1.58.2 3.02.59 4.3.4 1.28.94 2.39 1.62 3.31.68.92 1.49 1.63 2.43 2.12.94.49 1.96.74 3.06.74 1.08 0 2.09-.25 3.02-.74.94-.49 1.74-1.19 2.41-2.09.67-.9 1.2-1.99 1.58-3.28.38-1.28.58-2.72.58-4.3 0-1.58-.18-3.01-.58-4.3zM70.45 51.93v-25.2h15.23v2.56H73.26v7.92h7.2v2.56h-7.2v9.61h12.96v2.56H70.45zm-6.39-3.85c-.37.86-.92 1.61-1.64 2.23-.72.62-1.6 1.12-2.63 1.48-1.03.36-2.21.54-3.53.54-1.73 0-3.32-.33-4.77-.99-1.45-.66-2.68-1.49-3.69-2.5l1.87-2.09c.96.91 1.99 1.64 3.1 2.2 1.1.55 2.3.83 3.6.83 1.68 0 3.01-.38 3.98-1.15.97-.77 1.46-1.82 1.46-3.17 0-.58-.1-1.1-.29-1.58-.19-.48-.52-.92-.99-1.33-.47-.41-1.09-.81-1.85-1.21-.77-.4-1.73-.8-2.88-1.21-1.37-.48-2.51-.97-3.44-1.46-.92-.49-1.67-1.02-2.23-1.58s-.97-1.19-1.22-1.89-.38-1.5-.38-2.41c0-1.01.19-1.91.58-2.7.38-.79.92-1.47 1.6-2.03.68-.56 1.51-.99 2.48-1.28.97-.29 2.05-.43 3.22-.43 1.68 0 3.11.24 4.3.72s2.31 1.14 3.37 1.98l-1.8 2.2c-.91-.77-1.83-1.35-2.75-1.75-.92-.4-2.02-.59-3.29-.59-.86 0-1.61.1-2.23.31-.62.2-1.13.47-1.53.81-.4.34-.68.73-.86 1.17-.19.42-.28.89-.28 1.4 0 .53.07 1 .22 1.42.14.42.43.83.86 1.22s1.04.79 1.82 1.17c.78.38 1.81.8 3.08 1.26 1.39.5 2.56 1.01 3.49 1.51.93.5 1.69 1.06 2.25 1.66.56.6.97 1.26 1.21 1.98s.36 1.55.36 2.48c-.01.99-.19 1.91-.57 2.78zm-23.59 1.53c-1.49 1.81-3.76 2.72-6.8 2.72-3.02 0-5.3-.89-6.82-2.68-1.52-1.79-2.29-4.43-2.29-7.94V26.73h2.81v14.9c0 5.42 2.15 8.14 6.44 8.14 2.18 0 3.74-.66 4.68-1.98.94-1.32 1.4-3.35 1.4-6.08V26.73h2.81v14.9c0 3.51-.75 6.17-2.23 7.98zM7.81 29.29v8.35h6.91v2.56H7.81v11.74H5v-25.2h14.8v2.56H7.81zM121.52 8.04c-.11.26-.26.49-.46.69a2.199 2.199 0 0 1-1.55.63c-.31 0-.59-.06-.86-.17a2.14 2.14 0 0 1-.69-.46 2.199 2.199 0 0 1-.63-1.55c0-.31.05-.59.17-.86.12-.27.26-.49.46-.69a2.199 2.199 0 0 1 1.55-.63c.31 0 .59.06.86.17.26.11.49.26.69.46a2.199 2.199 0 0 1 .63 1.55c0 .31-.06.59-.17.86zm-.32-1.58a1.77 1.77 0 0 0-.38-.58 1.77 1.77 0 0 0-.58-.38c-.22-.09-.46-.14-.72-.14-.26 0-.5.05-.72.14-.22.09-.41.22-.58.38-.17.16-.29.36-.38.58-.09.22-.14.46-.14.72 0 .26.05.5.14.72.09.22.22.41.38.58.16.16.36.29.58.38.22.09.46.14.72.14.26 0 .5-.05.72-.14.22-.09.42-.22.58-.38.16-.16.29-.36.38-.58.09-.22.14-.46.14-.72 0-.26-.05-.5-.14-.72zm-.83.67c-.09.12-.21.2-.37.24l.49.95h-.47l-.46-.91h-.45v.91h-.4V5.96h1.04c.1 0 .2.01.3.04.09.03.18.07.25.13s.13.13.17.22c.04.09.06.2.06.32a.9.9 0 0 1-.16.46zm-.37-.7c-.07-.06-.16-.08-.27-.08h-.62v.67h.62c.11 0 .2-.03.27-.08s.11-.14.11-.26c-.01-.11-.04-.19-.11-.25zm-9.42 2.76v12.74h-4.66V9.19h-4.7V5.13h14.06v4.06zM96.04 21.93l-.91-2.95h-5.04l-.91 2.95h-4.99l6.1-16.8h4.7l6.1 16.8zm-2.35-7.75c-.14-.54-.27-1.02-.38-1.42-.11-.4-.21-.76-.3-1.08-.09-.32-.16-.61-.23-.88-.06-.26-.12-.54-.17-.83-.05.29-.1.57-.17.84-.06.27-.14.57-.23.89-.09.32-.19.68-.3 1.08-.11.4-.24.86-.38 1.39l-.31 1.1H94zm-17.38 7.75v-6.62h-5.23v6.62h-4.75V5.13h4.75v6.12h5.23V5.13h4.75v16.8zm-22.73-4.5c-.38 1.08-.96 1.95-1.73 2.62-.77.67-1.72 1.14-2.84 1.44-1.12.3-2.44.44-3.92.44h-5.45V5.13h5.88c1.31 0 2.5.14 3.58.41 1.07.27 1.98.73 2.72 1.38.74.65 1.32 1.5 1.73 2.56.41 1.06.61 2.38.61 3.96s-.19 2.91-.58 3.99zm-4.4-5.92c-.14-.56-.36-1.02-.66-1.37-.3-.35-.7-.61-1.2-.78-.5-.17-1.1-.25-1.82-.25h-1.16v8.83h1.01c.72 0 1.34-.08 1.85-.23.51-.15.93-.4 1.26-.74.33-.34.56-.8.71-1.37.14-.57.22-1.27.22-2.1-.01-.76-.08-1.43-.21-1.99zM22.91 21.93V5.13h12.86v3.91h-8.26v2.26h4.97v3.84h-4.97v2.88h8.42v3.91zm-8.72 0l-2.74-5.66H9.57v5.66H5.01V5.13h7.51c.98 0 1.87.1 2.68.3.81.2 1.5.52 2.08.95.58.43 1.02 1 1.33 1.69.31.7.47 1.54.47 2.53 0 1.26-.27 2.3-.82 3.1-.55.8-1.28 1.41-2.21 1.82l3.37 6.41zm-.22-12.5c-.31-.34-.84-.5-1.58-.5H9.57v3.67h2.75c.77 0 1.32-.16 1.64-.48.32-.32.48-.78.48-1.39 0-.54-.16-.97-.47-1.3z" id="path36" fill="#fff"/></svg>