<svg xmlns="http://www.w3.org/2000/svg" height="77.679" width="290.68" data-name="Layer 1" id="Layer_1"><defs id="defs4"><style id="style2"></style></defs><path d="M15.85 58.478a33.71 33.71 0 0 0 3 3.65l12.85-4.68a22.32 22.32 0 0 1-4.06-3.26zM77 36.228l-11.79 4.29a21.89 21.89 0 0 1-1 5.07L77 40.908a33.2 33.2 0 0 0 0-4.68m-.11-17.07c-.37-.6-.76-1.2-1.17-1.78l-11.81 4.31a19.28 19.28 0 0 1 1.45 1.67zm-50.56 18.56a21 21 0 0 1 0-2.38l-11.77 4.3c0 .76.15 1.52.27 2.26zm41.78-11.63l-11.23 4.09a22 22 0 0 1 2.75 12.36l11.79-4.28a33.92 33.92 0 0 0-3.31-12.17m-2.9 14.43a21.69 21.69 0 0 1-2 7.59 21.94 21.94 0 0 1-35.58 6.08l-11.78 4.29A33.76 33.76 0 0 0 74 53.108a33.37 33.37 0 0 0 3-16.88zm-48.98 4.51l-11.23 4a34.16 34.16 0 0 0 5.28 11.48l11.79-4.29a22.09 22.09 0 0 1-5.84-11.19m36.38-26.1a21.94 21.94 0 0 1 6.39 4.54l11.82-4.3a33.78 33.78 0 0 0-61.18 22.26l11.82-4.3a21.89 21.89 0 0 1 31.15-18.2m25.99 3.35a32.59 32.59 0 0 0-2.88-4.9l-11.82 4.31a21.92 21.92 0 0 1 3.48 4.67zm-52.23 13.06l-11.81 4.3a33.91 33.91 0 0 0 .93 5.6l11.23-4.08a22.2 22.2 0 0 1-.35-5.82M248 71.128v-5.33a3.34 3.34 0 0 0-.45-2 1.63 1.63 0 0 0-1.36-.58 1.56 1.56 0 0 0-1.38.63 3 3 0 0 0-.44 1.78v5.5h-1.87v-5.33a3.34 3.34 0 0 0-.45-2 1.65 1.65 0 0 0-1.37-.58 1.56 1.56 0 0 0-1.38.63 3.1 3.1 0 0 0-.44 1.78v5.5H237v-9.45h1.87v.92a2.33 2.33 0 0 1 .94-.82 2.79 2.79 0 0 1 1.32-.29 3.12 3.12 0 0 1 1.59.35 2.6 2.6 0 0 1 1 1 4.4 4.4 0 0 1 .54-.59 3.1 3.1 0 0 1 .62-.43 3.06 3.06 0 0 1 .77-.28 4.1 4.1 0 0 1 1-.1 2.87 2.87 0 0 1 2.46 1.06 5.25 5.25 0 0 1 .8 3.17v5.46zm-13.36-7.48a2.89 2.89 0 0 0-.63-.26 3 3 0 0 0-.79-.09 1.66 1.66 0 0 0-1.37.62 2.88 2.88 0 0 0-.48 1.81v5.4h-1.88v-9.45h1.88v.9a2.62 2.62 0 0 1 2.16-1.09 3.56 3.56 0 0 1 .94.1 2 2 0 0 1 .66.29zm-7.76 4.81a4.4 4.4 0 0 1-.88 1.57 3.82 3.82 0 0 1-1.35 1 4.25 4.25 0 0 1-1.69.33 3.9 3.9 0 0 1-1.65-.35 3.79 3.79 0 0 1-1.31-.98 4.77 4.77 0 0 1-.87-1.55 6.57 6.57 0 0 1 0-4.08 4.58 4.58 0 0 1 .89-1.56 3.84 3.84 0 0 1 1.33-1 4.18 4.18 0 0 1 1.67-.33 4 4 0 0 1 3 1.33 4.38 4.38 0 0 1 .88 1.54 6 6 0 0 1 .32 2 6.25 6.25 0 0 1-.34 2.08zm-2.18-4.35a2.11 2.11 0 0 0-1.78-.86 1.93 1.93 0 0 0-1.66.86 4.65 4.65 0 0 0 0 4.64 2.11 2.11 0 0 0 1.71.82 2 2 0 0 0 1-.25 2.52 2.52 0 0 0 .74-.68 3 3 0 0 0 .46-1 4.39 4.39 0 0 0 .17-1.22 3.81 3.81 0 0 0-.64-2.31zm-8.22-4.42a1 1 0 0 0-.67.19 1.05 1.05 0 0 0-.19.72v1.08h1.74v1.73h-1.74v7.72h-1.88v-7.72h-1.22v-1.73h1.22v-1.24a3 3 0 0 1 .19-1.1 2 2 0 0 1 .52-.73 1.93 1.93 0 0 1 .77-.42 3.51 3.51 0 0 1 .94-.12 5.79 5.79 0 0 1 .72 0 4.07 4.07 0 0 1 .68.14v1.62a3.91 3.91 0 0 0-1.08-.14zm-5.65 11.21a3 3 0 0 1-.8.31 4.08 4.08 0 0 1-1 .12 2 2 0 0 1-1.56-.61 2.7 2.7 0 0 1-.56-1.89v-5.45h-1.35v-1.7h1.35v-2.65l1.81-1v3.67H211v1.7h-2.3v5.13a1.34 1.34 0 0 0 .23.9 1 1 0 0 0 .75.23 2.37 2.37 0 0 0 .73-.12 2.34 2.34 0 0 0 .63-.26zm-9 .23v-.93a4.57 4.57 0 0 1-1.15.81 3.37 3.37 0 0 1-1.44.32 4 4 0 0 1-1.17-.17 2.94 2.94 0 0 1-1-.55 2.73 2.73 0 0 1-.76-1 3.32 3.32 0 0 1-.3-1.47 3 3 0 0 1 .29-1.37 2.63 2.63 0 0 1 .79-1 3.43 3.43 0 0 1 1.19-.55 5.8 5.8 0 0 1 1.49-.18 5.23 5.23 0 0 1 2.11.36v-.71a1.52 1.52 0 0 0-.46-1.18 1.9 1.9 0 0 0-1.32-.42 5.35 5.35 0 0 0-1.33.15 4.23 4.23 0 0 0-1.14.45l-.72-1.41a6.14 6.14 0 0 1 1.46-.63 6.79 6.79 0 0 1 1.78-.21 4 4 0 0 1 2.56.78 2.85 2.85 0 0 1 1 2.38v6.53zm0-4a3.44 3.44 0 0 0-.89-.3 5.82 5.82 0 0 0-1.27-.11 2.3 2.3 0 0 0-1.42.38 1.19 1.19 0 0 0-.53 1 1.51 1.51 0 0 0 .45 1.14 2 2 0 0 0 1.37.43 2.51 2.51 0 0 0 1.36-.38 3.31 3.31 0 0 0 .93-.83zm-10.1 4v-12.1l1.87-1v13.1zm-2.56-6.94a3.41 3.41 0 0 1-.86 1.24 3.58 3.58 0 0 1-1.32.75 5.28 5.28 0 0 1-1.68.26H182v4.69h-1.87v-12.6h5.27a4.94 4.94 0 0 1 1.61.26 3.44 3.44 0 0 1 1.29.74 3.32 3.32 0 0 1 .84 1.24 4.31 4.31 0 0 1 .31 1.71 4.38 4.38 0 0 1-.28 1.71zm-2.17-3.32a2.18 2.18 0 0 0-1.57-.55H182v4.33h3.37a2.13 2.13 0 0 0 1.62-.57 2.3 2.3 0 0 0 .53-1.6 2.13 2.13 0 0 0-.52-1.61zm-14.35 2.78a2.89 2.89 0 0 0-.63-.26 3 3 0 0 0-.79-.09 1.64 1.64 0 0 0-1.37.62 2.87 2.87 0 0 0-.49 1.81v5.4h-1.87v-9.45h1.87v.9a2.65 2.65 0 0 1 .9-.78 2.53 2.53 0 0 1 1.26-.31 3.59 3.59 0 0 1 .95.1 2.07 2.07 0 0 1 .66.29zm-7.47 3.05v.37h-6.28a3.86 3.86 0 0 0 .29 1.17 2.45 2.45 0 0 0 .54.8 2 2 0 0 0 .72.46 2.1 2.1 0 0 0 .82.16 2.94 2.94 0 0 0 1.09-.2 4.19 4.19 0 0 0 1-.56l1.09 1.19a4.59 4.59 0 0 1-1.45.94 4.9 4.9 0 0 1-1.85.32 4 4 0 0 1-1.58-.32 3.7 3.7 0 0 1-1.3-1 4.55 4.55 0 0 1-.89-1.54 6.46 6.46 0 0 1-.32-2.09 6.59 6.59 0 0 1 .31-2.13 4.33 4.33 0 0 1 .84-1.53 3.54 3.54 0 0 1 1.31-.95 4.19 4.19 0 0 1 1.68-.32 3.9 3.9 0 0 1 1.76.37 3.76 3.76 0 0 1 1.24 1 4.63 4.63 0 0 1 .74 1.51 6.78 6.78 0 0 1 .24 1.82c.02.22.01.38 0 .53zm-2-2.08a2.23 2.23 0 0 0-.41-.76 1.9 1.9 0 0 0-.67-.51 2.27 2.27 0 0 0-1-.19 1.89 1.89 0 0 0-1.48.62 3.14 3.14 0 0 0-.68 1.76h4.4a4.41 4.41 0 0 0-.18-.92zM153 71.128v-5.33a3 3 0 0 0-.51-2 1.81 1.81 0 0 0-1.42-.58 1.75 1.75 0 0 0-1.44.63 2.81 2.81 0 0 0-.5 1.78v5.5h-1.87v-9.45h1.87v.92a2.32 2.32 0 0 1 1-.82 3.22 3.22 0 0 1 1.38-.29 3 3 0 0 1 2.49 1.06 5 5 0 0 1 .85 3.17v5.41zm-8.64-11.02a1.14 1.14 0 0 1-.83.35 1.18 1.18 0 0 1-.86-.35 1.15 1.15 0 0 1-.35-.84 1.17 1.17 0 0 1 .35-.85 1.14 1.14 0 0 1 .86-.35 1.1 1.1 0 0 1 .83.35 1.13 1.13 0 0 1 .35.85 1.11 1.11 0 0 1-.35.84zm-1.77 11v-9.43h1.87v9.45zm-4.59.02v-.93a4.57 4.57 0 0 1-1.15.81 3.37 3.37 0 0 1-1.44.32 3.88 3.88 0 0 1-1.16-.17 3 3 0 0 1-1.06-.55 2.84 2.84 0 0 1-.76-1 3.32 3.32 0 0 1-.3-1.47 3 3 0 0 1 .29-1.37 2.74 2.74 0 0 1 .79-1 3.43 3.43 0 0 1 1.19-.55 5.8 5.8 0 0 1 1.49-.18 5.23 5.23 0 0 1 2.11.36v-.71a1.49 1.49 0 0 0-.46-1.18 1.9 1.9 0 0 0-1.32-.42 5.35 5.35 0 0 0-1.33.15 4.23 4.23 0 0 0-1.14.45l-.72-1.41a6.32 6.32 0 0 1 1.46-.63 6.79 6.79 0 0 1 1.78-.21 4 4 0 0 1 2.57.78 2.88 2.88 0 0 1 1 2.38v6.53zm0-4a3.44 3.44 0 0 0-.89-.3 5.76 5.76 0 0 0-1.27-.11 2.3 2.3 0 0 0-1.42.38 1.19 1.19 0 0 0-.53 1 1.51 1.51 0 0 0 .45 1.14 2 2 0 0 0 1.37.43 2.51 2.51 0 0 0 1.36-.38 3.31 3.31 0 0 0 .93-.83zm-7.87 3.77a2.78 2.78 0 0 1-.8.31 3.94 3.94 0 0 1-1 .12 2 2 0 0 1-1.56-.61 2.7 2.7 0 0 1-.57-1.89v-5.45h-1.35v-1.7h1.35v-2.65l1.8-1v3.67h2.34v1.7H128v5.13a1.4 1.4 0 0 0 .22.9 1.05 1.05 0 0 0 .75.23 2.43 2.43 0 0 0 .74-.12 2.66 2.66 0 0 0 .63-.26zm-8.94.23v-5.33a3 3 0 0 0-.51-2 1.83 1.83 0 0 0-1.43-.58 1.71 1.71 0 0 0-1.43.63 2.81 2.81 0 0 0-.5 1.78v5.5h-1.87v-9.45h1.87v.92a2.26 2.26 0 0 1 1-.82 3.15 3.15 0 0 1 1.37-.29 3 3 0 0 1 2.52 1.06 5 5 0 0 1 .85 3.17v5.41zm-8.35-2.67a4.72 4.72 0 0 1-.9 1.57 4 4 0 0 1-1.35 1 4.28 4.28 0 0 1-1.69.33 3.84 3.84 0 0 1-3-1.35 4.77 4.77 0 0 1-.87-1.55 6.76 6.76 0 0 1 0-4.08 4.75 4.75 0 0 1 .89-1.56 3.84 3.84 0 0 1 1.33-1 4.18 4.18 0 0 1 1.67-.33 4 4 0 0 1 3 1.33 4.39 4.39 0 0 1 .89 1.54 6 6 0 0 1 .31 2 6.52 6.52 0 0 1-.28 2.1zm-2.19-4.35a2.1 2.1 0 0 0-1.77-.86 1.93 1.93 0 0 0-1.67.86 3.84 3.84 0 0 0-.6 2.25 3.74 3.74 0 0 0 .65 2.39 2.09 2.09 0 0 0 1.71.82 2 2 0 0 0 1-.25 2.52 2.52 0 0 0 .74-.68 3.19 3.19 0 0 0 .47-1 4.79 4.79 0 0 0 .16-1.22 3.75 3.75 0 0 0-.69-2.31zm-9.34 6.6a5.18 5.18 0 0 1-2.55.62 5 5 0 0 1-2.2-.47 4.78 4.78 0 0 1-1.68-1.35 6.24 6.24 0 0 1-1.07-2.05 9.22 9.22 0 0 1 0-5.24 6.34 6.34 0 0 1 1.07-2.07 4.87 4.87 0 0 1 1.68-1.34 5 5 0 0 1 2.2-.47 5.12 5.12 0 0 1 2.59.6 4.52 4.52 0 0 1 1.65 1.75l-1.67 1.05a3.47 3.47 0 0 0-1.06-1.14 2.82 2.82 0 0 0-1.55-.37 2.88 2.88 0 0 0-2.52 1.24 5.77 5.77 0 0 0-.86 3.36 5.78 5.78 0 0 0 .86 3.37 2.88 2.88 0 0 0 2.52 1.24 3.14 3.14 0 0 0 1.68-.41 3.63 3.63 0 0 0 1.13-1.17l1.57 1a4.73 4.73 0 0 1-1.79 1.85zm184.21-39.82a1.94 1.94 0 0 1-.46.69 1.92 1.92 0 0 1-.69.45 2.24 2.24 0 0 1-1.71 0 2 2 0 0 1-.69-.45 2.06 2.06 0 0 1-.45-.69 2.24 2.24 0 0 1 0-1.71 2.06 2.06 0 0 1 .45-.69 2.28 2.28 0 0 1 2.4-.46 2.09 2.09 0 0 1 .69.46 1.94 1.94 0 0 1 .46.69 2.36 2.36 0 0 1 0 1.71zm-.32-1.57a1.8 1.8 0 0 0-.39-.58 1.69 1.69 0 0 0-.58-.39 2 2 0 0 0-1.43 0 1.8 1.8 0 0 0-.58.39 1.77 1.77 0 0 0-.38.58 1.9 1.9 0 0 0 0 1.43 1.7 1.7 0 0 0 1 1 1.9 1.9 0 0 0 1.43 0 1.67 1.67 0 0 0 .58-.38 1.8 1.8 0 0 0 .39-.58 2 2 0 0 0 0-1.43zm-.84.66a.64.64 0 0 1-.36.24l.48.95H284l-.46-.91h-.45v.91h-.41v-2.36h1a.92.92 0 0 1 .29 0 .66.66 0 0 1 .25.13.62.62 0 0 1 .17.22.79.79 0 0 1 .06.32.74.74 0 0 1-.09.55zm-.37-.7a.46.46 0 0 0-.27-.08h-.62v.67h.62a.4.4 0 0 0 .27-.08.3.3 0 0 0 .11-.25.32.32 0 0 0-.1-.26zm-12.16 1.21v22.64H269v-22.64h-7.4v-2.56h17.64v2.56zm-25.6 0v8.35h6.92v2.56h-6.92v11.73h-2.81v-25.2h14.8v2.56zm-12.42 22.64v-25.2h2.81v25.2zm-9.61 0v-11.88h-12.53v11.88h-2.81v-25.2h2.81v10.77h12.53v-10.77h2.8v25.2zm-21.72-3.85a6.13 6.13 0 0 1-1.64 2.23 7.9 7.9 0 0 1-2.63 1.52 10.68 10.68 0 0 1-3.53.54 11.38 11.38 0 0 1-4.77-1 12.43 12.43 0 0 1-3.69-2.5l1.87-2.09a13.21 13.21 0 0 0 3.1 2.2 7.93 7.93 0 0 0 3.6.82 6.24 6.24 0 0 0 4-1.15 3.82 3.82 0 0 0 1.46-3.17 4.27 4.27 0 0 0-.29-1.58 3.48 3.48 0 0 0-1-1.33 9.51 9.51 0 0 0-1.86-1.21 22.28 22.28 0 0 0-2.88-1.2 25.39 25.39 0 0 1-3.43-1.46 9.2 9.2 0 0 1-2.24-1.59 5.08 5.08 0 0 1-1.22-1.89 7.09 7.09 0 0 1-.38-2.41 5.91 5.91 0 0 1 2.18-4.73 6.86 6.86 0 0 1 2.48-1.28 11.32 11.32 0 0 1 3.23-.43 11.48 11.48 0 0 1 4.3.72 13.37 13.37 0 0 1 3.36 2l-1.8 2.19a11.14 11.14 0 0 0-2.75-1.74 8.23 8.23 0 0 0-3.29-.6 7.39 7.39 0 0 0-2.24.31 4.44 4.44 0 0 0-1.53.81 3.12 3.12 0 0 0-.86 1.17 3.74 3.74 0 0 0-.27 1.42 4.19 4.19 0 0 0 .22 1.42 3 3 0 0 0 .86 1.23 8.2 8.2 0 0 0 1.82 1.17 31.65 31.65 0 0 0 3.08 1.26 26.83 26.83 0 0 1 3.49 1.51 8.88 8.88 0 0 1 2.24 1.59 5.38 5.38 0 0 1 1.2 2 7.81 7.81 0 0 1 .36 2.48 7 7 0 0 1-.55 2.77zm-24.18 3.85l-11-17.24c-.15-.22-.3-.47-.47-.77l-.5-.9c-.17-.3-.33-.59-.49-.85a6.07 6.07 0 0 1-.34-.65v20.41h-2.73v-25.2h2.73l10.91 17.57c.14.22.3.48.47.78l.5.9c.17.3.33.58.49.84a7.19 7.19 0 0 1 .34.65v-20.74H181v25.2zm-36.65 0v-25.2h15.23v2.56h-12.42v7.92h7.2v2.56h-7.2v9.61h13v2.55zm-5.41-14.34a6.94 6.94 0 0 1-1.75 2.45 7.37 7.37 0 0 1-2.7 1.49 11.26 11.26 0 0 1-3.46.5h-6.12v9.9h-2.8v-25.2h9.43a10.72 10.72 0 0 1 3.18.45 7 7 0 0 1 2.54 1.39 6.29 6.29 0 0 1 1.69 2.36 8.35 8.35 0 0 1 .62 3.33 8.31 8.31 0 0 1-.63 3.33zm-3.55-7a5.51 5.51 0 0 0-4-1.31h-6.52v10.2h6.16c3.79 0 5.69-1.71 5.69-5.11a5 5 0 0 0-1.33-3.77zm-19.58 13.95a12.6 12.6 0 0 1-2.11 4.12 9.88 9.88 0 0 1-3.33 2.7 9.38 9.38 0 0 1-4.28 1 9.33 9.33 0 0 1-7.56-3.64 12.51 12.51 0 0 1-2.1-4.1 17.24 17.24 0 0 1-.73-5.25 17.46 17.46 0 0 1 .75-5.24 12.76 12.76 0 0 1 2.13-4.12 9.71 9.71 0 0 1 3.31-2.7 9.41 9.41 0 0 1 4.28-1 9.36 9.36 0 0 1 7.53 3.66 13 13 0 0 1 2.13 4.11 17.23 17.23 0 0 1 .75 5.22 17.51 17.51 0 0 1-.77 5.24zm-2.65-9.47a10.57 10.57 0 0 0-1.64-3.31 7.17 7.17 0 0 0-2.45-2.13 6.47 6.47 0 0 0-3.06-.74 6.29 6.29 0 0 0-3 .74 7.22 7.22 0 0 0-2.4 2.09 10.32 10.32 0 0 0-1.58 3.28 15.06 15.06 0 0 0-.58 4.3 14.42 14.42 0 0 0 .6 4.3 10.65 10.65 0 0 0 1.65 3.31 7.13 7.13 0 0 0 2.43 2.13 6.46 6.46 0 0 0 3.06.73 6.39 6.39 0 0 0 3-.73 7.3 7.3 0 0 0 2.42-2.09 10.54 10.54 0 0 0 1.58-3.28 15.12 15.12 0 0 0 .57-4.3 14.42 14.42 0 0 0-.6-4.3zm100.08-27.03a2.06 2.06 0 0 1-.45.69 2.31 2.31 0 0 1-.69.46 2.39 2.39 0 0 1-.86.16 2.43 2.43 0 0 1-.86-.16 2.15 2.15 0 0 1-.68-.46 1.94 1.94 0 0 1-.46-.69 2.2 2.2 0 0 1-.16-.86 2.18 2.18 0 0 1 .16-.85 1.94 1.94 0 0 1 .46-.69 2.15 2.15 0 0 1 .68-.46 2.23 2.23 0 0 1 .86-.16 2.2 2.2 0 0 1 .86.16 2.31 2.31 0 0 1 .69.46 2.06 2.06 0 0 1 .45.69 2.24 2.24 0 0 1 0 1.71zm-.32-1.57a1.77 1.77 0 0 0-.38-.58 1.91 1.91 0 0 0-.58-.39 2.06 2.06 0 0 0-1.44 0 1.75 1.75 0 0 0-.57.39 1.65 1.65 0 0 0-.39.58 1.9 1.9 0 0 0 0 1.43 1.65 1.65 0 0 0 .39.58 1.88 1.88 0 0 0 2 .38 1.88 1.88 0 0 0 .58-.38 1.77 1.77 0 0 0 .38-.58 1.9 1.9 0 0 0 0-1.43zm-.83.66a.67.67 0 0 1-.37.24l.49 1H209l-.46-.91h-.46v.91h-.4v-2.41h1a1 1 0 0 1 .3 0 .75.75 0 0 1 .25.13.73.73 0 0 1 .16.22.79.79 0 0 1 .07.32.74.74 0 0 1-.07.5zm-.39-.7a.5.5 0 0 0-.27-.08h-.63v.67h.63a.43.43 0 0 0 .27-.08.29.29 0 0 0 .1-.25.31.31 0 0 0-.1-.26zm-9.4 2.76v12.74H195v-12.74h-4.71v-4.06h14.07v4.06zm-14.54 12.74l-.91-3h-5l-.92 3h-5l6.1-16.8H184l6.1 16.8zm-2.35-7.75l-.39-1.41-.32-1.08c-.09-.32-.16-.62-.23-.88s-.12-.54-.16-.83c0 .29-.11.57-.17.84-.06.27-.14.57-.23.89l-.28 1.12c-.11.4-.24.86-.38 1.39l-.32 1.11H183zm-17.38 7.75v-6.62h-5.23v6.62h-4.75v-16.8h4.75v6.12h5.23v-6.12h4.75v16.8zm-22.73-4.5a6 6 0 0 1-1.73 2.62 7 7 0 0 1-2.87 1.44 15.39 15.39 0 0 1-3.92.44h-5.45v-16.8h5.88a14.59 14.59 0 0 1 3.57.41 6.48 6.48 0 0 1 2.73 1.38 6.41 6.41 0 0 1 1.73 2.56 11.21 11.21 0 0 1 .61 4 11.84 11.84 0 0 1-.55 3.95zm-4.4-5.91a3.31 3.31 0 0 0-.66-1.37 2.79 2.79 0 0 0-1.2-.78 5.74 5.74 0 0 0-1.83-.25h-1.15v8.83h1a6.62 6.62 0 0 0 1.85-.23 2.84 2.84 0 0 0 1.26-.74 3.08 3.08 0 0 0 .71-1.37 9 9 0 0 0 .21-2.1 8.85 8.85 0 0 0-.19-1.99zm-26.27 10.41v-16.8h12.86v3.92h-8.25v2.25h5v3.84h-5v2.88H125v3.91zm-8.72 0l-2.75-5.66h-1.87v5.66H94v-16.8h7.51a11.07 11.07 0 0 1 2.67.3 5.77 5.77 0 0 1 2.08.95 4.2 4.2 0 0 1 1.33 1.69 6.23 6.23 0 0 1 .47 2.54 5.34 5.34 0 0 1-.82 3.09 5.17 5.17 0 0 1-2.21 1.83l3.37 6.4zm-.21-12.5a2.08 2.08 0 0 0-1.58-.5h-2.83v3.67h2.75a2.3 2.3 0 0 0 1.66-.48 1.89 1.89 0 0 0 .48-1.39 1.85 1.85 0 0 0-.48-1.3z" id="path92" fill="#fff"/></svg>