<svg xmlns="http://www.w3.org/2000/svg" height="113.415" width="521.341" data-name="Layer 1" id="Layer_1"><defs id="defs4"><style id="style2"></style></defs><path d="M212.979 77.363h-9.408V89.89h8.928c4.99 0 7.341-2.064 7.341-6.287 0-4.128-2.399-6.24-6.861-6.24zm2.688 15.599l7.389 14.59h-4.319l-7.198-14.303h-7.968v14.302h-3.743V73.956h13.293c5.904 0 10.463 3.023 10.463 9.502 0 5.232-3.119 8.495-7.917 9.504m-44.014 14.59V73.955h20.302v3.407h-16.559v10.559h9.6v3.408h-9.6v12.814h17.277v3.407h-21.02m-19.49.528c-8.207 0-13.583-7.439-13.583-17.278 0-9.982 5.616-17.373 13.727-17.373 4.608 0 8.062 1.728 10.702 5.375l-2.976 2.256c-2.158-2.928-4.174-4.224-7.822-4.224-5.76 0-9.887 5.712-9.887 13.87 0 8.207 4.32 13.966 9.935 13.966 5.616 0 8.686-3.454 8.686-10.03v-.287h-6.048v-3.456h9.696v3.263c0 9.263-5.326 13.918-12.43 13.918m-29.854-23.517c-.766-2.207-1.728-5.231-2.064-6.622-.336 1.343-1.296 4.367-2.11 6.718l-3.696 10.943h11.565zm7.728 22.99l-2.88-8.543h-13.87l-2.928 8.542h-3.839l11.661-33.595h4.128l11.663 33.595h-3.935m-33.984 0L81.367 84.562c-.72-1.152-1.968-3.36-2.4-4.223v27.212h-3.6V73.956h3.648l14.542 23.421c.72 1.151 1.967 3.36 2.4 4.223V73.956h3.6v33.595h-3.504m-39.31-22.989c-.769-2.207-1.728-5.231-2.065-6.622-.335 1.343-1.296 4.367-2.112 6.718l-3.695 10.943h11.566zm7.726 22.99l-2.88-8.543H47.72l-2.927 8.542h-3.84l11.663-33.595h4.127l11.662 33.595H64.47m-34.08 0V81.203c-.336 1.296-1.296 3.791-2.016 5.567l-8.975 21.645-8.83-21.645c-.72-1.727-1.633-4.271-1.969-5.567v26.349H5V73.955h4.176l7.918 20.11c.816 2.016 2.016 5.134 2.4 6.526.433-1.439 1.632-4.559 2.4-6.526l8.015-20.11h4.079v33.595h-3.6m482.45-40l-14.686-22.989c-.719-1.152-1.968-3.36-2.399-4.223V67.55h-3.6V33.956h3.647l14.543 23.421c.72 1.152 1.968 3.36 2.4 4.224V33.956h3.598V67.55h-3.504m-42.14-30.716c-5.808 0-10.08 5.424-10.08 13.87 0 8.448 4.416 13.967 10.272 13.967 5.807 0 10.127-5.423 10.127-13.87s-4.463-13.967-10.319-13.967zm.048 31.245c-8.352 0-13.87-7.151-13.87-17.279 0-10.126 5.616-17.373 13.965-17.373 8.352 0 13.92 7.151 13.92 17.278 0 10.126-5.664 17.374-14.015 17.374M445.5 67.55V33.956h3.742V67.55H445.5M428.6 37.363v30.188h-3.744V37.363h-9.886v-3.407h23.517v3.407h-9.887m-26.546 7.2c-.768-2.208-1.728-5.232-2.064-6.623-.336 1.343-1.296 4.367-2.111 6.718l-3.697 10.943h11.566zm7.726 22.988l-2.88-8.542h-13.869l-2.928 8.542h-3.839l11.662-33.595h4.128l11.662 33.595h-3.936m-34.08 0V41.203c-.336 1.296-1.297 3.791-2.016 5.567l-8.974 21.646-8.831-21.646c-.72-1.727-1.632-4.271-1.968-5.567v26.349h-3.6V33.955h4.176l7.919 20.11c.816 2.015 2.016 5.135 2.4 6.527.43-1.44 1.632-4.56 2.4-6.527l8.014-20.11h4.079V67.55h-3.599m-46.845-30.716c-5.807 0-10.079 5.424-10.079 13.87 0 8.448 4.415 13.967 10.271 13.967 5.807 0 10.127-5.423 10.127-13.87s-4.463-13.967-10.319-13.967zm.048 31.245c-8.35 0-13.87-7.151-13.87-17.279 0-10.126 5.615-17.373 13.966-17.373 8.35 0 13.919 7.151 13.919 17.278 0 10.126-5.664 17.374-14.015 17.374m-27.74-30.717v30.188h-3.744V37.363h-9.887v-3.407h23.518v3.407h-9.887m-32.21 30.717c-8.013 0-12.14-4.848-12.14-14.159V33.956h3.742v19.869c0 7.247 2.784 10.847 8.592 10.847 5.807 0 8.11-3.504 8.11-10.75V33.955h3.743v19.869c0 9.311-3.982 14.255-12.046 14.255m-29.52-23.518c-.767-2.207-1.728-5.231-2.064-6.622-.336 1.343-1.296 4.367-2.111 6.718l-3.697 10.943h11.566zm7.728 22.99l-2.882-8.543h-13.869l-2.928 8.542h-3.839l11.662-33.595h4.128l11.662 33.595h-3.934m-53.039.529c-4.559 0-8.637-1.969-11.279-4.656l2.496-2.784c2.546 2.448 5.472 4.032 8.928 4.032 4.463 0 7.247-2.207 7.247-5.76 0-3.119-1.872-4.895-8.015-7.103-7.248-2.591-9.696-4.943-9.696-9.79 0-5.376 4.224-8.59 10.512-8.59 4.511 0 7.391 1.343 10.223 3.599l-2.4 2.927c-2.448-2.015-4.703-3.12-8.064-3.12-4.607 0-6.527 2.304-6.527 4.944 0 2.783 1.248 4.367 7.967 6.767 7.439 2.688 9.744 5.183 9.744 10.175 0 5.279-4.128 9.359-11.136 9.359m-27.843 0c-4.558 0-8.637-1.969-11.278-4.656l2.497-2.784c2.543 2.448 5.47 4.032 8.927 4.032 4.462 0 7.246-2.207 7.246-5.76 0-3.119-1.872-4.895-8.014-7.103-7.248-2.591-9.696-4.943-9.696-9.79 0-5.376 4.224-8.59 10.512-8.59 4.51 0 7.39 1.343 10.222 3.599l-2.4 2.927c-2.448-2.015-4.702-3.12-8.064-3.12-4.606 0-6.526 2.304-6.526 4.944 0 2.783 1.248 4.367 7.966 6.767 7.439 2.688 9.744 5.183 9.744 10.175 0 5.279-4.128 9.359-11.136 9.359m-37.102-.529V33.956h20.302v3.407h-16.558v10.559h9.598v3.408h-9.598v12.814H150.2v3.407h-21.021m-18.002.529c-8.206 0-13.581-7.44-13.581-17.279 0-9.982 5.614-17.373 13.727-17.373 4.606 0 8.062 1.728 10.701 5.375l-2.975 2.256c-2.16-2.928-4.176-4.224-7.824-4.224-5.758 0-9.886 5.712-9.886 13.87 0 8.208 4.27 13.967 9.936 13.967 3.646 0 6.142-1.632 8.301-4.415l2.592 2.255c-2.447 3.312-6.095 5.568-10.99 5.568m-33.6-31.245c-5.807 0-10.079 5.424-10.079 13.87 0 8.448 4.416 13.967 10.27 13.967 5.808 0 10.127-5.423 10.127-13.87s-4.463-13.967-10.318-13.967zm.048 31.245c-8.35 0-13.87-7.151-13.87-17.279 0-10.126 5.615-17.373 13.966-17.373 8.35 0 13.918 7.151 13.918 17.278 0 10.126-5.663 17.374-14.014 17.374M47.815 37.363h-9.407V49.89h8.927c4.991 0 7.343-2.063 7.343-6.287 0-4.128-2.4-6.24-6.863-6.24zm2.687 15.599l7.391 14.59h-4.32l-7.198-14.303h-7.967v14.302h-3.744V33.956h13.294c5.904 0 10.463 3.023 10.463 9.502 0 5.232-3.12 8.495-7.919 9.504M17.43 37.363H8.743v13.582h8.208c5.135 0 7.583-2.351 7.583-6.815 0-4.319-2.497-6.767-7.104-6.767zm-.527 16.99h-8.16v13.198H5V33.956h12.575c6.095 0 10.702 3.215 10.702 10.03 0 6.672-4.655 10.367-11.374 10.367M157.957 6.775h-.832v.896h.832c.288 0 .503-.136.503-.448 0-.296-.215-.448-.503-.448zm.376 1.36l.648 1.27h-.633l-.615-1.215h-.608v1.216h-.534v-3.15h1.382c.56 0 1.031.295 1.031.951 0 .496-.264.808-.67.927zm-.648-2.672c-1.374 0-2.422 1.048-2.422 2.424 0 1.375 1.048 2.422 2.422 2.422 1.375 0 2.423-1.047 2.423-2.422 0-1.376-1.048-2.424-2.423-2.424zm0 5.31c-1.638 0-2.886-1.248-2.886-2.886 0-1.64 1.248-2.887 2.886-2.887 1.64 0 2.887 1.247 2.887 2.887 0 1.638-1.247 2.886-2.887 2.886m-11.916-.215v16.993h-6.209V10.558h-6.273V5.15h18.754v5.408h-6.272m-22.529 6.657c-.8-2.88-1.152-4.096-1.44-5.601-.29 1.505-.64 2.753-1.44 5.601l-.416 1.472h3.712zm3.136 10.336l-1.216-3.935h-6.72l-1.217 3.935h-6.656l8.129-22.401h6.272l8.13 22.401h-6.722m-26.304 0V18.72h-6.976v8.832h-6.337V5.15h6.337v8.16h6.976V5.15h6.337v22.401h-6.337M58.984 10.462h-1.536V22.24h1.344c3.873 0 5.377-1.472 5.377-5.92 0-4.129-1.312-5.857-5.185-5.857zm-.543 17.09h-7.265V5.15h7.84c7.041 0 11.521 2.656 11.521 11.073S66.377 27.55 58.441 27.55m-29.569 0V5.15h17.154v5.216h-11.01v2.977h6.625v5.152h-6.624v3.84H46.25v5.216H28.872M14.857 10.206h-3.743v4.897h3.647c2.017 0 2.817-.896 2.817-2.497 0-1.408-.768-2.4-2.72-2.4zm2.4 17.345L13.61 20h-2.495v7.552H5V5.15h10.017c5.248 0 8.737 1.984 8.737 7.296 0 3.36-1.568 5.44-4.033 6.56l4.48 8.545h-6.944" id="path932" fill="#fff" stroke-width=".133"/></svg>