<?xml version="1.0" encoding="UTF-8" standalone="no"?>
<svg
   xmlns:dc="http://purl.org/dc/elements/1.1/"
   xmlns:cc="http://creativecommons.org/ns#"
   xmlns:rdf="http://www.w3.org/1999/02/22-rdf-syntax-ns#"
   xmlns:svg="http://www.w3.org/2000/svg"
   xmlns="http://www.w3.org/2000/svg"
   xmlns:sodipodi="http://sodipodi.sourceforge.net/DTD/sodipodi-0.dtd"
   xmlns:inkscape="http://www.inkscape.org/namespaces/inkscape"
   viewBox="0 0 30 30"
   width="30"
   height="30"
   id="svg7"
   version="1.1"
   inkscape:version="0.91+devel+osxmenu r12922"
   sodipodi:docname="platform-thin.svg">
  <metadata
     id="metadata17">
    <rdf:RDF>
      <cc:Work
         rdf:about="">
        <dc:format>image/svg+xml</dc:format>
        <dc:type
           rdf:resource="http://purl.org/dc/dcmitype/StillImage" />
        <dc:title></dc:title>
      </cc:Work>
    </rdf:RDF>
  </metadata>
  <defs
     id="defs15" />
  <sodipodi:namedview
     pagecolor="#ffffff"
     bordercolor="#666666"
     borderopacity="1"
     objecttolerance="10"
     gridtolerance="10"
     guidetolerance="10"
     inkscape:pageopacity="0"
     inkscape:pageshadow="2"
     inkscape:window-width="1788"
     inkscape:window-height="966"
     id="namedview13"
     showgrid="false"
     inkscape:zoom="9.2961"
     inkscape:cx="2.2712"
     inkscape:cy="7.7197"
     inkscape:window-x="0"
     inkscape:window-y="23"
     inkscape:window-maximized="0"
     inkscape:current-layer="svg7"
     showguides="true"
     inkscape:guide-bbox="true" />
  <style
     id="style8156"
     type="text/css"> .st0{fill:#A30000;} .st1{fill:#CC0000;} .st2{fill:#820000;}
</style>
  <style
     id="style8245"
     type="text/css"> .st0{fill:#A30000;} .st1{fill:#CC0000;} .st2{fill:#820000;}
</style>
  <g
     id="g8306"
     transform="matrix(0.1292,0,0,0.1292,-11.015,4.8652)"
     style="fill:#cc0000;fill-opacity:1;stroke-width:7.73996">
    <g
       id="g8372"
       transform="matrix(1.8128,0,0,1.8128,95.672,-18.656)"
       style="fill:#cc0000;fill-opacity:1;stroke-width:4.2696">
      <path
         style="fill:#cc0000;fill-opacity:1;stroke-width:4.2696"
         inkscape:connector-curvature="0"
         class="st0"
         d="m 33.9,48 -18.7,6.8 c 0.2,3 0.7,6 1.5,8.9 l 17.8,-6.5 c -0.7,-3 -0.9,-6.1 -0.6,-9.2"
         id="path8249" />
      <path
         style="fill:#cc0000;fill-opacity:1;stroke-width:4.2696"
         inkscape:connector-curvature="0"
         class="st0"
         d="M 116.6,27.3 C 115.3,24.6 113.8,22 112,19.5 l -18.7,6.8 c 2.2,2.2 4,4.7 5.5,7.4 l 17.8,-6.4 z"
         id="path8251" />
      <path
         style="fill:#cc0000;fill-opacity:1;stroke-width:4.2696"
         inkscape:connector-curvature="0"
         class="st1"
         d="m 75.4,22 c 3.8,1.8 7.2,4.2 10.1,7.2 l 18.7,-6.8 C 87.1,-1.6 53.7,-7.2 29.6,9.9 14.3,20.8 5.9,39 7.3,57.7 L 26,50.9 c 1.4,-19.1 18.1,-33.5 37.2,-32 4.2,0.2 8.4,1.3 12.2,3.1"
         id="path8253" />
      <path
         style="fill:#cc0000;fill-opacity:1;stroke-width:4.2696"
         inkscape:connector-curvature="0"
         class="st1"
         d="M 17.8,63.3 0,69.8 c 1.6,6.5 4.5,12.7 8.4,18.1 L 27,81.1 C 22.3,76.2 19.1,70 17.8,63.3"
         id="path8255" />
      <path
         style="fill:#cc0000;fill-opacity:1;stroke-width:4.2696"
         inkscape:connector-curvature="0"
         class="st1"
         d="M 95.4,56.2 C 95.1,60.4 94,64.4 92.3,68.2 84.1,85.6 63.5,93.2 46,85.1 42.2,83.3 38.8,80.9 35.9,77.9 l -18.7,6.8 c 5.3,7.5 12.5,13.5 20.8,17.4 26.8,12.5 58.7,0.9 71.2,-25.9 3.9,-8.3 5.6,-17.6 4.8,-26.7 l -18.6,6.7 z"
         id="path8257" />
      <path
         style="fill:#cc0000;fill-opacity:1;stroke-width:4.2696"
         inkscape:connector-curvature="0"
         class="st1"
         d="m 100.1,33.4 -17.8,6.5 c 3.3,6 4.9,12.8 4.4,19.6 l 18.7,-6.8 C 104.8,46 103,39.4 100.1,33.4"
         id="path8259" />
      <path
         style="fill:#cc0000;fill-opacity:1;stroke-width:4.2696"
         inkscape:connector-curvature="0"
         class="st2"
         d="m 33.8,51.8 c 0,-1.3 0,-2.5 0.1,-3.8 l -18.7,6.8 c 0.1,1.2 0.2,2.4 0.4,3.6 l 18.2,-6.6 z"
         id="path8261" />
      <path
         style="fill:#cc0000;fill-opacity:1;stroke-width:4.2696"
         inkscape:connector-curvature="0"
         class="st2"
         d="m 113.9,22.4 c -0.6,-1 -1.2,-1.9 -1.9,-2.8 l -18.7,6.8 c 0.8,0.8 1.6,1.7 2.3,2.7 l 18.3,-6.7 z"
         id="path8263" />
      <path
         style="fill:#cc0000;fill-opacity:1;stroke-width:4.2696"
         inkscape:connector-curvature="0"
         class="st0"
         d="m 17.2,84.7 c 1.4,2 3,4 4.8,5.8 L 42.3,83.1 C 40,81.6 37.8,79.9 35.9,77.9 l -18.7,6.8 z m 96.9,-35.3 -18.7,6.8 c -0.2,2.7 -0.7,5.4 -1.6,8 l 20.3,-7.4 c 0.2,-2.5 0.2,-4.9 0,-7.4"
         id="path8265" />
    </g>
  </g>
</svg>
