<?xml version="1.0" encoding="UTF-8" standalone="no"?>
<svg
   xmlns:dc="http://purl.org/dc/elements/1.1/"
   xmlns:cc="http://creativecommons.org/ns#"
   xmlns:rdf="http://www.w3.org/1999/02/22-rdf-syntax-ns#"
   xmlns:svg="http://www.w3.org/2000/svg"
   xmlns="http://www.w3.org/2000/svg"
   xmlns:xlink="http://www.w3.org/1999/xlink"
   xmlns:sodipodi="http://sodipodi.sourceforge.net/DTD/sodipodi-0.dtd"
   xmlns:inkscape="http://www.inkscape.org/namespaces/inkscape"
   version="1.1"
   width="93"
   height="30"
   id="svg8143"
   inkscape:version="0.91+devel+osxmenu r12922"
   sodipodi:docname="RedHat.svg"
   viewBox="0 0 93 30">
  <metadata
     id="metadata8175">
    <rdf:RDF>
      <cc:Work
         rdf:about="">
        <dc:format>image/svg+xml</dc:format>
        <dc:type
           rdf:resource="http://purl.org/dc/dcmitype/StillImage" />
        <dc:title></dc:title>
      </cc:Work>
    </rdf:RDF>
  </metadata>
  <defs
     id="defs8173" />
  <sodipodi:namedview
     pagecolor="#ffffff"
     bordercolor="#666666"
     borderopacity="1"
     objecttolerance="10"
     gridtolerance="10"
     guidetolerance="10"
     inkscape:pageopacity="0"
     inkscape:pageshadow="2"
     inkscape:window-width="2101"
     inkscape:window-height="1097"
     id="namedview8171"
     inkscape:document-units="px"
     showgrid="false"
     inkscape:zoom="7.0538"
     inkscape:cx="46.5"
     inkscape:cy="15"
     inkscape:window-x="0"
     inkscape:window-y="23"
     inkscape:window-maximized="0"
     inkscape:current-layer="svg8143" />
  <path
     d="m 27.493,22.936 c -0.569,-0.13 -1.173,-0.213 -1.783,-0.213 -1.045,0 -1.995,0.182 -2.696,0.473 -0.08,0.04 -0.132,0.12 -0.132,0.211 0,0.03 0,0.07 0.02,0.1 0.08,0.24 -0.05,0.499 -0.732,0.65 -1.006,0.22 -1.641,1.259 -2.004,1.602 -0.427,0.405 -1.631,0.654 -1.45,0.411 0.142,-0.187 0.684,-0.776 1.013,-1.412 0.296,-0.568 0.559,-0.73 0.92,-1.273 0.107,-0.159 0.518,-0.718 0.638,-1.16 0.134,-0.432 0.09,-0.974 0.141,-1.197 0.07,-0.322 0.377,-1.019 0.4,-1.415 0.01,-0.221 -0.931,0.32 -1.379,0.32 -0.448,0 -0.885,-0.269 -1.285,-0.287 -0.495,-0.02 -0.814,0.381 -1.263,0.309 -0.255,-0.04 -0.472,-0.265 -0.918,-0.281 -0.637,-0.02 -1.416,0.353 -2.877,0.307 C 12.669,20.03 11.341,18.259 11.16,17.978 10.947,17.649 10.687,17.649 10.405,17.909 10.122,18.166 9.772,17.963 9.674,17.79 9.485,17.46 8.981,16.497 8.2,16.294 c -1.08,-0.28 -1.627,0.598 -1.556,1.295 0.072,0.709 0.531,0.908 0.744,1.285 0.211,0.376 0.32,0.62 0.718,0.787 0.284,0.118 0.389,0.292 0.305,0.524 -0.074,0.202 -0.368,0.249 -0.563,0.258 -0.411,0.02 -0.699,-0.09 -0.91,-0.226 C 6.694,20.06 6.494,19.844 6.282,19.477 6.034,19.071 5.645,18.895 5.192,18.895 c -0.216,0 -0.419,0.06 -0.598,0.148 -0.71,0.371 -1.556,0.589 -2.466,0.589 L 1.1,19.633 c 1.969,5.837 7.492,10.039 13.997,10.039 5.195,0 9.764,-2.68 12.396,-6.736"
     style="fill:#ffffff"
     id="path8145"
     inkscape:connector-curvature="0" />
  <path
     d="m 27.493,22.938 c -0.569,-0.132 -1.173,-0.214 -1.783,-0.214 -1.045,0 -1.995,0.182 -2.696,0.473 -0.08,0.04 -0.132,0.119 -0.132,0.211 0,0.03 0,0.07 0.02,0.09 0.08,0.241 -0.05,0.501 -0.732,0.651 -1.006,0.221 -1.641,1.258 -2.004,1.601 -0.427,0.406 -1.631,0.655 -1.45,0.413 0.142,-0.189 0.684,-0.778 1.013,-1.414 0.296,-0.567 0.559,-0.73 0.92,-1.272 0.107,-0.159 0.518,-0.719 0.638,-1.16 0.134,-0.433 0.09,-0.974 0.141,-1.197 0.07,-0.322 0.377,-1.019 0.4,-1.414 0.01,-0.223 -0.931,0.318 -1.379,0.318 -0.448,0 -0.885,-0.268 -1.285,-0.286 -0.495,-0.02 -0.814,0.381 -1.263,0.309 -0.255,-0.04 -0.472,-0.265 -0.918,-0.282 -0.637,-0.02 -1.416,0.354 -2.877,0.307 C 12.669,20.03 11.341,18.261 11.16,17.98 10.947,17.649 10.687,17.649 10.405,17.909 10.122,18.167 9.772,17.964 9.674,17.791 9.485,17.46 8.981,16.497 8.2,16.294 7.12,16.014 6.573,16.892 6.644,17.59 c 0.072,0.708 0.531,0.907 0.744,1.284 0.211,0.376 0.32,0.621 0.718,0.788 0.284,0.117 0.389,0.292 0.305,0.524 -0.074,0.202 -0.368,0.249 -0.563,0.258 -0.411,0.02 -0.699,-0.09 -0.91,-0.228 C 6.694,20.062 6.494,19.845 6.282,19.477 6.034,19.072 5.645,18.895 5.192,18.895 c -0.216,0 -0.419,0.06 -0.598,0.148 -0.71,0.371 -1.556,0.59 -2.466,0.59 l -1.028,0 C 0.6,18.152 0.33,16.565 0.33,14.916 0.33,6.764 6.941,0.157 15.097,0.157 c 8.154,0 14.766,6.607 14.766,14.759 0,2.958 -0.871,5.71 -2.37,8.022"
     style="fill:#000000"
     id="path8147"
     inkscape:connector-curvature="0" />
  <path
     d="m 18.348,21.584 c 0.08,0.07 0.207,0.322 0.05,0.639 -0.09,0.168 -0.187,0.285 -0.359,0.423 -0.209,0.167 -0.614,0.359 -1.17,0 -0.3,-0.189 -0.319,-0.253 -0.732,-0.199 -0.295,0.04 -0.412,-0.261 -0.307,-0.508 0.107,-0.247 0.542,-0.447 1.085,-0.129 0.245,0.143 0.625,0.447 0.957,0.177 0.139,-0.109 0.222,-0.183 0.413,-0.405 0,-0 0.02,-0.01 0.04,-0.01 0.01,0 0.02,0 0.03,0.01"
     style="fill:#000000"
     id="path8149"
     inkscape:connector-curvature="0" />
  <path
     d="M 13.947,7.185 C 12.242,7.308 12.064,7.492 11.745,7.831 11.295,8.312 10.701,7.21 10.701,7.21 10.344,7.135 9.9131,6.561 10.146,6.026 c 0.23,-0.53 0.654,-0.372 0.786,-0.207 0.161,0.201 0.506,0.53 0.954,0.518 0.448,-0.012 0.964,-0.106 1.685,-0.106 0.73,0 1.22,0.272 1.247,0.507 0.03,0.199 -0.06,0.387 -0.871,0.447 m 1.792,-2.817 -0,0 c -0.03,0 -0.05,-0.02 -0.05,-0.044 0,-0.018 0.01,-0.034 0.03,-0.041 0.331,-0.174 0.824,-0.314 1.388,-0.37 0.169,-0.018 0.335,-0.028 0.494,-0.028 l 0.09,0 c 0.947,0.022 1.704,0.398 1.693,0.84 -0.01,0.442 -0.787,0.783 -1.735,0.763 -0.305,-0.01 -0.593,-0.052 -0.84,-0.124 -0.03,-0.01 -0.05,-0.032 -0.05,-0.062 0,-0.029 0.02,-0.054 0.05,-0.062 0.589,-0.136 0.988,-0.36 0.96,-0.571 C 17.719,4.39 16.948,4.238 16.032,4.33 15.931,4.34 15.834,4.353 15.739,4.368 m 7.69,6.621 c -0.146,0.49 -0.353,1.117 -1.277,1.591 -0.135,0.07 -0.185,-0.04 -0.124,-0.15 0.35,-0.594 0.411,-0.742 0.513,-0.975 0.141,-0.343 0.217,-0.83 -0.07,-1.844 C 21.92,7.614 20.76,4.943 19.919,4.078 19.106,3.242 17.634,3.006 16.302,3.348 15.812,3.473 14.853,3.971 13.075,3.571 9.9981,2.878 9.5421,4.418 9.3661,5.089 9.1881,5.76 8.7641,7.667 8.7641,7.667 c -0.141,0.778 -0.326,2.128 4.4529,3.039 2.226,0.423 2.338,0.999 2.438,1.412 0.177,0.741 0.459,1.165 0.777,1.377 0.318,0.212 0,0.388 -0.353,0.423 -0.947,0.1 -4.452,-0.906 -6.5259,-2.083 -1.696,-1.036 -1.724,-1.968 -1.336,-2.76 -2.562,-0.277 -4.485,0.24 -4.833,1.453 -0.599,2.08 4.576,5.634 10.4689,7.418 6.184,1.871 12.544,0.564 13.251,-3.321 0.321,-1.765 -1.166,-3.071 -3.675,-3.636"
     style="fill:#cc0000"
     id="path8151"
     inkscape:connector-curvature="0" />
  <g
     id="g3880"
     style="fill:#ffffff">
    <path
       d="m 29.714,22.149 0.133,0 0.201,0.33 0.13,0 -0.218,-0.336 c 0.113,-0.01 0.198,-0.07 0.198,-0.209 0,-0.151 -0.09,-0.217 -0.268,-0.217 l -0.291,0 0,0.762 0.115,0 0,-0.33 z m 0,-0.1 0,-0.237 0.157,0 c 0.08,0 0.165,0.02 0.165,0.112 0,0.118 -0.09,0.125 -0.184,0.125 l -0.138,0 z"
       style="fill:#ffffff"
       id="path8154"
       inkscape:connector-curvature="0" />
    <path
       d="m 30.596,22.099 c 0,0.411 -0.334,0.745 -0.746,0.745 -0.411,0 -0.747,-0.334 -0.747,-0.745 0,-0.411 0.336,-0.747 0.747,-0.747 0.412,0 0.746,0.336 0.746,0.747 M 29.85,21.485 c -0.34,0 -0.614,0.274 -0.614,0.615 0,0.337 0.274,0.611 0.614,0.611 0.339,0 0.613,-0.274 0.613,-0.611 0,-0.341 -0.274,-0.615 -0.613,-0.615"
       style="fill:#ffffff"
       id="path8156"
       inkscape:connector-curvature="0" />
  </g>
  <path
     d="m 37.39,15.846 c 0,-1.354 -0.03,-2.349 -0.08,-3.249 l 2.214,0 0.1,1.921 0.07,0 c 0.498,-1.424 1.678,-2.15 2.769,-2.15 0.249,0 0.395,0 0.601,0.06 l 0,2.408 c -0.24,-0.05 -0.464,-0.07 -0.772,-0.07 -1.218,0 -2.064,0.775 -2.293,1.934 -0.04,0.225 -0.07,0.496 -0.07,0.771 l 0,5.243 -2.559,0 0.02,-6.861 z"
     style="fill:#ffffff"
     id="path8158"
     inkscape:connector-curvature="0" />
  <path
     d="m 46.147,18.34 c 0.07,1.832 1.486,2.634 3.124,2.634 1.176,0 2.019,-0.185 2.791,-0.468 l 0.379,1.759 c -0.865,0.367 -2.066,0.64 -3.534,0.64 -3.285,0 -5.21,-2.027 -5.21,-5.125 0,-2.791 1.693,-5.43 4.947,-5.43 3.29,0 4.36,2.703 4.36,4.916 0,0.476 -0.04,0.856 -0.09,1.094 l -6.767,-0.02 z m 4.448,-1.781 c 0.01,-0.937 -0.396,-2.464 -2.109,-2.464 -1.575,0 -2.23,1.429 -2.345,2.464 l 4.454,0 z"
     style="fill:#ffffff"
     id="path8160"
     inkscape:connector-curvature="0" />
  <path
     d="m 61.469,18.324 c 0,0.268 -0.02,0.518 -0.08,0.746 -0.257,1.107 -1.163,1.819 -2.209,1.819 -1.61,0 -2.532,-1.357 -2.532,-3.214 0,-1.876 0.913,-3.329 2.56,-3.329 1.152,0 1.975,0.812 2.201,1.796 0.04,0.207 0.06,0.463 0.06,0.667 l 0,1.515 z m 2.556,-9.6213 -2.556,-0.721 0,5.7043 -0.04,0 c -0.453,-0.747 -1.451,-1.317 -2.836,-1.317 -2.433,0 -4.551,2.012 -4.534,5.399 0,3.108 1.912,5.167 4.329,5.167 1.459,0 2.681,-0.695 3.285,-1.828 l 0.05,0 0.115,1.601 2.28,0 c -0.05,-0.688 -0.09,-1.8 -0.09,-2.835 l 0,-11.1703 z"
     style="fill:#ffffff"
     id="path8162"
     inkscape:connector-curvature="0" />
  <path
     d="m 70.79,12.357 c -0.771,0 -1.462,0.222 -2.041,0.58 -0.602,0.352 -1.091,0.897 -1.383,1.459 l -0.04,0 0,-4.7311 -1.001,-0.296 0,13.3391 1.001,0 0,-6.188 c 0,-0.411 0.03,-0.696 0.137,-0.997 0.432,-1.26 1.619,-2.292 3.054,-2.292 2.072,0 2.79,1.661 2.79,3.483 l 0,5.994 1.001,0 0,-6.103 c 0,-3.769 -2.558,-4.248 -3.517,-4.248"
     style="fill:#ffffff"
     id="path8164"
     inkscape:connector-curvature="0" />
  <path
     d="m 83.293,20.304 c 0,0.801 0.03,1.628 0.148,2.403 l -0.922,0 -0.148,-1.449 -0.05,0 c -0.491,0.78 -1.619,1.68 -3.228,1.68 -2.037,0 -2.986,-1.433 -2.986,-2.781 0,-2.335 2.064,-3.743 6.183,-3.699 l 0,-0.27 c 0,-1.002 -0.195,-2.998 -2.591,-2.983 -0.886,0 -1.809,0.237 -2.542,0.754 l -0.318,-0.727 c 0.926,-0.627 2.055,-0.875 2.971,-0.875 2.921,0 3.48,2.192 3.48,4 l 0,3.947 z m -1,-3.005 c -2.206,-0.06 -5.117,0.271 -5.117,2.7 0,1.454 0.96,2.108 2.015,2.108 1.687,0 2.647,-1.044 2.997,-2.029 0.07,-0.215 0.105,-0.433 0.105,-0.607 l 0,-2.172 z"
     style="fill:#ffffff"
     id="path8166"
     inkscape:connector-curvature="0" />
  <path
     d="m 87.28,10.359 0,2.229 2.887,0 0,0.812 -2.887,0 0,6.577 c 0,1.287 0.399,2.093 1.488,2.093 0.521,0 0.891,-0.07 1.15,-0.159 l 0.121,0.775 c -0.327,0.138 -0.786,0.243 -1.397,0.243 -0.739,0 -1.352,-0.232 -1.748,-0.716 -0.458,-0.532 -0.615,-1.381 -0.615,-2.414 l 0,-6.399 -1.708,0 0,-0.812 1.708,0 0,-1.86 1.001,-0.369 z"
     style="fill:#ffffff"
     id="path8168"
     inkscape:connector-curvature="0" />
  <use
     transform="translate(61.718,0.0205)"
     id="use3884"
     x="0"
     y="0"
     width="93"
     height="30"
     xlink:href="#g3880"
     style="fill:#ffffff" />
</svg>
