
<svg xmlns="http://www.w3.org/2000/svg" viewBox="0 0 468 145" width="468" height="145">
   <path fill="#fff" d="m 39.31,54.28 c 0,-5.77 4.66,-10.31 10.25,-10.31 5.71,0 10.26,4.66 10.26,10.31 0,5.77 -4.66,10.31 -10.26,10.31 -5.59,0 -10.25,-4.6 -10.25,-10.31 m 53.49,3.21 c 0,-3.5 2.8,-6.35 6.3,-6.35 3.4,0 6.3,2.85 6.3,6.35 0,3.49 -2.9,6.35 -6.3,6.35 -3.6,0 -6.3,-2.74 -6.3,-6.35 M 75.5,87.25 c 0,-7.39 6,-13.51 13.4,-13.51 7.4,0 13.5,6.12 13.5,13.51 0,7.4 -6.1,13.55 -13.5,13.55 -7.3,0 -13.4,-6.03 -13.4,-13.55 M 98.1,29.64 c 0,-1.92 1.6,-3.32 3.4,-3.32 1.9,0 3.3,1.57 3.3,3.32 0,1.92 -1.6,3.32 -3.3,3.32 -1.8,0 -3.4,-1.51 -3.4,-3.32 m -16.8,-7.4 c 0,-2.62 2.1,-4.66 4.6,-4.66 2.5,0 4.7,2.16 4.7,4.66 0,2.62 -2.2,4.66 -4.7,4.66 -2.5,0 -4.6,-2.04 -4.6,-4.66 M 41.58,127.4 c 0,-3.2 2.62,-5.8 5.83,-5.8 3.2,0 5.82,2.6 5.82,5.8 0,3.3 -2.62,5.9 -5.82,5.9 -3.21,0 -5.83,-2.6 -5.83,-5.9 M 71.2,109.3 c 0,-2.8 2.3,-5 5,-5 2.8,0 5.1,2.2 5.1,5 0,2.7 -2.3,5 -5.1,5 -2.7,0 -5,-2.3 -5,-5 m 14.8,6.6 c 0,-3.7 2.8,-6.5 6.4,-6.5 3.5,0 6.4,2.8 6.4,6.5 0,3.6 -2.9,6.4 -6.4,6.4 -3.6,0 -6.4,-2.9 -6.4,-6.4 M 64,53.76 c 0,-2.74 2.2,-4.9 4.8,-4.9 2.8,0 4.9,2.16 4.9,4.9 0,2.74 -2.1,4.89 -4.9,4.89 -2.7,0.1 -4.8,-2.21 -4.8,-4.89 m 1.8,-15.38 c 0,-2.16 1.8,-3.96 3.9,-3.96 2.1,0 3.9,1.8 3.9,3.96 0,2.15 -1.8,3.9 -3.9,3.9 -2.2,0 -3.9,-1.75 -3.9,-3.9 M 52.07,82.59 c 0,-3.73 2.97,-6.81 6.81,-6.81 3.72,0 6.82,3.08 6.82,6.81 0,3.73 -3,6.82 -6.82,6.82 -3.84,0 -6.81,-2.97 -6.81,-6.82 m 57.63,6.7 c 0,-3.2 2.6,-5.88 5.8,-5.88 3.2,0 5.8,2.62 5.8,5.88 0,3.21 -2.6,5.89 -5.8,5.89 -3.2,0 -5.8,-2.68 -5.8,-5.89 m 15.6,-13.51 c 0,-3.96 3.2,-7.17 7.2,-7.17 3.9,0 7.1,3.21 7.1,7.17 0,3.96 -3.2,7.16 -7.1,7.16 -4,0 -7.2,-3.2 -7.2,-7.16 m -0.6,-30.59 c 0,-3.08 2.5,-5.59 5.6,-5.59 3.1,0 5.6,2.51 5.6,5.59 0,3.09 -2.5,5.6 -5.6,5.6 -3.1,0 -5.6,-2.51 -5.6,-5.6 m 3.8,15.15 c 0,-2.27 1.8,-4.08 4.1,-4.08 2.2,0 4.1,1.81 4.1,4.08 0,2.27 -1.9,4.08 -4.1,4.08 -2.3,0.11 -4.1,-1.81 -4.1,-4.08 M 112,56.79 c 0,-2.16 1.8,-3.96 3.9,-3.96 2.1,0 3.9,1.8 3.9,3.96 0,2.15 -1.8,3.96 -3.9,3.96 -2.3,-0.1 -3.9,-1.81 -3.9,-3.96 M 98.6,71.93 c 0,-1.69 1.3,-2.97 3,-2.97 1.7,0 3,1.34 3,2.97 0,1.63 -1.3,2.97 -3,2.97 -1.7,0 -3,-1.28 -3,-2.97 M 77.2,63.6 c 0,-2.97 2.4,-5.36 5.3,-5.36 3,0 5.4,2.39 5.4,5.36 0,2.97 -2.4,5.36 -5.4,5.36 -2.9,0 -5.3,-2.39 -5.3,-5.36 m 25.1,-21.09 c 0,-3.49 2.8,-6.34 6.3,-6.34 3.4,0 6.3,2.85 6.3,6.34 0,3.5 -2.9,6.35 -6.3,6.35 -3.5,0 -6.3,-2.73 -6.3,-6.35 m 13.8,-9.67 c 0,-2.73 2.3,-5 5.1,-5 2.7,0 5,2.27 5,5 0,2.74 -2.3,5.01 -5,5.01 -2.8,0 -5.1,-2.27 -5.1,-5.01 M 104.9,20.2 c 0,-1.92 1.6,-3.32 3.3,-3.32 1.9,0 3.3,1.58 3.3,3.32 0,1.93 -1.5,3.32 -3.3,3.32 -1.8,0 -3.3,-1.57 -3.3,-3.32 M 81.3,42.92 c 0,-3.61 2.8,-6.35 6.2,-6.35 3.6,0 6.3,2.86 6.3,6.35 0,3.61 -2.8,6.35 -6.3,6.35 -3.4,0.1 -6.2,-2.79 -6.2,-6.35 M 67.6,26.15 c 0,-2.16 1.8,-4.08 4.1,-4.08 2.2,0 3.9,1.8 3.9,4.08 0,2.27 -1.8,4.07 -3.9,4.07 -2.3,-0.11 -4.1,-1.92 -4.1,-4.07 M 77.8,9.66 c 0,-1.456 1.1,-2.621 2.6,-2.621 1.4,0 2.6,1.223 2.6,2.621 0,1.4 -1.2,2.62 -2.6,2.62 -1.4,0 -2.6,-1.16 -2.6,-2.62 M 62.1,11.35 C 62.1,7.738 65,5 68.5,5 c 3.4,0 6.3,2.854 6.3,6.35 0,3.61 -2.9,6.35 -6.3,6.35 -3.5,0.12 -6.4,-2.8 -6.4,-6.35 m -13.06,0.93 c 0,-1.92 1.57,-3.494 3.44,-3.494 1.92,0 3.43,1.574 3.43,3.494 0,1.92 -1.57,3.5 -3.43,3.5 -1.87,0 -3.44,-1.58 -3.44,-3.5 m -13.69,6.23 c 0,-2.38 2.04,-4.42 4.43,-4.42 2.39,0 4.42,2.04 4.42,4.42 0,2.39 -2.03,4.43 -4.42,4.43 -2.51,0 -4.43,-2.04 -4.43,-4.43 m -4.14,21.15 c 0,-2.04 1.69,-3.73 3.67,-3.73 1.98,0 3.67,1.69 3.67,3.73 0,2.04 -1.69,3.73 -3.67,3.73 -1.98,0 -3.67,-1.69 -3.67,-3.73 M 21.89,28.18 c 0,-3.49 2.86,-6.34 6.29,-6.34 3.56,0 6.3,2.85 6.3,6.34 0,3.62 -2.86,6.35 -6.3,6.35 -3.43,0 -6.29,-2.85 -6.29,-6.35 M 15.6,40.65 c 0,-1.81 1.46,-3.2 3.21,-3.2 1.74,0 3.2,1.45 3.2,3.2 0,1.81 -1.46,3.2 -3.2,3.2 -1.75,-0.11 -3.21,-1.57 -3.21,-3.2 m 8.8,9.9 c 0,-1.8 1.45,-3.2 3.2,-3.2 1.81,0 3.21,1.46 3.21,3.2 0,1.75 -1.46,3.21 -3.21,3.21 -1.75,0 -3.2,-1.4 -3.2,-3.21 m 0.11,16.72 c 0,-2.62 2.16,-4.77 4.78,-4.77 2.62,0 4.78,2.15 4.78,4.77 0,2.62 -2.16,4.78 -4.78,4.78 -2.62,0 -4.78,-2.1 -4.78,-4.78 M 9.78,91.21 c 0,-3.2 2.62,-5.88 5.82,-5.88 3.21,0 5.83,2.62 5.83,5.88 0,3.21 -2.62,5.89 -5.83,5.89 -3.2,0 -5.82,-2.68 -5.82,-5.89 M 5,70.77 c 0,-4.2 3.32,-7.52 7.51,-7.52 4.2,0 7.52,3.32 7.52,7.52 0,4.19 -3.32,7.51 -7.52,7.51 C 8.32,78.28 5,74.96 5,70.77 m 5.24,-17.59 c 0,-2.28 1.81,-4.08 4.08,-4.08 2.27,0 4.08,1.8 4.08,4.08 0,2.27 -1.81,4.07 -4.08,4.07 -2.27,0 -4.08,-1.8 -4.08,-4.07 m 27.27,37.8 c 0,-2.39 2.03,-4.43 4.42,-4.43 2.39,0 4.43,2.04 4.43,4.43 0,2.39 -2.04,4.43 -4.43,4.43 -2.39,0 -4.42,-2.04 -4.42,-4.43 m 1.1,-15.79 c 0,-2.38 2.04,-4.42 4.43,-4.42 2.39,0 4.43,2.04 4.43,4.42 0,2.39 -2.04,4.43 -4.43,4.43 -2.45,0 -4.43,-2.04 -4.43,-4.43 M 17.52,106.9 c 0,-3.2 2.63,-5.9 5.83,-5.9 3.2,0 5.82,2.6 5.82,5.9 0,3.2 -2.62,5.9 -5.82,5.9 -3.32,-0.1 -5.83,-2.7 -5.83,-5.9 m 10.61,13.8 c 0,-1.9 1.57,-3.3 3.32,-3.3 1.92,0 3.32,1.6 3.32,3.3 0,2 -1.58,3.4 -3.32,3.4 -1.75,0 -3.32,-1.4 -3.32,-3.4 M 64.1,99.72 c 0,-1.57 1.3,-2.86 2.8,-2.86 1.6,0 2.9,1.34 2.9,2.86 0,1.48 -1.3,2.88 -2.9,2.88 -1.6,0 -2.8,-1.4 -2.8,-2.88 M 27.25,83.18 c 0,-1.58 1.28,-2.86 2.86,-2.86 1.57,0 2.85,1.34 2.85,2.86 0,1.51 -1.28,2.85 -2.85,2.85 -1.58,0 -2.86,-1.28 -2.86,-2.85 m 100.15,9.2 c 0,-1.57 1.3,-2.85 2.9,-2.85 1.6,0 2.9,1.33 2.9,2.85 0,1.57 -1.3,2.85 -2.9,2.85 -1.6,0.1 -2.9,-1.28 -2.9,-2.85 m -16.7,28.52 c 0,-1.6 1.3,-2.9 2.8,-2.9 1.6,0 2.9,1.4 2.9,2.9 0,1.5 -1.3,2.8 -2.9,2.8 -1.7,-0.1 -2.8,-1.3 -2.8,-2.8 M 80.1,135 c 0,-2.3 2,-4.2 4.2,-4.2 2.3,0 4.2,1.9 4.2,4.2 0,2.2 -1.9,4.2 -4.2,4.2 -2.3,-0.2 -4.2,-2 -4.2,-4.2 m -21.51,-0.7 c 0,-3.1 2.51,-5.5 5.51,-5.5 3.1,0 5.6,2.5 5.6,5.5 0,3.1 -2.5,5.4 -5.6,5.4 -3,0 -5.51,-2.3 -5.51,-5.4 M 69.5,123.6 c 0,-3.1 2.5,-5.5 5.5,-5.5 3.1,0 5.6,2.5 5.6,5.5 0,3.1 -2.5,5.6 -5.6,5.6 -3,0.1 -5.5,-2.5 -5.5,-5.6 M 55.16,110.7 c 0,-3.1 2.5,-5.5 5.44,-5.5 3.1,0 5.6,2.5 5.6,5.5 0,2.9 -2.5,5.6 -5.6,5.6 -2.94,0 -5.44,-2.5 -5.44,-5.6 m -16.55,-2.3 c 0,-3.3 2.74,-6.1 6.06,-6.1 3.32,0 6.06,2.7 6.06,6.1 0,3.3 -2.74,6.1 -6.06,6.1 -3.32,-0.1 -6.06,-2.7 -6.06,-6.1 M 64.7,72.92 c 0,-2.15 1.8,-3.96 3.9,-3.96 2.1,0 3.9,1.81 3.9,3.96 0,2.16 -1.8,3.96 -3.9,3.96 -2.1,0 -3.9,-1.8 -3.9,-3.96 m 44.4,0.24 c 0,-2.51 2,-4.55 4.5,-4.55 2.5,0 4.6,2.04 4.6,4.55 0,2.5 -2.1,4.54 -4.6,4.54 -2.5,0 -4.5,-2.04 -4.5,-4.54 m -5.5,31.54 c 0,-2.5 2.1,-4.5 4.6,-4.5 2.5,0 4.5,2 4.5,4.5 0,2.5 -2,4.6 -4.5,4.6 -2.5,0.1 -4.6,-2.1 -4.6,-4.6 m 16.2,0.8 c 0,-3.8 3.1,-6.89 6.9,-6.89 3.9,0 7,3.09 7,6.89 0,3.9 -3.1,7 -7,7 -3.8,0 -6.9,-3.1 -6.9,-7 M 97,128 c 0,-2.7 2.3,-5 5,-5 2.8,0 5.1,2.3 5.1,5 0,2.8 -2.3,5 -5.1,5 -2.7,0 -5,-2.2 -5,-5 M 91.6,15.14 c 0,-2.63 2.1,-4.66 4.6,-4.66 2.6,0 4.7,2.15 4.7,4.66 0,2.62 -2.2,4.66 -4.7,4.66 -2.5,0.1 -4.6,-1.98 -4.6,-4.66 M 48.22,32.5 c 0,-3.62 2.86,-6.47 6.41,-6.47 3.55,0 6.37,2.85 6.37,6.47 0,3.61 -2.82,6.46 -6.37,6.46 -3.55,0 -6.41,-2.85 -6.41,-6.46 m 219.48,99.3 c 0,-4 -2.5,-5.6 -4.7,-6.2 2,-0.7 3.6,-2.3 3.6,-5 0,-4.2 -2.8,-6.1 -6.7,-6.1 l -9,0 0,24.5 8.8,0 c 5.1,0 8,-2.4 8,-7.2 l 0,0 z m -3.9,-11.1 c 0,2.2 -1.2,4 -4.3,4 l -5.9,0 0,-7.7 6.1,0 c 2.8,0 4.1,1.5 4.1,3.7 l 0,0 z m 1.1,11.2 c 0,2.8 -1.4,4.6 -5,4.6 l -6.3,0 0,-9.5 6.1,0 c 3.2,0 5.2,1.8 5.2,4.9 l 0,0 z m 25.2,-17.4 -3,0 -3.9,7.1 c -1,1.7 -2,3.8 -2.7,5.2 -0.7,-1.4 -1.8,-3.4 -2.8,-5.2 l -3.9,-7.1 -3.2,0 8.4,14.8 0,9.7 2.8,0 0,-9.7 8.3,-14.8 z m 33.7,24.5 -4.6,-9.5 c 3,-1.2 4.6,-3.6 4.6,-7.2 0,-5.2 -3.8,-7.8 -8.4,-7.8 l -11.4,0 0,24.5 4.8,0 0,-8.8 5,0 4.4,8.8 5.6,0 z m -5,-16.6 c 0,2.1 -1.2,3.2 -3.5,3.2 l -6.4,0 0,-6.3 6.4,0 c 2.2,0 3.5,0.9 3.5,3.1 l 0,0 z m 27.1,16.6 0,-4.8 -12.6,0 0,-5.9 7,0 0,-4.8 -7,0 0,-4.2 12.1,0 0,-4.8 -17,0 0,24.5 17.5,0 z m 24.4,-12.3 c 0,-8.9 -5.2,-12.2 -12.2,-12.2 l -7.6,0 0,24.5 7.3,0 c 6.3,0 12.5,-3.6 12.5,-12.3 l 0,0 z m -5,0 c 0,4.5 -2.3,7.5 -7.5,7.5 l -2.3,0 0,-15 2.5,0 c 5.1,0.1 7.3,2.5 7.3,7.5 l 0,0 z m 39.9,12.3 0,-24.5 -4.9,0 0,9.4 -10,0 0,-9.4 -4.9,0 0,24.5 4.9,0 0,-10.3 10,0 0,10.3 4.9,0 z m 27.4,0 -9.3,-24.5 -4.8,0 -9.4,24.5 5.2,0 2,-5.5 8.9,0 2,5.5 5.4,0 z m -9.1,-10.1 -5.5,0 1.5,-4.4 c 0.5,-1.5 1,-2.9 1.3,-3.8 0.2,0.9 0.7,2.4 1.2,3.8 l 1.5,4.4 z m 28.1,-9.5 0,-4.9 -19,0 0,4.9 7.1,0 0,19.6 4.9,0 0,-19.6 7,0 z M 190.9,71.76 c 5,-2.27 5.5,-7.63 5.5,-12.47 0,-14.85 -8.8,-14.85 -20,-14.97 l -0.3,0 c -12.4,0 -24.9,0.35 -24.9,15.15 l 0,1.92 8.1,0 0,-1.92 c 0.2,-7.63 6,-7.87 16,-7.87 12.6,0 13,0.82 13,8.68 0,7.75 -2,7.75 -8.9,7.87 l -8.3,0 0,7.39 7.7,0 c 7.4,0 10.6,0 10.6,7.99 0,9.08 -0.9,9.9 -10.4,9.9 l -3.5,0 c -11.6,-0.23 -16.9,0 -16.9,-7.4 l 0,-3.38 -8.1,0 0,3.38 c -0.2,5.07 0.9,8.74 3.3,11.13 3.4,3.34 14,3.74 21.7,3.74 l 2.5,0 c 12,0 19.4,-0.8 19.4,-16.68 0,-6.17 -1.2,-10.66 -6.5,-12.46 m 260.6,11.71 0,2.04 c 0,14.49 -11.3,15.29 -23.5,15.29 -21.5,0 -24.7,-7.14 -24.7,-28.11 0,-22.84 5,-28.19 24.7,-28.19 17.8,0 23.5,4.01 23.5,24.4 l 0,5.54 -39.6,0 c 0,17.42 1.3,19.57 16.1,19.57 11.4,0 15,-0.81 15,-8.45 l 0,-2.15 8.5,0 0,0.1 M 442.8,67.74 C 442.3,52.13 440.5,51.19 428,51.19 c -15,0 -15.5,3.85 -16.1,16.55 l 30.9,0 m -51.6,32.36 -8.3,0 0,-75.18 8.3,0 z m -28.5,0 0,-5.62 -0.3,-0.24 c -3.1,6.26 -11.2,6.56 -18.1,6.56 -12.3,0 -20.9,-2.42 -20.9,-16.69 0,-15.15 7.9,-17.3 21.5,-17.3 5.4,0 16.1,0.58 17.3,5.53 l 0.6,0 0,-10.14 c 0,-10.02 -5.5,-11.01 -14.7,-11.01 -6.5,0 -14.5,0 -14.3,7.52 l 0,1.92 -8.6,0 0,-1.11 c 0,-14.15 9.8,-15.08 22,-14.97 13.8,-0.11 24,1.34 23.8,18.12 l 0,37.43 -8.3,0 m -0.3,-16.34 c 0,-10.31 -6.2,-10.25 -16.6,-10.25 -9.9,0 -13.8,0.69 -13.8,9.55 0,10.43 4.2,11.01 13.8,11.01 8.3,-0.1 16.6,-0.29 16.6,-10.31 m -72.7,17.04 c -22.9,0 -24.4,-8.77 -24.4,-29.28 0,-17.88 3.1,-26.97 23,-26.97 13.3,0 23.7,1.46 23.7,17.07 l 0,1.46 -8.3,0 0,-1.81 c 0,-9.9 -5.4,-10.13 -15,-10.13 -14.6,0 -14.9,5.06 -14.9,22.6 0,15.49 0.7,20.21 16.7,20.21 10.4,0 14.2,-1.1 14.2,-11.12 l 0,-2.68 8.3,0 0,3.03 c 0.1,15.55 -10.2,17.62 -23.3,17.62 z m -44,-41.39 0,-2.16 c 0,-5.53 -4.2,-5.53 -13,-5.53 -10.3,0 -15.3,-0.12 -15.3,6.76 0,9.9 2.6,9.08 11.3,9.55 14.2,0.82 27,-1.34 27,16.54 0,15.53 -10.7,16.13 -23,16.13 -11.9,0 -24.4,-0.75 -24.4,-12.98 l 0,-5.07 8.6,0 0,4.25 c 0,5.3 3.3,6.41 15.8,6.41 5.7,0 14.4,1.22 14.4,-8.45 0,-10.25 -4.2,-8.44 -14.4,-8.97 -11.9,-0.81 -23.9,0.47 -23.9,-15.14 0,-15.96 9.1,-16.2 23.9,-16.2 9.7,0 21.5,0.47 21.5,12.94 l 0,1.92 -8.5,0 M 462.5,118 c -0.2,0.4 -0.4,0.7 -0.7,0.9 -0.3,0.3 -0.6,0.6 -1,0.7 -0.4,0.2 -0.8,0.2 -1.2,0.2 -0.5,0 -0.9,0 -1.2,-0.2 -0.4,-0.2 -0.7,-0.4 -1,-0.7 -0.3,-0.2 -0.5,-0.6 -0.6,-0.9 -0.2,-0.5 -0.3,-0.9 -0.3,-1.3 0,-0.4 0.1,-0.8 0.3,-1.2 0.1,-0.4 0.4,-0.7 0.6,-1 0.3,-0.3 0.6,-0.5 1,-0.6 0.4,-0.2 0.8,-0.3 1.2,-0.3 0.5,0 0.9,0.1 1.2,0.3 0.4,0.1 0.7,0.4 1,0.6 0.3,0.3 0.5,0.7 0.7,1 0.1,0.4 0.2,0.8 0.2,1.2 0,0.4 -0.1,0.8 -0.2,1.3 z m -0.5,-2.3 c -0.1,-0.4 -0.4,-0.6 -0.6,-0.8 -0.2,-0.3 -0.5,-0.4 -0.8,-0.6 -0.4,-0.1 -0.7,-0.2 -1.1,-0.2 -0.4,0 -0.7,0.1 -1,0.2 -0.3,0.1 -0.6,0.3 -0.8,0.6 -0.2,0.3 -0.4,0.5 -0.6,0.8 -0.1,0.3 -0.2,0.7 -0.2,1 0,0.4 0.1,0.7 0.2,1.1 0.1,0.3 0.3,0.6 0.6,0.8 0.3,0.2 0.5,0.4 0.8,0.6 0.3,0.1 0.6,0.2 1,0.2 0.4,0 0.7,-0.1 1.1,-0.2 0.3,-0.1 0.6,-0.3 0.8,-0.6 0.2,-0.3 0.4,-0.5 0.6,-0.8 0.1,-0.3 0.2,-0.7 0.2,-1.1 0,-0.4 -0.1,-0.7 -0.2,-1 z m -1.2,0.9 c -0.1,0.2 -0.3,0.3 -0.6,0.4 l 0.7,1.4 -0.7,0 -0.7,-1.4 -0.6,0 0,1.4 -0.6,0 0,-3.5 1.5,0 c 0.2,0 0.3,0 0.4,0.1 0.2,0 0.3,0.1 0.4,0.2 0.1,0 0.2,0.1 0.2,0.3 0.1,0.1 0.1,0.3 0.1,0.5 0,0.2 0,0.4 -0.1,0.6 z m -0.6,-1 c -0.1,0 -0.2,-0.1 -0.4,-0.1 l -0.9,0 0,1 0.9,0 c 0.2,0 0.3,-0.1 0.4,-0.1 0.2,-0.1 0.2,-0.2 0.2,-0.4 0,-0.2 -0.1,-0.3 -0.2,-0.4 z"></path>
   </svg>