<?xml version="1.0" encoding="UTF-8" standalone="no"?>
<svg
   xmlns:dc="http://purl.org/dc/elements/1.1/"
   xmlns:cc="http://creativecommons.org/ns#"
   xmlns:rdf="http://www.w3.org/1999/02/22-rdf-syntax-ns#"
   xmlns:svg="http://www.w3.org/2000/svg"
   xmlns="http://www.w3.org/2000/svg"
   height="57.7718124"
   width="311.529999"
   id="svg4"
   version="1.1"
   viewBox="0 0 311.530002 57.7718142">
  <metadata
     id="metadata10">
    <rdf:RDF>
      <cc:Work
         rdf:about="">
        <dc:format>image/svg+xml</dc:format>
        <dc:type
           rdf:resource="http://purl.org/dc/dcmitype/StillImage" />
        <dc:title></dc:title>
      </cc:Work>
    </rdf:RDF>
  </metadata>
  <defs
     id="defs8" />
  <path
     style="fill:#ffffff"
     id="path2"
     d="m 10.96,16.4618137 h 1.88 l 2.74,5.66 h 5.22 l -3.4,-6.41 c 0.8935892,-0.3860667 1.6597493,-1.0170222 2.21,-1.82 0.5814969,-0.926216 0.8674894,-2.007407 0.82,-3.1 0.023192,-0.86701701 -0.1369686,-1.72915894 -0.47,-2.53000002 -0.290336,-0.66850599 -0.748476,-1.25065377 -1.33,-1.69 -0.6219037,-0.45415669 -1.3295241,-0.77734868 -2.08,-0.95 -0.8779225,-0.20796316 -1.7778243,-0.30869843 -2.68,-0.3 H 6.4 V 22.1218137 h 4.56 z m 0,-7.34000002 h 2.82 c 0.5730652,-0.058181 1.1447365,0.12272766 1.58,0.5 0.3215399,0.3546571 0.4904005,0.82171832 0.47,1.30000002 0.038144,0.5126661 -0.1353157,1.0185892 -0.48,1.4 -0.463771,0.3665523 -1.0517789,0.5386522 -1.64,0.48 H 10.96 Z M 248.79,39.9518137 h 7.2 v -2.55 h -7.2 v -7.92 h 12.42 v -2.56 h -15.23 v 25.2 h 15.77 v -2.56 h -13 z m -20.19,-21.74 h -8.42 v -2.89 h 5 v -3.83 h -5 V 9.23181368 h 8.22 v -3.91 H 215.57 V 22.1218137 h 13 z m 52.51,27.72 v 1.73 c -0.100342,-0.223218 -0.213876,-0.4402682 -0.34,-0.65 l -0.49,-0.85 -0.5,-0.9 c -0.166667,-0.3 -0.323333,-0.5566667 -0.47,-0.77 l -10.91,-17.57 h -2.74 v 25.2 h 2.74 v -20.41 c 0.09967,0.2235431 0.213226,0.4406336 0.34,0.65 l 0.49,0.85 0.5,0.9 c 0.166667,0.3 0.323333,0.5566667 0.47,0.77 l 11,17.24 h 2.66 v -25.2 h -2.74 z m -267.37,-19.01 -8.74,25.2 h 2.88 l 2.2,-6.41 h 10.4 l 2.16,6.41 h 3 l -8.8,-25.2 z m -2.8,16.24 2.77,-8.21 0.47,-1.39 c 0.1666667,-0.4933333 0.3233333,-0.9666667 0.47,-1.42 0.1466667,-0.4533333 0.2733333,-0.8733333 0.38,-1.26 l 0.27,-1 0.27,1 c 0.1066667,0.3933333 0.2333333,0.8133333 0.38,1.26 l 0.45,1.4 c 0.1533333,0.48 0.3033333,0.9233333 0.45,1.33 l 2.77,8.28 z m 35,-14.4 c -0.7405406,-0.63529 -1.6057129,-1.1087504 -2.54,-1.39 -1.0347581,-0.3090862 -2.1101192,-0.460783 -3.19,-0.45 h -9.4 v 25.2 h 2.81 v -9.9 h 6.12 c 1.1722448,0.013181 2.3394448,-0.1554894 3.46,-0.5 0.9948854,-0.3009873 1.91497,-0.8087377 2.7,-1.49 0.7573132,-0.6772237 1.3549981,-1.5139826 1.75,-2.45 0.827881,-2.1428168 0.827881,-4.5171832 0,-6.66 -0.3757739,-0.9053718 -0.9538823,-1.712671 -1.69,-2.36 z m -6.17,10.9 h -6.15 v -10.18 h 6.52 c 1.4542871,-0.1109755 2.8931047,0.3602372 4,1.31 0.9601847,1.0079652 1.4566762,2.3705988 1.37,3.76 -0.033333,3.4066667 -1.9466667,5.11 -5.74,5.11 z m 190.53,2.34 -0.49,1.22 c -0.18,0.4533333 -0.353333,0.91 -0.52,1.37 l -0.47,1.3 c -0.146667,0.4066667 -0.253333,0.74 -0.32,1 -0.07333,-0.2666667 -0.183333,-0.6 -0.33,-1 l -0.47,-1.28 c -0.166667,-0.4533333 -0.34,-0.91 -0.52,-1.37 -0.18,-0.46 -0.343333,-0.88 -0.49,-1.26 l -6,-15.08 h -3.14 v 25.22 h 2.74 v -19.8 l 0.27,0.88 c 0.106667,0.3466667 0.226667,0.7066667 0.36,1.08 l 0.41,1.15 c 0.146667,0.3933333 0.29,0.7466667 0.43,1.06 l 6.64,16.28 6.72,-16.24 c 0.14,-0.34 0.29,-0.7 0.43,-1.08 l 0.43,-1.13 c 0.14,-0.37 0.27,-0.73 0.38,-1.08 l 0.27,-0.88 v 19.76 h 2.77 v -25.2 h -3.06 z m -18.07,-23.94 h -7.44 V 5.32181368 h -4.7 V 22.1218137 h 12.14 z m 76.65,8.86 v 2.56 h 7.42 v 22.64 h 2.81 v -22.64 h 7.42 v -2.56 z M 231.55,8.92181368 c 0.197137,0.19767327 0.43171,0.35405519 0.69,0.46 0.551958,0.22140672 1.168042,0.22140672 1.72,0 0.517805,-0.21129035 0.92871,-0.6221953 1.14,-1.14 0.221407,-0.55195793 0.221407,-1.16804207 0,-1.72 -0.197634,-0.54048056 -0.610358,-0.97492727 -1.14,-1.2 -0.551958,-0.22140672 -1.168042,-0.22140672 -1.72,0 -0.517805,0.21129035 -0.92871,0.6221953 -1.14,1.14 -0.221407,0.55195793 -0.221407,1.16804207 0,1.72 0.09991,0.27611389 0.256617,0.52820604 0.46,0.74 z m -0.15,-2.27 c 0.177804,-0.4591741 0.540826,-0.82219583 1,-1 0.462224,-0.18474151 0.977776,-0.18474151 1.44,0 0.216744,0.0867134 0.413947,0.21591588 0.58,0.38 0.163462,0.1665541 0.292579,0.36362594 0.38,0.58 0.184742,0.46222426 0.184742,0.97777574 0,1.44 -0.08742,0.21637406 -0.216538,0.4134459 -0.38,0.58 -0.166222,0.16387456 -0.363381,0.2930477 -0.58,0.38 -0.462224,0.18474151 -0.977776,0.18474151 -1.44,0 -0.457803,-0.17990308 -0.820097,-0.54219704 -1,-1 -0.184742,-0.46222426 -0.184742,-0.97777574 0,-1.44 z m 1.26,0.94 h 0.45 l 0.46,0.91 h 0.47 l -0.49,-1 c 0.145971,-0.0380435 0.275748,-0.12222296 0.37,-0.24 0.09875,-0.13238345 0.148255,-0.29505062 0.14,-0.46 0.0034,-0.10974851 -0.01712,-0.21891988 -0.06,-0.32 -0.03928,-0.0852572 -0.09741,-0.16048171 -0.17,-0.22 -0.0735,-0.0600689 -0.158611,-0.10432487 -0.25,-0.13 -0.09943,-0.0150853 -0.200569,-0.0150853 -0.3,0 h -1 v 2.36 h 0.4 z m 0,-1.06 h 0.62 c 0.09643,-0.004395 0.191531,0.0237838 0.27,0.08 0.147014,0.13821597 0.147014,0.37178403 0,0.51 -0.07881,0.0555245 -0.173666,0.0836313 -0.27,0.08 h -0.62 z M 37.34,18.2118137 h -8.43 v -2.89 h 5 v -3.83 h -5 V 9.23181368 h 8.26 v -3.91 H 24.3 V 22.1218137 h 13 z m 70,3.91 H 112 V 9.38181368 h 4.7 v -4.06 h -14.09 v 4.06 h 4.7 z m 49.78,4.8 -8.75,25.2 h 2.88 l 2.2,-6.41 h 10.4 l 2.16,6.41 h 3 l -8.75,-25.2 z m -2.81,16.24 2.77,-8.21 0.47,-1.39 c 0.166667,-0.4933333 0.323333,-0.9666667 0.47,-1.42 0.146667,-0.4533333 0.273333,-0.8733333 0.38,-1.26 l 0.27,-1 0.27,1 c 0.106667,0.3933333 0.233333,0.8133333 0.38,1.26 l 0.45,1.39 c 0.153333,0.48 0.303333,0.9233333 0.45,1.33 l 2.77,8.28 z m -99.34,-25.54 c 0.418104,-1.2909495 0.6142186,-2.6434637 0.58,-4 0.044139,-1.3594863 -0.1626477,-2.7154662 -0.61,-4.00000002 -0.356729,-0.98294274 -0.9510434,-1.86239074 -1.73,-2.56 -0.7848077,-0.66858179 -1.7169783,-1.14152129 -2.72,-1.38 -1.1738427,-0.26765521 -2.3763683,-0.38857957 -3.58,-0.36 H 41.03 V 22.1218137 h 5.45 c 1.3200468,0.020333 2.6373094,-0.1275229 3.92,-0.44 1.0447191,-0.255454 2.0165261,-0.7482013 2.84,-1.44 0.796815,-0.7061921 1.393508,-1.6098542 1.73,-2.62 z m -4.42,-1.82 c -0.1131664,0.5107611 -0.3579295,0.9830505 -0.71,1.37 -0.3470983,0.3538429 -0.781905,0.6092056 -1.26,0.74 -0.6025197,0.1646154 -1.2255142,0.2420688 -1.85,0.23 h -1 V 9.32181368 h 1.15 c 0.6161542,-0.0149187 1.2306897,0.0694955 1.82,0.25 0.4630969,0.14686655 0.8777751,0.41640738 1.2,0.78000002 0.3258966,0.3976324 0.552167,0.8673151 0.66,1.37 0.1451611,0.6564698 0.2122926,1.3277849 0.2,2 0.017631,0.6988679 -0.049526,1.397296 -0.2,2.08 z m 89.85,30.13 v 1.73 c -0.100342,-0.223218 -0.213876,-0.4402682 -0.34,-0.65 l -0.49,-0.85 -0.5,-0.9 c -0.166667,-0.3 -0.323333,-0.5566667 -0.47,-0.77 l -10.88,-17.57 h -2.74 v 25.2 h 2.74 v -20.41 c 0.09967,0.2235431 0.213226,0.4406336 0.34,0.65 l 0.49,0.85 0.5,0.9 c 0.166667,0.3 0.323333,0.5566667 0.47,0.77 l 11,17.24 h 2.66 v -25.2 H 140.4 Z M 121.71,5.37181368 c -0.551958,-0.22140672 -1.168042,-0.22140672 -1.72,0 -0.517805,0.21129035 -0.92871,0.6221953 -1.14,1.14 -0.221407,0.55195793 -0.221407,1.16804207 0,1.72 0.21129,0.5178047 0.622195,0.92870965 1.14,1.14 0.551958,0.22140672 1.168042,0.22140672 1.72,0 0.517805,-0.21129035 0.92871,-0.6221953 1.14,-1.14 0.221407,-0.55195793 0.221407,-1.16804207 0,-1.72 -0.229777,-0.64201072 -0.588657,-0.87450997 -1.14,-1.14 z m 0.45,3.31 c -0.166222,0.16387456 -0.363381,0.2930477 -0.58,0.38 -0.462224,0.18474151 -0.977776,0.18474151 -1.44,0 -0.457803,-0.17990308 -0.820097,-0.54219704 -1,-1 -0.184742,-0.46222426 -0.184742,-0.97777574 0,-1.44 0.177804,-0.4591741 0.540826,-0.82219583 1,-1 0.462224,-0.18474151 0.977776,-0.18474151 1.44,0 0.216744,0.0867134 0.413947,0.21591588 0.58,0.38 0.163462,0.1665541 0.292579,0.36362594 0.38,0.58 0.246007,0.94184226 0.157709,1.44292493 -0.38,2.1 z m 62.38,33.55000002 h 4.54 v 0.22 c 0.147393,2.0143132 -0.446535,4.0130415 -1.67,5.62 -1.247272,1.3273236 -3.022423,2.0278479 -4.84,1.91 -1.050785,0.015561 -2.086599,-0.2502976 -3,-0.77 -0.936309,-0.537181 -1.742221,-1.2747958 -2.36,-2.16 -0.70273,-1.008947 -1.233261,-2.1274559 -1.57,-3.31 -0.3983,-1.3742304 -0.593697,-2.7992784 -0.58,-4.23 -0.01395,-1.4227907 0.174604,-2.8403294 0.56,-4.21 0.323826,-1.1708918 0.84094,-2.2794762 1.53,-3.28 0.612033,-0.8777015 1.411253,-1.6086122 2.34,-2.14 0.915379,-0.5147948 1.949845,-0.7803079 3,-0.77 1.164262,-0.047759 2.320325,0.2145126 3.35,0.76 0.993348,0.6259148 1.850402,1.4455575 2.52,2.41 l 2.23,-1.69 c -1.81712,-2.6021767 -4.827987,-4.1076103 -8,-4 -1.453921,-0.011536 -2.888715,0.3317167 -4.18,1 -1.271116,0.6594423 -2.383516,1.5875797 -3.26,2.72 -0.893751,1.2108245 -1.570469,2.567644 -2,4.01 -0.5182,1.6841704 -0.774525,3.4379698 -0.76,5.2 -0.01544,1.7427901 0.227189,3.4782664 0.72,5.15 0.428158,1.4800225 1.122877,2.8694605 2.05,4.1 0.863082,1.1478332 1.969551,2.0903805 3.24,2.76 1.29371,0.6714033 2.732519,1.0147944 4.19,1 1.259301,0.00963 2.509788,-0.210647 3.69,-0.65 1.13916,-0.4296983 2.165217,-1.113736 3,-2 0.893743,-0.9337392 1.575878,-2.0490309 2,-3.27 0.492336,-1.4619016 0.729132,-2.9976959 0.7,-4.54 v -2.41 h -7.27 z M 121.9,6.86181368 c 0.0034,-0.10974851 -0.01712,-0.21891988 -0.06,-0.32 -0.03928,-0.0852572 -0.09741,-0.16048171 -0.17,-0.22 -0.0735,-0.0600689 -0.158611,-0.10432487 -0.25,-0.13 -0.09943,-0.0150853 -0.200569,-0.0150853 -0.3,0 h -1 v 2.36 h 0.4 v -0.91 h 0.45 l 0.46,0.91 h 0.47 l -0.49,-1 c 0.145971,-0.0380435 0.275748,-0.12222296 0.37,-0.24 0.08946,-0.1322413 0.131733,-0.29077436 0.12,-0.45 z m -0.51,0.27 c -0.07881,0.0555245 -0.173666,0.0836313 -0.27,0.08 h -0.62 v -0.67 h 0.62 c 0.09643,-0.004395 0.191531,0.0237838 0.27,0.08 0.147014,0.13821597 0.147014,0.37178403 0,0.51 z M 53.24,52.1318137 h 2.81 v -25.21 h -2.81 z m 102.27,-34 c -0.550281,0.199243 -1.136197,0.2809989 -1.72,0.24 -0.420421,-0.00274 -0.839389,-0.049667 -1.25,-0.14 -0.451573,-0.095817 -0.895969,-0.222787 -1.33,-0.38 -0.432757,-0.1569772 -0.856709,-0.3372403 -1.27,-0.54 -0.370787,-0.1774988 -0.728371,-0.3813548 -1.07,-0.61 l -2.25,3.62 c 2.1274,1.3136673 4.579698,2.006407 7.08,2 0.935724,0.00811 1.869048,-0.095961 2.78,-0.31 0.789551,-0.1924323 1.53586,-0.5316636 2.2,-1 0.61379,-0.4298288 1.109102,-1.0076922 1.44,-1.68 0.363173,-0.7716529 0.541229,-1.6174203 0.52,-2.47 0.01063,-0.683688 -0.11163,-1.3629327 -0.36,-2 -0.240667,-0.5783766 -0.618142,-1.0896842 -1.1,-1.49 -0.57155,-0.4592206 -1.213022,-0.8238468 -1.9,-1.08 -0.892976,-0.3425424 -1.808473,-0.6232059 -2.74,-0.84 -0.546667,-0.1266667 -0.993333,-0.2433333 -1.34,-0.35 -0.288317,-0.079224 -0.569339,-0.1829349 -0.84,-0.31 -0.171072,-0.077639 -0.321716,-0.194046 -0.44,-0.34 -0.08797,-0.1220798 -0.133622,-0.2695701 -0.13,-0.42 -0.0049,-0.28550458 0.120153,-0.55777855 0.34,-0.74000002 0.421151,-0.24084875 0.907677,-0.3423542 1.39,-0.29 0.824385,-0.005269 1.643356,0.13348213 2.42,0.41 0.799805,0.29707297 1.559092,0.69351452 2.26,1.18000002 l 2.2,-3.59000002 c -0.901214,-0.62646929 -1.892579,-1.11203606 -2.94,-1.44 -1.220698,-0.35650556 -2.488556,-0.52510358 -3.76,-0.5 -0.927332,-0.0132333 -1.851268,0.11490371 -2.74,0.38 -0.758389,0.22535512 -1.467455,0.59176257 -2.09,1.08 -0.565253,0.45164121 -1.020109,1.02619699 -1.33,1.68 -0.315857,0.67591704 -0.476448,1.41395184 -0.47,2.16000002 -0.02258,0.7310098 0.103285,1.4590091 0.37,2.14 0.247756,0.5768789 0.632143,1.0848191 1.12,1.48 0.562352,0.4365999 1.194641,0.7747222 1.87,1 0.864967,0.3056516 1.746342,0.5627192 2.64,0.77 0.56,0.1266667 1.023333,0.25 1.39,0.37 0.303963,0.09217 0.598591,0.2126995 0.88,0.36 0.179114,0.087317 0.33632,0.2137647 0.46,0.37 0.08684,0.1264 0.13227,0.2766588 0.13,0.43 0.04718,0.3452855 -0.118684,0.6849091 -0.42,0.86 z m -12.62,-3.81 c -0.265816,-0.2963847 -0.584606,-0.540564 -0.94,-0.72 -0.356078,-0.1822921 -0.731859,-0.32321 -1.12,-0.42 0.290359,-0.1448899 0.570955,-0.308571 0.84,-0.49 0.27166,-0.1830708 0.511501,-0.4094 0.71,-0.67 0.20673,-0.2778827 0.371802,-0.584446 0.49,-0.91 0.134579,-0.3888767 0.198914,-0.7985913 0.19,-1.21000002 0.02234,-0.77439142 -0.142309,-1.54275848 -0.48,-2.24 -0.316532,-0.61197182 -0.789151,-1.12943769 -1.37,-1.5 -0.648425,-0.40704379 -1.367574,-0.6885973 -2.12,-0.83 -0.906003,-0.17506558 -1.82728,-0.25881809 -2.75,-0.25 -0.67033,-0.001327 -1.33951,0.0555531 -2,0.17 -0.589827,0.10342734 -1.168921,0.26075343 -1.73,0.47 -0.511429,0.19297969 -1.006381,0.42707888 -1.48,0.7 -0.439908,0.25264201 -0.861003,0.53671374 -1.26,0.85 l 2.21,3.00000002 c 0.617776,-0.44135574 1.290013,-0.80100243 2,-1.07000002 0.70808,-0.25653491 1.456975,-0.38191552 2.21,-0.37 0.61726,-0.04602 1.235534,0.0748714 1.79,0.35 0.345166,0.21345241 0.550829,0.59431038 0.54,1.00000002 0.05544,0.42294 -0.101785,0.8459392 -0.42,1.13 -0.470724,0.2335207 -0.996365,0.3338076 -1.52,0.29 h -2.16 v 3.62 h 2.42 c 0.634777,-0.051629 1.271488,0.072945 1.84,0.36 0.385734,0.2939355 0.590384,0.7676617 0.54,1.25 0.03084,0.5128366 -0.217732,1.0023367 -0.65,1.28 -0.651779,0.3300656 -1.381509,0.4753198 -2.11,0.42 -0.879807,0.00954 -1.752946,-0.1535415 -2.57,-0.48 -0.790158,-0.3225722 -1.533458,-0.7497172 -2.21,-1.27 l -2.4,3 c 0.927059,0.8076938 1.990247,1.4442527 3.14,1.88 1.259991,0.4683325 2.595919,0.6988988 3.94,0.68 1.032256,0.012212 2.062452,-0.09517 3.07,-0.32 0.831611,-0.1773955 1.620018,-0.5172261 2.32,-1 0.597431,-0.4449504 1.077865,-1.028335 1.4,-1.7 0.36348,-0.7892745 0.541362,-1.6513137 0.52,-2.52 0.0079,-0.4840584 -0.07344,-0.9654314 -0.24,-1.42 -0.14786,-0.3889421 -0.364664,-0.7480242 -0.64,-1.06 z m 32.81,6.73 c 0.535158,-0.3849112 1.007429,-0.8504359 1.4,-1.38 0.376603,-0.5120626 0.711034,-1.0538404 1,-1.62 l -3.94,-2.09 c -0.226667,0.4 -0.443333,0.7333333 -0.65,1 -0.188155,0.2703207 -0.4062,0.5185564 -0.65,0.74 -0.215592,0.1935492 -0.466985,0.3430261 -0.74,0.44 -0.322488,0.1051932 -0.661023,0.1525882 -1,0.14 -0.459953,0.015778 -0.913683,-0.1098706 -1.3,-0.36 -0.368981,-0.2582764 -0.670733,-0.6011754 -0.88,-1 -0.245138,-0.4561575 -0.414034,-0.9493316 -0.5,-1.46 -0.1086,-0.5937994 -0.162161,-1.1963552 -0.16,-1.8 -0.0036,-0.6202715 0.04997,-1.2395548 0.16,-1.85 0.08453,-0.5078626 0.253534,-0.9979779 0.5,-1.45 0.20695,-0.4004134 0.509148,-0.74382074 0.88,-1.00000002 0.372491,-0.23859807 0.807769,-0.36047592 1.25,-0.35 0.342293,-0.0111384 0.683075,0.0502024 1,0.18 0.270332,0.11807901 0.514932,0.28794026 0.72,0.5 0.222353,0.23762601 0.407754,0.50730072 0.55,0.80000002 0.172035,0.3449198 0.325586,0.6987539 0.46,1.06 l 4.22,-1.66000002 c -0.267714,-0.7294017 -0.60248,-1.43241054 -1,-2.1 -0.344766,-0.56171159 -0.784663,-1.05913366 -1.3,-1.47 -0.568299,-0.45591053 -1.220662,-0.795683 -1.92,-1 -0.864097,-0.22967832 -1.756068,-0.33738807 -2.65,-0.32 -1.066716,-0.0139511 -2.125032,0.19022561 -3.11,0.6 -0.921451,0.39177442 -1.747063,0.97857266 -2.42,1.72 -0.706148,0.78979343 -1.243773,1.71532611 -1.58,2.72000002 -0.389351,1.1664822 -0.578686,2.3903961 -0.56,3.62 -0.01232,1.1714597 0.152885,2.3380271 0.49,3.46 0.282143,1.0175036 0.768713,1.9668249 1.43,2.79 0.656348,0.7733468 1.476024,1.3915195 2.4,1.81 1.038772,0.4578154 2.165051,0.6830712 3.3,0.66 0.887427,0.016363 1.771809,-0.1085308 2.62,-0.37 0.702995,-0.2192169 1.367609,-0.546463 1.97,-0.97 z m 24.31,18.91 h 7.2 v -2.56 h -7.2 v -7.92 h 12.39 v -2.56 h -15.2 v 25.2 h 15.77 v -2.56 h -13 z m -92.09,-13 -8.75,25.2 h 2.88 l 2.2,-6.41 h 10.4 l 2.16,6.41 h 3 l -8.75,-25.2 z m -2.81,16.24 2.77,-8.21 0.47,-1.39 c 0.166667,-0.4933333 0.323333,-0.9666667 0.47,-1.42 0.146667,-0.4533333 0.273333,-0.8733333 0.38,-1.26 l 0.27,-1 0.27,1 c 0.106667,0.3933333 0.233333,0.8133333 0.38,1.26 l 0.45,1.39 c 0.153333,0.48 0.303333,0.9233333 0.45,1.33 l 2.77,8.28 z m -32.64,-27.7 h 5.23 v 6.62 h 4.75 V 5.32181368 H 77.7 V 11.4418137 H 72.47 V 5.32181368 H 67.72 V 22.1218137 h 4.75 z m 12.43,26.5 -0.5,1.23 c -0.18,0.4533333 -0.3533333,0.91 -0.52,1.37 l -0.47,1.3 c -0.1466667,0.4066667 -0.2533333,0.74 -0.32,1 -0.073333,-0.2666667 -0.1833333,-0.6 -0.33,-1 l -0.47,-1.28 c -0.1666667,-0.4533333 -0.34,-0.91 -0.52,-1.37 -0.18,-0.46 -0.3433333,-0.88 -0.49,-1.26 l -6,-15.08 h -3.14 v 25.21 h 2.74 v -19.8 l 0.27,0.88 c 0.1066667,0.3466667 0.2266667,0.7066667 0.36,1.08 l 0.41,1.15 c 0.1466667,0.3933333 0.29,0.7466667 0.43,1.06 l 6.61,16.24 6.72,-16.24 c 0.14,-0.34 0.29,-0.7 0.43,-1.08 l 0.49,-1.09 c 0.14,-0.37 0.27,-0.73 0.38,-1.08 l 0.27,-0.88 v 19.76 h 2.74 v -25.2 H 90.93 Z M 96.4,5.32181368 H 91.7 L 85.6,22.1218137 h 5 l 0.91,-3 h 5 l 0.91,3 h 5 z m -3.77,10.15000002 0.31,-1.1 0.38,-1.39 0.3,-1.08 c 0.086667,-0.32 0.1633333,-0.6166667 0.23,-0.89 0.06,-0.27 0.12,-0.55 0.17,-0.84 0.046667,0.2866667 0.1033333,0.5633333 0.17,0.83 0.066667,0.2666667 0.1433333,0.56 0.23,0.88 l 0.3,1.08 c 0.1133333,0.4 0.24,0.8733333 0.38,1.42 l 0.31,1.1 z m 93.54,-10.15000002 -6.1,16.80000002 h 5 l 0.91,-3 h 5 l 0.91,3 h 5 L 190.87,5.32181368 Z m 0.94,10.15000002 0.29,-1.15 0.38,-1.39 0.3,-1.08 c 0.08667,-0.32 0.163333,-0.6166667 0.23,-0.89 0.06,-0.27 0.12,-0.55 0.17,-0.84 0.04667,0.2866667 0.103333,0.5633333 0.17,0.83 0.06667,0.2666667 0.143333,0.56 0.23,0.88 l 0.3,1.08 c 0.113333,0.4 0.24,0.8733333 0.38,1.42 l 0.31,1.1 z" />
</svg>
