<svg xmlns="http://www.w3.org/2000/svg" height="57.676" width="273.584"><g style="line-height:1.25"><path d="M213.668 38.528v2.495h7.088v-2.495zm54.916 13.72V27.304h-2.495v20.633a37.794 37.794 0 0 0-1.033-1.746l-11.582-18.887h-2.53v24.946h2.494V31.9c.32.57.677 1.14.998 1.675l11.618 18.674zm-34.237.428c7.698 0 10.335-6.735 10.335-12.9 0-6.166-2.637-12.901-10.335-12.901-7.697 0-10.335 6.735-10.335 12.9 0 6.166 2.638 12.901 10.335 12.901zm0-2.245c-5.737 0-7.733-5.239-7.733-10.655 0-4.954 1.996-10.656 7.733-10.656 5.738 0 7.733 5.239 7.733 10.656 0 4.953-1.995 10.655-7.733 10.655zM209.56 52.25V27.303h-2.495v20.633a37.794 37.794 0 0 0-1.033-1.746L194.45 27.303h-2.53v24.946h2.494V31.9c.32.57.677 1.14.998 1.675l11.618 18.674zm-32.984.427c4.811 0 8.553-3.278 8.553-9.408v-2.744h-7.234v2.21h4.597v1.496c0 3.778-2.281 6.201-5.916 6.201-5.452 0-7.733-5.167-7.733-10.655 0-4.954 2.031-10.656 7.733-10.656 2.887 0 4.312 1.461 5.417 3.065l2.21-1.283c-1.248-2.031-3.137-4.027-7.627-4.027-7.199 0-10.335 6.094-10.335 12.9 0 6.522 2.923 12.901 10.335 12.901zm-19.04-.427h2.494V27.303h-2.495zm-14.282.427c4.597 0 7.875-2.494 7.875-6.913 0-4.669-3.813-6.807-7.198-8.126-2.958-1.14-5.738-2.352-5.738-4.989 0-2.138 1.746-3.528 4.669-3.528 2.494 0 4.134 1.176 4.74 2.495l2.316-.784c-.677-2.281-3.279-3.956-6.95-3.956-4.632 0-7.34 2.637-7.34 5.809 0 4.134 3.812 6.022 7.305 7.341 2.922 1.105 5.63 2.744 5.63 5.809 0 2.993-2.03 4.597-5.274 4.597-2.85 0-4.989-1.497-5.987-3.67l-2.352.855c.998 2.708 4.098 5.06 8.304 5.06zm-36.32-.427h15.003V49.86h-12.51v-9.337h7.912v-2.352h-7.911V29.69h11.725v-2.387h-14.22zm-19.838 0h14.86V49.86H89.592V27.303h-2.495zm-15.343.427c4.81 0 8.553-3.278 8.553-9.408v-2.744H73.07v2.21h4.598v1.496c0 3.778-2.281 6.201-5.916 6.201-5.453 0-7.733-5.167-7.733-10.655 0-4.954 2.03-10.656 7.733-10.656 2.886 0 4.312 1.461 5.417 3.065l2.21-1.283c-1.248-2.031-3.137-4.027-7.627-4.027-7.199 0-10.335 6.094-10.335 12.9 0 6.522 2.922 12.901 10.335 12.901zm-16.574-.427V27.303h-2.495v20.633a37.794 37.794 0 0 0-1.033-1.746L40.069 27.303h-2.53v24.946h2.494V31.9c.32.57.677 1.14.998 1.675l11.618 18.674zm-27.594 0h2.495V27.303h-2.495zm-14.282.427c4.598 0 7.876-2.494 7.876-6.913 0-4.669-3.813-6.807-7.198-8.126-2.958-1.14-5.738-2.352-5.738-4.989 0-2.138 1.746-3.528 4.668-3.528 2.495 0 4.134 1.176 4.74 2.495l2.317-.784c-.678-2.281-3.279-3.956-6.95-3.956-4.632 0-7.34 2.637-7.34 5.809 0 4.134 3.812 6.022 7.305 7.341 2.922 1.105 5.63 2.744 5.63 5.809 0 2.993-2.03 4.597-5.274 4.597-2.85 0-4.99-1.497-5.987-3.67L5 47.615c.998 2.708 4.098 5.06 8.303 5.06zM9.57 16.256h1.88l2.74 5.66h5.22l-3.4-6.41a5.16 5.16 0 0 0 2.21-1.82 5.39 5.39 0 0 0 .82-3.1 6.16 6.16 0 0 0-.47-2.53 4.23 4.23 0 0 0-1.33-1.69 5.69 5.69 0 0 0-2.08-.95 11.16 11.16 0 0 0-2.68-.3H5.01v16.8h4.56zm0-7.34h2.82a2.09 2.09 0 0 1 1.58.5c.321.355.49.822.47 1.3a1.88 1.88 0 0 1-.48 1.4 2.28 2.28 0 0 1-1.64.48H9.57zm26.38 9.09h-8.43v-2.89h5v-3.83h-5v-2.26h8.26v-3.91H22.91v16.8h13zm70 3.91h4.66V9.176h4.7v-4.06h-14.09v4.06h4.7zm-52.37-4.5a12 12 0 0 0 .58-4 11.07 11.07 0 0 0-.61-4 6.34 6.34 0 0 0-1.73-2.56 6.52 6.52 0 0 0-2.72-1.38 14.55 14.55 0 0 0-3.58-.36h-5.88v16.8h5.45a15.55 15.55 0 0 0 3.92-.44 7 7 0 0 0 2.84-1.44 6.06 6.06 0 0 0 1.73-2.62zm-4.42-1.82a3 3 0 0 1-.71 1.37 2.8 2.8 0 0 1-1.26.74 6.54 6.54 0 0 1-1.85.23h-1v-8.82h1.15a5.74 5.74 0 0 1 1.82.25 2.69 2.69 0 0 1 1.2.78c.325.398.552.867.66 1.37a8.54 8.54 0 0 1 .2 2 8.65 8.65 0 0 1-.2 2.08zm71.16-10.43a2.31 2.31 0 0 0-1.72 0 2.08 2.08 0 0 0-1.14 1.14 2.31 2.31 0 0 0 0 1.72 2.08 2.08 0 0 0 1.14 1.14 2.31 2.31 0 0 0 1.72 0 2.08 2.08 0 0 0 1.14-1.14 2.31 2.31 0 0 0 0-1.72c-.23-.642-.59-.874-1.14-1.14zm.45 3.31a1.76 1.76 0 0 1-.58.38 1.94 1.94 0 0 1-1.44 0 1.77 1.77 0 0 1-1-1 1.94 1.94 0 0 1 0-1.44 1.75 1.75 0 0 1 1-1 1.94 1.94 0 0 1 1.44 0c.216.087.413.216.58.38.163.167.292.364.38.58.246.942.157 1.443-.38 2.1zm-.26-1.82a.76.76 0 0 0-.06-.32.62.62 0 0 0-.17-.22.69.69 0 0 0-.25-.13 1 1 0 0 0-.3 0h-1v2.36h.4v-.91h.45l.46.91h.47l-.49-1a.7.7 0 0 0 .37-.24.71.71 0 0 0 .12-.45zm-.51.27a.44.44 0 0 1-.27.08h-.62v-.67h.62a.43.43 0 0 1 .27.08.35.35 0 0 1 0 .51zm-48.92 8.37h5.23v6.62h4.75v-16.8h-4.75v6.12h-5.23v-6.12h-4.75v16.8h4.75zm23.93-10.18h-4.7l-6.1 16.8h5l.91-3h5l.91 3h5zm-3.77 10.15l.31-1.1.38-1.39.3-1.08c.086-.32.163-.617.23-.89.06-.27.12-.55.17-.84.046.287.103.563.17.83.066.267.143.56.23.88l.3 1.08c.113.4.24.873.38 1.42l.31 1.1z" style="-inkscape-font-specification:'Overpass Light'" font-weight="300" font-family="Overpass" fill="#fff" aria-label="SINGLE SIGN ON" font-size="35.637" letter-spacing="0" word-spacing="0"/></g></svg>