<svg xmlns="http://www.w3.org/2000/svg" height="77.6" width="240.562" id="logo"><defs id="defs4"><style id="style2"></style></defs><path d="M34.91 36.87l13.21 10.41-8.75-21.59zM38.8 5a33.8 33.8 0 1 0 33.8 33.8A33.8 33.8 0 0 0 38.8 5zm13.87 50.66a2.83 2.83 0 0 1-1.87-.82l-17.44-14.1-5.84 14.64h-5.06l14.77-35.51a2.24 2.24 0 0 1 2.14-1.43 2.17 2.17 0 0 1 2.08 1.43l13.47 32.38a3.2 3.2 0 0 1 .23 1 2.41 2.41 0 0 1-2.48 2.41zm83.43 7.99a2.77 2.77 0 0 0-1.42-.34c-1.17 0-1.85.83-1.85 2.43v5.4h-1.91v-9.45h1.85v.9a2.62 2.62 0 0 1 2.16-1.1 2.72 2.72 0 0 1 1.6.4zm-7.49 3.43h-6.25c.2 1.82 1.22 2.59 2.38 2.59a3.31 3.31 0 0 0 2.05-.76l1.13 1.19a4.39 4.39 0 0 1-3.26 1.24c-2.21 0-4.09-1.78-4.09-4.92 0-3.14 1.69-4.93 4.14-4.93 2.68 0 4 2.18 4 4.74-.05.34-.08.65-.1.85zm-4.05-3.91c-1.24 0-2 .86-2.16 2.38h4.39c-.09-1.3-.7-2.38-2.23-2.38zm-7.95 7.97h-1.59l-1.28-4.77c-.2-.72-.4-1.57-.49-2-.09.45-.29 1.31-.49 2l-1.26 4.75h-1.58l-2.59-9.45h1.84l1.12 4.59c.18.72.38 1.62.47 2.07.11-.47.32-1.33.52-2.07l1.26-4.59h1.49l1.28 4.61c.2.74.4 1.58.5 2.05.11-.47.29-1.35.47-2.07l1.12-4.59h1.84zm-14.86.2c-2.38 0-4.16-2-4.16-4.92s1.84-4.93 4.21-4.93 4.21 1.93 4.21 4.88c.01 3.14-1.82 4.97-4.26 4.97zm0-8.08c-1.4 0-2.27 1.24-2.27 3.12 0 2.07 1 3.21 2.36 3.21 1.36 0 2.32-1.42 2.32-3.15-.01-1.94-.93-3.18-2.42-3.18zm-7.43-2.86v10.74h-1.89V60.4h-3.67v-1.86H98v1.86zm139.07-28.19a2.16 2.16 0 1 1 2.17-2.21 2.12 2.12 0 0 1-2.17 2.21zm0-4a1.82 1.82 0 1 0 1.82 1.79 1.78 1.78 0 0 0-1.82-1.77zm.49 2l.49 1h-.45l-.46-.91H233v.91h-.4v-2.39h1a.69.69 0 0 1 .77.71.67.67 0 0 1-.45.7zm-.28-1h-.62v.67h.62c.22 0 .38-.1.38-.34a.33.33 0 0 0-.38-.33zm-20.53 23.93V27.95h15.23v2.55h-12.38v7.92h7.2V41h-7.2v9.61h13v2.56zm-20.7 0V27.95h2.81v22.64h12.45v2.56zm-13.5 0h-9V27.95h9.21c4 0 6.84 2 6.84 6.3a5.1 5.1 0 0 1-3.63 5.15 6 6 0 0 1 4.82 6.3c-.04 4.96-2.95 7.44-8.24 7.44zm.05-22.64h-6.3v7.85h6.08c3.13 0 4.36-1.8 4.36-4s-1.31-3.85-4.14-3.85zm0 10.37h-6.26v9.72h6.41c3.78 0 5.22-1.87 5.22-4.75-.03-3.17-2.11-4.97-5.37-4.97zm-18.7 12.27V27.95h2.81v25.2zm-14.37.4A12 12 0 0 1 137.4 50l1.87-2a9.57 9.57 0 0 0 6.7 3c3.35 0 5.44-1.66 5.44-4.32 0-2.34-1.4-3.67-6-5.33-5.44-1.94-7.27-3.71-7.27-7.34 0-4 3.17-6.44 7.88-6.44a11.28 11.28 0 0 1 7.67 2.7l-1.8 2.2a8.77 8.77 0 0 0-6-2.34c-3.46 0-4.9 1.73-4.9 3.71s.94 3.28 6 5.08c5.58 2 7.31 3.89 7.31 7.63-.1 3.93-3.19 6.99-8.45 6.99zm-16.38-.4l-11-17.24c-.54-.86-1.48-2.52-1.8-3.17v20.41h-2.75V27.95h2.74l10.91 17.57c.54.86 1.48 2.52 1.8 3.17V27.95h2.7v25.2zm-23.68 0l-2.16-6.41H93.22l-2.2 6.41h-2.88l8.78-25.19h3.1l8.75 25.2zm-5.8-17.24c-.58-1.66-1.3-3.92-1.55-5-.25 1-1 3.28-1.58 5l-2.77 8.21h8.67zm104.08-25.34a2.16 2.16 0 1 1 2.17-2.16 2.12 2.12 0 0 1-2.17 2.16zm0-4a1.82 1.82 0 1 0 1.85 1.84 1.78 1.78 0 0 0-1.85-1.82zm.49 2l.49 1h-.47l-.46-.91h-.46v.91h-.4V7.17h1a.69.69 0 0 1 .77.71.67.67 0 0 1-.48.7zm-.28-1h-.62v.67h.62c.22 0 .38-.1.38-.34a.33.33 0 0 0-.39-.33zm-9.15 2.84v12.74h-4.66V10.4h-4.71V6.34h14.07v4.06zm-14.55 12.74l-.91-3h-5l-.91 3h-5l6.1-16.8h4.7l6.1 16.8zm-2.35-7.75c-.6-2.16-.86-3.07-1.08-4.2-.22 1.13-.48 2.06-1.08 4.2l-.31 1.1h2.78zm-17.37 7.75v-6.62h-5.24v6.62h-4.7V6.34h4.75v6.12h5.23V6.34h4.75v16.8zm-31.23 0h-5.45V6.34h5.88c5.28 0 8.64 2 8.64 8.3 0 6.3-3.12 8.5-9.07 8.5zm.41-12.82h-1.12v8.83h1c2.9 0 4-1.1 4-4.44 0-3.09-1-4.38-3.88-4.38zm-22.58 12.82V6.34h12.86v3.91h-8.26v2.23h5v3.86h-5v2.88h8.42v3.91zm-8.72 0L96 17.48h-1.87v5.66h-4.58V6.34h7.51c3.94 0 6.55 1.49 6.55 5.47a5 5 0 0 1-3 4.92l3.31 6.41zm-1.8-13h-2.81v3.67h2.79c1.51 0 2.11-.67 2.11-1.87 0-1.2-.62-1.8-2.11-1.8z" id="polygon50" fill="#fff"/></svg>